<?xml version="1.0" encoding="utf-8"?>
<!-- Generator: Adobe Illustrator 28.3.0, SVG Export Plug-In . SVG Version: 6.00 Build 0)  -->
<svg version="1.1" id="Capa_1" xmlns="http://www.w3.org/2000/svg" xmlns:xlink="http://www.w3.org/1999/xlink" x="0px" y="0px"
	 viewBox="0 0 32 32" style="enable-background:new 0 0 32 32;" xml:space="preserve">
<style type="text/css">
	.st0{fill:#FFFFFF;}
	.st1{fill:#002F87;}
</style>
<g>
	<rect class="st0" width="32" height="32"/>
	<g>
		<path class="st1" d="M16.2,4.6l-3,1.4c-0.1,0.4-0.3,0.7-0.6,0.8L8.1,8.9C7.7,9,7.3,9,7,8.8L4,10.3c-0.5,0.2-0.6,0.5-0.4,1
			l8.6,18.5h0.1h0.3h15.6h0.1h0.3L17.2,4.9C17,4.4,16.7,4.3,16.2,4.6z M12.5,29.4L4,11.1c-0.1-0.3-0.1-0.3,0.2-0.4L7,9.3
			c0.4,0.2,0.8,0.1,1.2,0l4.5-2.1c0.4-0.2,0.7-0.5,0.8-0.9l2.9-1.3c0.3-0.1,0.3-0.1,0.4,0.2l11.3,24.2H12.5z"/>
		<path class="st1" d="M24.7,18.3c-1.4-2.9-5-10.6-6.3-13.5C18.2,4.4,18,4,17.8,3.7c-0.6-1.3-1.6-1.7-3-1.2
			c-0.3,0.1-0.6,0.2-0.9,0.4c-3.3,1.5-6.5,3-9.8,4.6C3.8,7.6,3.4,7.8,3.1,8c-0.9,0.6-1.3,1.4-1,2.5c0.1,0.3,0.2,0.6,0.4,0.9
			C4.6,16,8.2,23.7,11,29.7h0.5C9.7,25.9,3.3,12.2,3,11.6c-0.4-0.8-0.1-1.5,0.7-1.9C4.9,9.2,6,8.6,7.2,8.1l0,0
			c0.1,0.2,0.4,0.3,0.6,0.2l4.5-2.1c0.2-0.1,0.3-0.4,0.2-0.6l0,0c1.2-0.5,2.3-1.1,3.5-1.6c0.8-0.4,1.5-0.2,1.9,0.7
			c1.7,3.6,8,17.2,11.7,25H30C28.2,25.9,26.4,22.1,24.7,18.3L24.7,18.3z M11.2,5.8L8.2,7.1C8.1,7.2,7.9,7.1,7.8,7
			C7.7,6.8,7.8,6.6,8,6.5l2.9-1.4c0.2-0.1,0.3,0,0.4,0.2C11.4,5.5,11.3,5.7,11.2,5.8z"/>
	</g>
</g>
</svg>
