<?xml version="1.0" encoding="utf-8"?>
<!-- Generator: Adobe Illustrator 28.3.0, SVG Export Plug-In . SVG Version: 6.00 Build 0)  -->
<svg version="1.1" id="Capa_1" xmlns="http://www.w3.org/2000/svg" xmlns:xlink="http://www.w3.org/1999/xlink" x="0px" y="0px"
	 viewBox="0 0 150 40" style="enable-background:new 0 0 150 40;" xml:space="preserve">
<style type="text/css">
	.st0{fill:#233977;}
</style>
<g>
	<path class="st0" d="M23.2,1l-5.3,7.7h-4.3L9.9,14h4.5l-13,18.9c0,0-1,1.5-1,3.7c0,2.1,2.8,2.5,2.8,2.5h9.9l3.1-5.5h-4.9
		c0,0-1.9-0.2-1-1.7C11.3,30.3,22.6,14,22.6,14h5.7l3.1-5.3h-5.2L31.5,1H23.2z"/>
	<polygon class="st0" points="54,39 79,1 70.7,1 45.6,39 	"/>
	<polygon class="st0" points="124.4,39 149.5,1 141.1,1 116.1,39 	"/>
	<path class="st0" d="M33.4,21.3h13.3c0,0,1.5-2.5,1.9-4.5c0.5-2-2-2.6-4.7-2.6C41.2,14.2,37.1,14.5,33.4,21.3 M50.1,26.7H30
		c0,0-2.1,2.4-2.3,4.5c0,0,0,1.7,2.1,1.7h15.5L41.3,39H28.6c0,0-9.6,0-9.6-5.5c0,0-0.1-4.1,6.9-13.6c7-9.5,11.9-9.9,19.9-9.9
		c8.1,0,10.3,2.5,10,4.6C55.7,17,55.4,18.2,50.1,26.7"/>
	<path class="st0" d="M103.1,21.3h13.3c0,0,1.5-2.5,1.9-4.5c0.5-2-2-2.6-4.7-2.6C111,14.2,106.8,14.5,103.1,21.3 M119.9,26.7H99.7
		c0,0-2.1,2.4-2.3,4.5c0,0,0,1.7,2.1,1.7h15.5L111,39H98.4c0,0-9.6,0-9.6-5.5c0,0-0.1-4.1,6.9-13.6c7-9.5,11.9-9.9,19.9-9.9
		c8.1,0,10.3,2.5,10,4.6C125.4,17,125.1,18.2,119.9,26.7"/>
	<path class="st0" d="M70.8,31.2c0,0,0,1.7,2.1,1.7h13.5L82.4,39H71.8c0,0-10.3,0.3-9.6-5.5c0,0-0.1-4.1,6.9-13.6
		c0,0,6.4-9.9,20.1-9.9h9.1l-4.1,6.1h-7.3c-0.7,0-6,0.5-10.7,5.7C71.4,27,71,29.4,70.8,31.2"/>
</g>
</svg>
