<?xml version="1.0" encoding="utf-8"?>
<!-- Generator: Adobe Illustrator 28.3.0, SVG Export Plug-In . SVG Version: 6.00 Build 0)  -->
<svg version="1.1" id="Capa_1" xmlns="http://www.w3.org/2000/svg" xmlns:xlink="http://www.w3.org/1999/xlink" x="0px" y="0px"
	 viewBox="0 0 350 40" style="enable-background:new 0 0 350 40;" xml:space="preserve">
<style type="text/css">
	.st0{fill:#002F87;}
</style>
<g>
	<g>
		<g>
			<path class="st0" d="M157.2,22.5c-0.6,0-1.1,0.4-1.3,0.5c-0.1,0.1-0.2,0.1-0.2,0.2c-4.2,2.7-8.3,2.2-8.6-4.2
				c-0.3-5.7,4.2-7.6,8.6-4.6c0.1,0,0.1,0.1,0.2,0.1c0.6,0.5,0.7,0.5,1.3,0.5c0.3,0,0.5-0.2,0.6-0.7c0-0.1,0-1.8,0-2.7
				c0-0.2,0-0.2,0-0.4c0-0.1,0-0.8-0.7-1.1c-0.1-0.1-0.5-0.2-0.6-0.3c-9-3.8-14,2.5-14.2,8.2c-0.2,7.3,4.4,12.9,13.9,9.8
				c0.1,0,0.1,0,0.2-0.1c0.8-0.3,1.5-1,1.5-2c0-0.1,0-0.4,0-0.4c0-0.9,0-1.3,0-2.1C157.9,23.2,157.9,22.5,157.2,22.5z"/>
			<path class="st0" d="M139.2,2.5h-2.3c-0.6,0-1.1,0.5-1.1,1.1v24.1c0,0.6,0.5,1.1,1.1,1.1h2.4c0.6,0,1.1-0.5,1.1-1.1V3.6
				C140.4,3,139.9,2.5,139.2,2.5z"/>
			<path class="st0" d="M58.9,24.3h-8.7c-0.6,0-1.1-0.5-1.1-1.1V3.6c0-0.6-0.5-1.1-1.1-1.1h-2.7c-0.6,0-1.1,0.5-1.1,1.1v22.6
				c0,0,0,0.7,0,1c0,0.8,0.5,1.5,1.2,1.6c0.2,0,0.7,0,0.7,0h12.8c0.6,0,1-0.5,1-1.1v-2.3C60,24.8,59.5,24.3,58.9,24.3z"/>
			<circle class="st0" cx="64.3" cy="5" r="2.5"/>
			<path class="st0" d="M95.4,8.8h-0.3c-2.7,0-7.6,1.9-8.4,7.6c0,0-0.2,0.8-0.2,2.6c0,2.1,0.4,3.9,1.3,5.5c1.7,2.9,3.9,4.4,8.3,4.4
				c1.7,0,3.4-0.2,4.8-0.7c1.3-0.4,2.5-1,2.5-2.1c0-1,0-3.2,0-3.2c0-0.5-0.2-0.7-0.5-0.7c-0.6,0-1,0.5-1.4,0.8
				c-1.4,1-3.5,1.5-4.7,1.5c-4.5,0-5.7-2.4-5.6-4.3V20h11c0.6,0,1.2-0.4,1.2-1.1v-1.4c0-1.5-0.2-2.7-0.5-3.7
				C101.8,10.5,99.1,8.8,95.4,8.8z M91.3,16.3c0-0.4,0.1-0.7,0.3-1.1c0.2-0.4,0.4-0.8,0.8-1.1c0.3-0.3,0.7-0.6,1.2-0.9
				c0.5-0.2,1.1-0.3,1.8-0.3c0.8,0,1.4,0.1,1.9,0.4c0.5,0.2,0.9,0.5,1.2,0.9c0.3,0.4,0.5,0.7,0.6,1.1c0.1,0.4,0.2,0.8,0.2,1.1
				L91.3,16.3L91.3,16.3z"/>
			<path class="st0" d="M65.6,8.8H63c-0.6,0-1.1,0.5-1.1,1.1v17.9c0,0.6,0.5,1.1,1.1,1.1h2.6c0.6,0,1.1-0.5,1.1-1.1v-18
				C66.6,9.3,66.2,8.8,65.6,8.8z"/>
			<path class="st0" d="M163.6,25c-0.4-0.4-1-0.6-1.6-0.6s-1.2,0.2-1.6,0.6c-0.4,0.4-0.6,0.9-0.6,1.6c0,0.6,0.2,1.2,0.6,1.6
				c0.4,0.4,1,0.6,1.6,0.6s1.2-0.2,1.6-0.6c0.4-0.4,0.6-0.9,0.6-1.6C164.3,25.9,164.1,25.4,163.6,25z M163.3,27.8
				c-0.3,0.3-0.8,0.5-1.3,0.5s-0.9-0.2-1.3-0.5c-0.3-0.3-0.5-0.8-0.5-1.3s0.2-0.9,0.5-1.3c0.3-0.3,0.8-0.5,1.3-0.5s0.9,0.2,1.3,0.5
				c0.3,0.3,0.5,0.8,0.5,1.3S163.6,27.5,163.3,27.8z"/>
			<path class="st0" d="M163.1,26.1c0-0.4-0.3-0.7-0.8-0.7h-1.1v2.3h0.5v-0.8h0.4l0.5,0.8h0.6l-0.5-0.9
				C162.8,26.8,163.1,26.5,163.1,26.1z M162.2,26.5h-0.5v-0.6h0.5c0.2,0,0.3,0.1,0.3,0.3S162.4,26.5,162.2,26.5z"/>
			<path class="st0" d="M114.8,24c-0.1,0-0.2,0-0.2,0.1c-2.1,0.9-4.2,0.8-4.2-1.4v-9.9h1.5l0,0h2.8c0.5,0,1-0.4,1-1v-2
				c0-0.5-0.4-1-1-1h-2.1l0,0h-2.5V3.5c0-0.5-0.4-1-1-1h-2.5c0,0-0.5,0-0.6,0c-0.5,0-0.7,0.3-0.7,0.7c0,0.1,0,0.4,0,0.4v3.2v0.9v1
				h-1c-0.5,0-1,0.4-1,1v2c0,0.5,0.4,0.9,0.9,1h1v2.7v4c0,2.4-0.2,5.5,1.4,7.5c1.7,2.2,5.8,2.2,8.3,1.3c0.4-0.1,0.6-0.5,0.6-0.9V25
				C115.9,24.4,115.4,24,114.8,24z"/>
			<path class="st0" d="M74,9.7c-0.1,0-0.2,0.2-0.4,0.3c-0.2,0.3-0.4,0.4-0.4,0.4V9.6c0-0.4-0.4-0.8-0.8-0.8h-3.3
				c-0.3,0-0.5,0.2-0.5,0.5V28l0,0c0,0.4,0.4,0.8,0.8,0.8h3c0.4,0,0.8-0.4,0.8-0.8V15c0-0.9,1.3-1.9,3.3-1.9c1.7,0,3.4,0.5,3.4,2.8
				V28c0,0.4,0.4,0.8,0.8,0.8h3c0.4,0,0.8-0.4,0.8-0.8V16C84.6,8.2,76.6,7.9,74,9.7z"/>
			<path class="st0" d="M125.8,8.8h-0.3c-2.7,0-7.6,1.9-8.4,7.6c0,0-0.2,0.8-0.2,2.6c0,2.1,0.4,3.9,1.3,5.5c1.7,2.9,3.9,4.4,8.3,4.4
				c1.7,0,3.4-0.2,4.8-0.7c1.3-0.4,2.5-1,2.5-2.1c0-1,0-3.2,0-3.2c0-0.5-0.2-0.7-0.5-0.7c-0.6,0-1,0.5-1.4,0.8
				c-1.4,1-3.5,1.5-4.7,1.5c-4.5,0-5.7-2.4-5.6-4.3V20h11c0.6,0,1.2-0.4,1.2-1.1v-1.4c0-1.5-0.2-2.7-0.5-3.7
				C132.1,10.5,129.4,8.8,125.8,8.8z M121.8,16.3c0-0.4,0.1-0.7,0.3-1.1c0.2-0.4,0.4-0.8,0.8-1.1c0.3-0.3,0.7-0.6,1.2-0.9
				c0.5-0.2,1.1-0.3,1.8-0.3c0.8,0,1.4,0.1,1.9,0.4c0.5,0.2,0.9,0.5,1.2,0.9c0.3,0.4,0.5,0.7,0.6,1.1c0.1,0.4,0.2,0.8,0.2,1.1
				L121.8,16.3L121.8,16.3z"/>
			<path class="st0" d="M29.1,4.7l-2.9,1.4c-0.1,0.3-0.3,0.6-0.6,0.8l-4.3,2C21,9,20.7,9,20.3,8.8l-2.9,1.4
				c-0.5,0.2-0.6,0.5-0.3,0.9l8.2,17.7h0.1h0.3h14.9h0.1H41L30,5.1C29.9,4.6,29.6,4.5,29.1,4.7z M25.6,28.4L17.5,11
				c-0.1-0.3-0.1-0.3,0.2-0.4l2.7-1.3c0.4,0.2,0.8,0.1,1.2,0l4.3-2c0.4-0.2,0.7-0.5,0.8-0.9l2.7-1.3C29.6,5,29.6,5,29.7,5.3
				l10.8,23.2H25.6V28.4z"/>
			<path class="st0" d="M37.2,17.8c-1.3-2.8-4.7-10.1-6-12.9c-0.2-0.4-0.3-0.7-0.5-1c-0.6-1.2-1.6-1.6-2.8-1.1
				C27.6,2.9,27.3,3,27,3.2c-3.2,1.3-6.3,2.8-9.4,4.3c-0.3,0.1-0.7,0.3-1,0.5c-0.9,0.5-1.2,1.3-1,2.3c0.1,0.3,0.2,0.6,0.3,0.9
				c2.1,4.5,5.6,11.8,8.3,17.6h0.5c-1.8-3.6-7.9-16.8-8.2-17.4c-0.3-0.7-0.1-1.4,0.7-1.7c1.1-0.5,2.2-1,3.3-1.5l0,0
				c0.1,0.2,0.4,0.2,0.6,0.1l4.3-2c0.2-0.1,0.3-0.4,0.2-0.6l0,0c1.1-0.5,2.2-1,3.3-1.5c0.8-0.4,1.4-0.1,1.8,0.7
				c1.6,3.4,7.7,16.5,11.2,23.9h0.5C40.6,25.1,38.9,21.5,37.2,17.8L37.2,17.8z M24.3,5.9l-2.8,1.3c-0.1,0.1-0.3,0-0.4-0.2
				c-0.1-0.2,0-0.3,0.1-0.4L24,5.3c0.2-0.1,0.3,0,0.4,0.1C24.5,5.6,24.5,5.8,24.3,5.9z"/>
		</g>
		<g>
			<path class="st0" d="M15.4,37.4v-4.3h1.7c1.4,0,2.3,0.9,2.3,2.2c0,1.3-0.9,2.2-2.3,2.2L15.4,37.4L15.4,37.4z M18.5,35.2
				c0-0.8-0.5-1.4-1.4-1.4h-0.8v2.7h0.8C18,36.6,18.5,36,18.5,35.2z"/>
			<path class="st0" d="M23.1,37.4v-4.3H24v4.3H23.1z"/>
			<path class="st0" d="M27.4,36.8l0.5-0.7c0.3,0.3,0.8,0.6,1.4,0.6c0.5,0,0.8-0.2,0.8-0.5c0-0.8-2.5-0.2-2.5-1.9
				c0-0.7,0.6-1.3,1.6-1.3c0.7,0,1.3,0.2,1.7,0.6l-0.5,0.7c-0.4-0.3-0.8-0.5-1.3-0.5c-0.4,0-0.6,0.2-0.6,0.4c0,0.7,2.5,0.2,2.5,1.8
				c0,0.8-0.6,1.4-1.7,1.4C28.4,37.5,27.8,37.2,27.4,36.8z"/>
			<path class="st0" d="M35.3,37.4v-3.5H34v-0.8h3.5v0.8h-1.3v3.5H35.3z"/>
			<path class="st0" d="M43.3,37.4l-0.9-1.5h-0.7v1.5h-0.8v-4.3h2c0.9,0,1.5,0.6,1.5,1.4s-0.5,1.2-1,1.3l1,1.7L43.3,37.4L43.3,37.4z
				 M43.4,34.5c0-0.4-0.3-0.6-0.7-0.6h-1v1.2h1C43.1,35.1,43.4,34.8,43.4,34.5z"/>
			<path class="st0" d="M47.8,37.4v-4.3h0.9v4.3H47.8z"/>
			<path class="st0" d="M52.4,37.4v-4.3h2.3c0.8,0,1.2,0.5,1.2,1.1c0,0.5-0.3,0.9-0.7,1c0.5,0.1,0.8,0.5,0.8,1.1
				c0,0.7-0.4,1.2-1.3,1.2L52.4,37.4L52.4,37.4z M55,34.3c0-0.3-0.2-0.5-0.5-0.5h-1.2v0.9h1.2C54.8,34.8,55,34.6,55,34.3z
				 M55.1,36.1c0-0.3-0.2-0.5-0.6-0.5h-1.2v1h1.2C54.9,36.6,55.1,36.4,55.1,36.1z"/>
			<path class="st0" d="M59.5,35.7v-2.6h0.9v2.6c0,0.6,0.4,1,1,1c0.7,0,1-0.4,1-1v-2.6h0.9v2.6c0,1.1-0.6,1.8-2,1.8
				C60.2,37.5,59.5,36.8,59.5,35.7z"/>
			<path class="st0" d="M67.1,37.4v-4.3h0.9v4.3H67.1z"/>
			<path class="st0" d="M71.8,37.4v-4.3h1.7c1.4,0,2.3,0.9,2.3,2.2c0,1.3-0.9,2.2-2.3,2.2L71.8,37.4L71.8,37.4z M74.8,35.2
				c0-0.8-0.5-1.4-1.4-1.4h-0.8v2.7h0.8C74.2,36.6,74.8,36,74.8,35.2z"/>
			<path class="st0" d="M78.9,35.2c0-1.3,1-2.2,2.3-2.2s2.3,0.9,2.3,2.2c0,1.3-1,2.2-2.3,2.2C79.9,37.5,78.9,36.6,78.9,35.2z
				 M82.5,35.2c0-0.8-0.5-1.4-1.3-1.4s-1.3,0.6-1.3,1.4c0,0.8,0.5,1.4,1.3,1.4C82,36.7,82.5,36.1,82.5,35.2z"/>
			<path class="st0" d="M89.4,37.4l-0.9-1.5h-0.7v1.5h-0.9v-4.3h2c0.9,0,1.5,0.6,1.5,1.4s-0.5,1.2-1,1.3l1,1.7L89.4,37.4L89.4,37.4z
				 M89.4,34.5c0-0.4-0.3-0.6-0.7-0.6h-1v1.2h1C89.2,35.1,89.4,34.8,89.4,34.5z"/>
			<path class="st0" d="M101.3,37.4l-0.3-0.7h-1.9l-0.2,0.7h-1l1.7-4.3h1.2l1.7,4.3H101.3z M100.1,34l-0.7,1.9h1.4L100.1,34z"/>
			<path class="st0" d="M105.4,35.7v-2.6h0.9v2.6c0,0.6,0.4,1,1,1s1-0.4,1-1v-2.6h0.9v2.6c0,1.1-0.6,1.8-2,1.8
				S105.4,36.8,105.4,35.7z"/>
			<path class="st0" d="M113.9,37.4v-3.5h-1.3v-0.8h3.5v0.8h-1.2v3.5H113.9z"/>
			<path class="st0" d="M119.1,35.2c0-1.3,1-2.2,2.3-2.2s2.3,0.9,2.3,2.2c0,1.3-1,2.2-2.3,2.2C120.1,37.5,119.1,36.6,119.1,35.2z
				 M122.8,35.2c0-0.8-0.5-1.4-1.3-1.4s-1.3,0.6-1.3,1.4s0.5,1.4,1.3,1.4C122.2,36.7,122.8,36.1,122.8,35.2z"/>
			<path class="st0" d="M129.6,37.4l-0.9-1.5H128v1.5h-0.9v-4.3h2c0.9,0,1.5,0.6,1.5,1.4s-0.5,1.2-1,1.3l1,1.7L129.6,37.4
				L129.6,37.4z M129.8,34.5c0-0.4-0.3-0.6-0.7-0.6h-1v1.2h1C129.4,35.1,129.8,34.8,129.8,34.5z"/>
			<path class="st0" d="M134.1,37.4v-4.3h0.9v4.3H134.1z"/>
			<path class="st0" d="M138.5,37.4v-0.7l2.1-2.8h-2.1v-0.8h3.3v0.7l-2.1,2.8h2.1v0.8H138.5z"/>
			<path class="st0" d="M148.3,37.4l-0.3-0.7h-1.9l-0.3,0.7h-0.9l1.7-4.3h1.2l1.7,4.3H148.3z M147.1,34l-0.7,1.9h1.4L147.1,34z"/>
			<path class="st0" d="M152.6,37.4v-4.3h1.7c1.4,0,2.3,0.9,2.3,2.2c0,1.3-0.9,2.2-2.3,2.2L152.6,37.4L152.6,37.4z M155.6,35.2
				c0-0.8-0.5-1.4-1.4-1.4h-0.8v2.7h0.8C155.1,36.6,155.6,36,155.6,35.2z"/>
			<path class="st0" d="M159.9,35.2c0-1.3,1-2.2,2.3-2.2s2.3,0.9,2.3,2.2c0,1.3-1,2.2-2.3,2.2C160.8,37.5,159.9,36.6,159.9,35.2z
				 M163.4,35.2c0-0.8-0.5-1.4-1.3-1.4s-1.3,0.6-1.3,1.4s0.5,1.4,1.3,1.4C162.9,36.7,163.4,36.1,163.4,35.2z"/>
		</g>
	</g>
</g>
<g>
	<path class="st0" d="M220.8,2.5l-4.9,7.1h-4l-3.4,4.9h4.1l-11.9,17.4c0,0-0.9,1.4-0.9,3.4c0,1.9,2.6,2.3,2.6,2.3h9.1l2.8-5.1h-4.5
		c0,0-1.7-0.2-0.9-1.6c0.9-1.5,11.3-16.4,11.3-16.4h5.2l2.8-4.9h-4.8l4.9-7.1H220.8z"/>
	<polygon class="st0" points="249.1,37.4 272.1,2.5 264.4,2.5 241.4,37.4 	"/>
	<polygon class="st0" points="313.8,37.4 336.8,2.5 329.1,2.5 306.1,37.4 	"/>
	<path class="st0" d="M230.2,21.1h12.2c0,0,1.4-2.3,1.7-4.1c0.5-1.8-1.8-2.4-4.3-2.4C237.3,14.6,233.6,14.9,230.2,21.1 M245.5,26.1
		H227c0,0-1.9,2.2-2.1,4.1c0,0,0,1.6,1.9,1.6h14.2l-3.7,5.6h-11.7c0,0-8.8,0-8.8-5.1c0,0-0.1-3.8,6.3-12.5
		c6.4-8.7,10.9-9.1,18.3-9.1c7.4,0,9.5,2.3,9.2,4.2C250.7,17.2,250.4,18.3,245.5,26.1"/>
	<path class="st0" d="M294.2,21.1h12.2c0,0,1.4-2.3,1.7-4.1c0.5-1.8-1.8-2.4-4.3-2.4C301.5,14.6,297.6,14.9,294.2,21.1 M309.6,26.1
		h-18.6c0,0-1.9,2.2-2.1,4.1c0,0,0,1.6,1.9,1.6h14.2l-3.7,5.6h-11.6c0,0-8.8,0-8.8-5.1c0,0-0.1-3.8,6.3-12.5s10.9-9.1,18.3-9.1
		c7.4,0,9.5,2.3,9.2,4.2C314.7,17.2,314.4,18.3,309.6,26.1"/>
	<path class="st0" d="M264.5,30.2c0,0,0,1.6,1.9,1.6h12.4l-3.7,5.6h-9.7c0,0-9.5,0.3-8.8-5.1c0,0-0.1-3.8,6.3-12.5
		c0,0,5.9-9.1,18.5-9.1h8.4l-3.8,5.6h-6.7c-0.6,0-5.5,0.5-9.8,5.2C265.1,26.4,264.7,28.6,264.5,30.2"/>
</g>
</svg>
