<?xml version="1.0" encoding="utf-8"?>
<!-- Generator: Adobe Illustrator 28.3.0, SVG Export Plug-In . SVG Version: 6.00 Build 0)  -->
<svg version="1.1" id="Capa_1" xmlns="http://www.w3.org/2000/svg" xmlns:xlink="http://www.w3.org/1999/xlink" x="0px" y="0px"
	 viewBox="0 0 85 20" style="enable-background:new 0 0 85 20;" xml:space="preserve">
<style type="text/css">
	.st0{fill:#FFFFFF;}
</style>
<g>
	<g>
		<g>
			<path class="st0" d="M79.1,11.4c-0.3,0-0.6,0.2-0.7,0.3c-0.1,0.1-0.1,0.1-0.1,0.1c-2.3,1.5-4.5,1.2-4.7-2.3
				c-0.2-3.1,2.3-4.1,4.7-2.5C78.3,7,78.3,7,78.4,7c0.3,0.3,0.4,0.3,0.7,0.3c0.2,0,0.3-0.1,0.3-0.4c0-0.1,0-1,0-1.5
				c0-0.1,0-0.1,0-0.2c0-0.1,0-0.4-0.4-0.6c-0.1-0.1-0.3-0.1-0.3-0.2c-4.9-2.1-7.6,1.4-7.7,4.5c-0.1,4,2.4,7,7.5,5.3
				c0.1,0,0.1,0,0.1-0.1c0.4-0.2,0.8-0.5,0.8-1.1c0-0.1,0-0.2,0-0.2c0-0.5,0-0.7,0-1.1C79.4,11.7,79.4,11.4,79.1,11.4z"/>
			<path class="st0" d="M69.3,0.5H68c-0.3,0-0.6,0.3-0.6,0.6v13.1c0,0.3,0.3,0.6,0.6,0.6h1.3c0.3,0,0.6-0.3,0.6-0.6V1.1
				C69.9,0.8,69.6,0.5,69.3,0.5z"/>
			<path class="st0" d="M25.7,12.3H21c-0.3,0-0.6-0.3-0.6-0.6V1.1c0-0.3-0.3-0.6-0.6-0.6h-1.5c-0.3,0-0.6,0.3-0.6,0.6v12.3
				c0,0,0,0.4,0,0.5c0,0.4,0.3,0.8,0.7,0.9c0.1,0,0.4,0,0.4,0h6.9c0.3,0,0.5-0.3,0.5-0.6v-1.2C26.3,12.6,26,12.3,25.7,12.3z"/>
			<circle class="st0" cx="28.6" cy="1.9" r="1.4"/>
			<path class="st0" d="M45.5,3.9h-0.2c-1.5,0-4.1,1-4.6,4.1c0,0-0.1,0.4-0.1,1.4c0,1.1,0.2,2.1,0.7,3c0.9,1.6,2.1,2.4,4.5,2.4
				c0.9,0,1.8-0.1,2.6-0.4c0.7-0.2,1.4-0.5,1.4-1.1c0-0.5,0-1.7,0-1.7c0-0.3-0.1-0.4-0.3-0.4c-0.3,0-0.5,0.3-0.8,0.4
				c-0.8,0.5-1.9,0.8-2.6,0.8c-2.4,0-3.1-1.3-3-2.3V10h6c0.3,0,0.7-0.2,0.7-0.6V8.6c0-0.8-0.1-1.5-0.3-2C49,4.8,47.5,3.9,45.5,3.9z
				 M43.3,8c0-0.2,0.1-0.4,0.2-0.6c0.1-0.2,0.2-0.4,0.4-0.6c0.2-0.2,0.4-0.3,0.7-0.5c0.3-0.1,0.6-0.2,1-0.2c0.4,0,0.8,0.1,1,0.2
				c0.3,0.1,0.5,0.3,0.7,0.5c0.2,0.2,0.3,0.4,0.3,0.6c0.1,0.2,0.1,0.4,0.1,0.6L43.3,8L43.3,8z"/>
			<path class="st0" d="M29.3,3.9h-1.4c-0.3,0-0.6,0.3-0.6,0.6v9.7c0,0.3,0.3,0.6,0.6,0.6h1.4c0.3,0,0.6-0.3,0.6-0.6V4.5
				C29.9,4.2,29.7,3.9,29.3,3.9z"/>
			<path class="st0" d="M82.5,12.7c-0.2-0.2-0.5-0.3-0.9-0.3s-0.7,0.1-0.9,0.3c-0.2,0.2-0.3,0.5-0.3,0.9c0,0.3,0.1,0.7,0.3,0.9
				c0.2,0.2,0.5,0.3,0.9,0.3s0.7-0.1,0.9-0.3c0.2-0.2,0.3-0.5,0.3-0.9C82.9,13.2,82.7,12.9,82.5,12.7z M82.4,14.2
				c-0.2,0.2-0.4,0.3-0.7,0.3s-0.5-0.1-0.7-0.3c-0.2-0.2-0.3-0.4-0.3-0.7c0-0.3,0.1-0.5,0.3-0.7c0.2-0.2,0.4-0.3,0.7-0.3
				s0.5,0.1,0.7,0.3c0.2,0.2,0.3,0.4,0.3,0.7C82.6,13.8,82.5,14.1,82.4,14.2z"/>
			<path class="st0" d="M82.3,13.3c0-0.2-0.2-0.4-0.4-0.4h-0.6v1.2h0.3v-0.4h0.2l0.3,0.4h0.3L82,13.7C82.1,13.7,82.3,13.5,82.3,13.3
				z M81.8,13.5h-0.3v-0.3h0.3c0.1,0,0.2,0.1,0.2,0.2S81.9,13.5,81.8,13.5z"/>
			<path class="st0" d="M56,12.2c-0.1,0-0.1,0-0.1,0.1c-1.1,0.5-2.3,0.4-2.3-0.8V6.1h0.8l0,0H56c0.3,0,0.5-0.2,0.5-0.5V4.5
				c0-0.3-0.2-0.5-0.5-0.5h-1.1l0,0h-1.4V1c0-0.3-0.2-0.5-0.5-0.5h-1.4c0,0-0.3,0-0.3,0c-0.3,0-0.4,0.2-0.4,0.4c0,0.1,0,0.2,0,0.2
				v1.7v0.5v0.5h-0.5c-0.3,0-0.5,0.2-0.5,0.5v1.1C49.8,5.8,50,6,50.3,6h0.5v1.5v2.2c0,1.3-0.1,3,0.8,4.1c0.9,1.2,3.1,1.2,4.5,0.7
				c0.2-0.1,0.3-0.3,0.3-0.5v-1.2C56.6,12.4,56.4,12.2,56,12.2z"/>
			<path class="st0" d="M33.9,4.4c-0.1,0-0.1,0.1-0.2,0.2c-0.1,0.2-0.2,0.2-0.2,0.2V4.4c0-0.2-0.2-0.4-0.4-0.4h-1.8
				C31.1,3.9,31,4,31,4.2v10.2l0,0c0,0.2,0.2,0.4,0.4,0.4H33c0.2,0,0.4-0.2,0.4-0.4V7.3c0-0.5,0.7-1,1.8-1c0.9,0,1.8,0.3,1.8,1.5
				v6.6c0,0.2,0.2,0.4,0.4,0.4h1.6c0.2,0,0.4-0.2,0.4-0.4V7.8C39.6,3.6,35.3,3.4,33.9,4.4z"/>
			<path class="st0" d="M62,3.9h-0.2c-1.5,0-4.1,1-4.6,4.1c0,0-0.1,0.4-0.1,1.4c0,1.1,0.2,2.1,0.7,3c0.9,1.6,2.1,2.4,4.5,2.4
				c0.9,0,1.8-0.1,2.6-0.4c0.7-0.2,1.4-0.5,1.4-1.1c0-0.5,0-1.7,0-1.7c0-0.3-0.1-0.4-0.3-0.4c-0.3,0-0.5,0.3-0.8,0.4
				c-0.8,0.5-1.9,0.8-2.6,0.8c-2.4,0-3.1-1.3-3-2.3V10h6c0.3,0,0.7-0.2,0.7-0.6V8.6c0-0.8-0.1-1.5-0.3-2C65.4,4.8,64,3.9,62,3.9z
				 M59.8,8c0-0.2,0.1-0.4,0.2-0.6c0.1-0.2,0.2-0.4,0.4-0.6c0.2-0.2,0.4-0.3,0.7-0.5c0.3-0.1,0.6-0.2,1-0.2c0.4,0,0.8,0.1,1,0.2
				c0.3,0.1,0.5,0.3,0.7,0.5S64,7.2,64,7.4c0.1,0.2,0.1,0.4,0.1,0.6L59.8,8L59.8,8z"/>
			<path class="st0" d="M9.5,1.7L7.9,2.5C7.9,2.6,7.8,2.8,7.6,2.9L5.3,4C5.1,4,5,4,4.7,3.9L3.2,4.7C2.9,4.8,2.8,5,3,5.2l4.5,9.6h0.1
				h0.2h8.1h0.1H16L10,1.9C10,1.6,9.8,1.6,9.5,1.7z M7.6,14.6L3.2,5.1C3.2,5,3.2,5,3.3,4.9l1.5-0.7c0.2,0.1,0.4,0.1,0.7,0l2.3-1.1
				C8,3,8.2,2.8,8.2,2.6l1.5-0.7C9.8,1.9,9.8,1.9,9.8,2l5.9,12.6L7.6,14.6L7.6,14.6z"/>
			<path class="st0" d="M13.9,8.8c-0.7-1.5-2.6-5.5-3.3-7c-0.1-0.2-0.2-0.4-0.3-0.5c-0.3-0.7-0.9-0.9-1.5-0.6
				C8.7,0.7,8.5,0.8,8.4,0.9C6.6,1.6,5,2.4,3.3,3.2C3.1,3.3,2.9,3.4,2.7,3.5C2.2,3.8,2.1,4.2,2.2,4.7c0.1,0.2,0.1,0.3,0.2,0.5
				c1.1,2.4,3,6.4,4.5,9.6h0.3c-1-2-4.3-9.1-4.5-9.4C2.5,5,2.6,4.6,3.1,4.4c0.6-0.3,1.2-0.5,1.8-0.8l0,0c0.1,0.1,0.2,0.1,0.3,0.1
				l2.3-1.1c0.1-0.1,0.2-0.2,0.1-0.3l0,0C8.2,2,8.8,1.7,9.4,1.4c0.4-0.2,0.8-0.1,1,0.4c0.9,1.8,4.2,9,6.1,13h0.3
				C15.8,12.8,14.8,10.8,13.9,8.8L13.9,8.8z M6.9,2.3L5.4,3.1c-0.1,0.1-0.2,0-0.2-0.1c-0.1-0.1,0-0.2,0.1-0.2L6.7,2
				C6.9,2,6.9,2,7,2.1C7,2.2,7,2.3,6.9,2.3z"/>
		</g>
		<g>
			<path class="st0" d="M2.1,19.4v-2.3H3c0.8,0,1.2,0.5,1.2,1.2S3.8,19.5,3,19.5L2.1,19.4L2.1,19.4z M3.8,18.3
				c0-0.4-0.3-0.8-0.8-0.8H2.6V19H3C3.5,19,3.8,18.7,3.8,18.3z"/>
			<path class="st0" d="M6.3,19.4v-2.3h0.5v2.3H6.3z"/>
			<path class="st0" d="M8.6,19.1l0.3-0.4c0.2,0.2,0.4,0.3,0.8,0.3c0.3,0,0.4-0.1,0.4-0.3c0-0.4-1.4-0.1-1.4-1
				c0-0.4,0.3-0.7,0.9-0.7c0.4,0,0.7,0.1,0.9,0.3l-0.3,0.4c-0.2-0.2-0.4-0.3-0.7-0.3c-0.2,0-0.3,0.1-0.3,0.2c0,0.4,1.4,0.1,1.4,1
				c0,0.4-0.3,0.8-0.9,0.8C9.1,19.5,8.8,19.3,8.6,19.1z"/>
			<path class="st0" d="M12.9,19.4v-1.9h-0.7v-0.4h1.9v0.4h-0.7v1.9H12.9z"/>
			<path class="st0" d="M17.2,19.4l-0.5-0.8h-0.4v0.8h-0.4v-2.3H17c0.5,0,0.8,0.3,0.8,0.8c0,0.4-0.3,0.7-0.5,0.7l0.5,0.9L17.2,19.4
				L17.2,19.4z M17.3,17.9c0-0.2-0.2-0.3-0.4-0.3h-0.5v0.7h0.5C17.1,18.2,17.3,18,17.3,17.9z"/>
			<path class="st0" d="M19.7,19.4v-2.3h0.5v2.3H19.7z"/>
			<path class="st0" d="M22.2,19.4v-2.3h1.2c0.4,0,0.7,0.3,0.7,0.6c0,0.3-0.2,0.5-0.4,0.5c0.3,0.1,0.4,0.3,0.4,0.6
				c0,0.4-0.2,0.7-0.7,0.7L22.2,19.4L22.2,19.4z M23.6,17.8c0-0.2-0.1-0.3-0.3-0.3h-0.7V18h0.7C23.5,18,23.6,17.9,23.6,17.8z
				 M23.6,18.7c0-0.2-0.1-0.3-0.3-0.3h-0.7V19h0.7C23.5,19,23.6,18.9,23.6,18.7z"/>
			<path class="st0" d="M26,18.5v-1.4h0.5v1.4c0,0.3,0.2,0.5,0.5,0.5c0.4,0,0.5-0.2,0.5-0.5v-1.4h0.5v1.4c0,0.6-0.3,1-1.1,1
				C26.4,19.5,26,19.1,26,18.5z"/>
			<path class="st0" d="M30.1,19.4v-2.3h0.5v2.3H30.1z"/>
			<path class="st0" d="M32.6,19.4v-2.3h0.9c0.8,0,1.2,0.5,1.2,1.2s-0.5,1.2-1.2,1.2L32.6,19.4L32.6,19.4z M34.3,18.3
				c0-0.4-0.3-0.8-0.8-0.8h-0.4V19h0.4C34,19,34.3,18.7,34.3,18.3z"/>
			<path class="st0" d="M36.6,18.3c0-0.7,0.5-1.2,1.2-1.2s1.2,0.5,1.2,1.2s-0.5,1.2-1.2,1.2C37.1,19.5,36.6,19,36.6,18.3z
				 M38.5,18.3c0-0.4-0.3-0.8-0.7-0.8s-0.7,0.3-0.7,0.8s0.3,0.8,0.7,0.8C38.2,19.1,38.5,18.7,38.5,18.3z"/>
			<path class="st0" d="M42.3,19.4l-0.5-0.8h-0.4v0.8h-0.5v-2.3H42c0.5,0,0.8,0.3,0.8,0.8c0,0.4-0.3,0.7-0.5,0.7l0.5,0.9L42.3,19.4
				L42.3,19.4z M42.3,17.9c0-0.2-0.2-0.3-0.4-0.3h-0.5v0.7h0.5C42.1,18.2,42.3,18,42.3,17.9z"/>
			<path class="st0" d="M48.7,19.4l-0.2-0.4h-1l-0.1,0.4h-0.5l0.9-2.3h0.7l0.9,2.3H48.7z M48.1,17.6l-0.4,1h0.8L48.1,17.6z"/>
			<path class="st0" d="M50.9,18.5v-1.4h0.5v1.4c0,0.3,0.2,0.5,0.5,0.5c0.3,0,0.5-0.2,0.5-0.5v-1.4H53v1.4c0,0.6-0.3,1-1.1,1
				S50.9,19.1,50.9,18.5z"/>
			<path class="st0" d="M55.6,19.4v-1.9h-0.7v-0.4h1.9v0.4h-0.7v1.9H55.6z"/>
			<path class="st0" d="M58.4,18.3c0-0.7,0.5-1.2,1.2-1.2s1.2,0.5,1.2,1.2s-0.5,1.2-1.2,1.2C58.9,19.5,58.4,19,58.4,18.3z
				 M60.3,18.3c0-0.4-0.3-0.8-0.7-0.8s-0.7,0.3-0.7,0.8s0.3,0.8,0.7,0.8C60.1,19.1,60.3,18.7,60.3,18.3z"/>
			<path class="st0" d="M64.1,19.4l-0.5-0.8h-0.4v0.8h-0.5v-2.3h1.1c0.5,0,0.8,0.3,0.8,0.8c0,0.4-0.3,0.7-0.5,0.7l0.5,0.9L64.1,19.4
				L64.1,19.4z M64.1,17.9c0-0.2-0.2-0.3-0.4-0.3h-0.5v0.7h0.5C64,18.2,64.1,18,64.1,17.9z"/>
			<path class="st0" d="M66.5,19.4v-2.3H67v2.3H66.5z"/>
			<path class="st0" d="M68.9,19.4v-0.4l1.1-1.5h-1.1v-0.4h1.8v0.4L69.6,19h1.1v0.4H68.9z"/>
			<path class="st0" d="M74.2,19.4l-0.2-0.4h-1l-0.2,0.4h-0.5l0.9-2.3H74l0.9,2.3H74.2z M73.6,17.6l-0.4,1H74L73.6,17.6z"/>
			<path class="st0" d="M76.6,19.4v-2.3h0.9c0.8,0,1.2,0.5,1.2,1.2s-0.5,1.2-1.2,1.2L76.6,19.4L76.6,19.4z M78.2,18.3
				c0-0.4-0.3-0.8-0.8-0.8H77V19h0.4C77.9,19,78.2,18.7,78.2,18.3z"/>
			<path class="st0" d="M80.5,18.3c0-0.7,0.5-1.2,1.2-1.2c0.7,0,1.2,0.5,1.2,1.2s-0.5,1.2-1.2,1.2C81,19.5,80.5,19,80.5,18.3z
				 M82.4,18.3c0-0.4-0.3-0.8-0.7-0.8S81,17.8,81,18.3s0.3,0.8,0.7,0.8C82.2,19.1,82.4,18.7,82.4,18.3z"/>
		</g>
	</g>
</g>
</svg>
