<?xml version="1.0" encoding="utf-8"?>
<!-- Generator: Adobe Illustrator 28.3.0, SVG Export Plug-In . SVG Version: 6.00 Build 0)  -->
<svg version="1.1" id="Capa_1" xmlns="http://www.w3.org/2000/svg" xmlns:xlink="http://www.w3.org/1999/xlink" x="0px" y="0px"
	 viewBox="0 0 350 40" style="enable-background:new 0 0 350 40;" xml:space="preserve">
<style type="text/css">
	.st0{fill:#002F87;}
</style>
<g>
	<g>
		<g>
			<g>
				<path class="st0" d="M156,22.8c-0.7,0-1.2,0.4-1.4,0.6c-0.1,0.1-0.2,0.1-0.3,0.2c-4.6,3-9.1,2.4-9.4-4.6c-0.3-6.3,4.6-8.3,9.5-5
					c0.1,0,0.1,0.1,0.2,0.1c0.7,0.5,0.8,0.6,1.4,0.6c0.3,0,0.6-0.2,0.6-0.7c0-0.1,0-2,0-3c0-0.2,0-0.2,0-0.4c0-0.1,0-0.9-0.8-1.3
					c-0.2-0.1-0.5-0.2-0.7-0.3c-9.9-4.2-15.4,2.7-15.6,9c-0.2,8,4.9,14.2,15.2,10.8c0.1,0,0.1,0,0.2-0.1c0.9-0.3,1.6-1.1,1.6-2.2
					c0-0.1,0-0.4,0-0.5c0-1,0-1.4,0-2.4C156.7,23.5,156.7,22.8,156,22.8z"/>
				<path class="st0" d="M136.2,0.8h-2.6c-0.7,0-1.2,0.5-1.2,1.2v26.5c0,0.7,0.5,1.2,1.2,1.2h2.6c0.7,0,1.2-0.5,1.2-1.2V2
					C137.4,1.3,136.9,0.8,136.2,0.8z"/>
				<path class="st0" d="M47.9,24.8h-9.6c-0.6,0-1.2-0.5-1.2-1.2V1.9c0-0.6-0.5-1.2-1.2-1.2h-3c-0.6,0-1.2,0.5-1.2,1.2v24.9
					c0,0,0,0.8,0,1.1c0,0.9,0.5,1.7,1.4,1.7c0.2,0,0.8,0,0.8,0h13.9c0.6,0,1.2-0.5,1.2-1.2v-2.6C49,25.3,48.5,24.8,47.9,24.8z"/>
				<circle class="st0" cx="53.8" cy="3.5" r="2.8"/>
				<path class="st0" d="M88,7.6h-0.3c-3,0-8.3,2-9.2,8.3c0,0-0.2,0.9-0.2,2.8c0,2.3,0.5,4.3,1.4,6c1.9,3.2,4.3,4.8,9.2,4.8
					c1.9,0,3.7-0.3,5.3-0.8c1.4-0.5,2.7-1.1,2.7-2.3c0-1.1,0-3.5,0-3.5c0-0.6-0.2-0.8-0.6-0.8c-0.7,0-1.1,0.5-1.6,0.9
					c-1.6,1.1-3.8,1.7-5.1,1.7c-5,0-6.3-2.7-6.1-4.8V20l12.1,0c0.7,0,1.3-0.5,1.3-1.2v-1.5c0-1.6-0.2-2.9-0.6-4
					C95,9.6,92,7.6,88,7.6z M83.5,15.9c0-0.4,0.2-0.8,0.4-1.3c0.2-0.4,0.5-0.8,0.8-1.2c0.4-0.4,0.8-0.7,1.4-0.9
					c0.6-0.2,1.2-0.4,2-0.4c0.8,0,1.5,0.1,2.1,0.4c0.5,0.3,1,0.6,1.3,1c0.3,0.4,0.5,0.8,0.6,1.2c0.1,0.4,0.2,0.8,0.2,1.2H83.5z"/>
				<path class="st0" d="M55.2,7.7h-2.8c-0.6,0-1.2,0.5-1.2,1.2v19.7c0,0.6,0.5,1.2,1.2,1.2h2.8c0.6,0,1.2-0.5,1.2-1.2V8.8
					C56.4,8.2,55.8,7.7,55.2,7.7z"/>
				<path class="st0" d="M163,25.5c-0.4-0.4-1-0.7-1.7-0.7c-0.7,0-1.3,0.3-1.7,0.7c-0.4,0.4-0.7,1-0.7,1.7c0,0.7,0.3,1.3,0.7,1.7
					c0.4,0.4,1,0.7,1.7,0.7c0.7,0,1.3-0.3,1.7-0.7c0.4-0.4,0.7-1,0.7-1.7C163.7,26.5,163.4,25.9,163,25.5z M162.7,28.6
					c-0.4,0.4-0.9,0.6-1.4,0.6c-0.5,0-1-0.2-1.4-0.6c-0.4-0.4-0.6-0.9-0.6-1.4c0-0.5,0.2-1,0.6-1.4c0.4-0.4,0.9-0.6,1.4-0.6
					c0.5,0,1,0.2,1.4,0.6c0.4,0.4,0.6,0.9,0.6,1.4C163.2,27.7,163,28.2,162.7,28.6z"/>
				<path class="st0" d="M162.4,26.8c0-0.5-0.3-0.8-0.9-0.8h-1.2v2.5h0.5v-0.9h0.4l0.5,0.9h0.6l-0.6-1
					C162.2,27.4,162.4,27.2,162.4,26.8z M161.5,27.1h-0.6v-0.7h0.6c0.2,0,0.4,0.1,0.4,0.3S161.7,27.1,161.5,27.1z"/>
				<path class="st0" d="M109.3,24.4c-0.1,0-0.2,0-0.2,0.1c-2.3,1-4.7,0.9-4.6-1.5l0-10.9h1.7v0h3.1c0.6,0,1.1-0.5,1.1-1.1V8.8
					c0-0.6-0.5-1.1-1.1-1.1H107v0h-2.7l0-5.8c0-0.6-0.5-1.1-1.1-1.1l-2.7,0c0,0-0.5,0-0.6,0c-0.5,0-0.8,0.3-0.8,0.8
					c0,0.1,0,0.5,0,0.5v3.5v1v1.1h-1.1c-0.6,0-1,0.5-1,1.1V11c0,0.6,0.5,1,1,1.1h1.1v3v4.4c0,2.6-0.2,6.1,1.5,8.2
					c1.9,2.4,6.4,2.5,9.1,1.5c0.4-0.2,0.7-0.5,0.7-1l0-2.6C110.5,24.9,110,24.4,109.3,24.4z"/>
				<path class="st0" d="M64.5,8.7c-0.1,0.1-0.3,0.2-0.4,0.3c-0.3,0.3-0.4,0.4-0.4,0.4V8.6c0-0.5-0.4-0.9-0.9-0.9l-3.6,0
					c-0.3,0-0.5,0.2-0.5,0.5v20.6v0c0,0.5,0.4,0.9,0.9,0.9h3.3c0.5,0,0.9-0.4,0.9-0.9V14.4c0-1,1.5-2.1,3.7-2.1
					c1.8,0,3.7,0.6,3.7,3.1v13.4c0,0.5,0.4,0.9,0.9,0.9h3.3c0.5,0,0.9-0.4,0.9-0.9l0-13.2C76.1,7,67.3,6.7,64.5,8.7z"/>
				<path class="st0" d="M121.4,7.6h-0.3c-3,0-8.3,2-9.2,8.3c0,0-0.2,0.9-0.2,2.8c0,2.3,0.5,4.3,1.4,6c1.9,3.2,4.3,4.8,9.2,4.8
					c1.9,0,3.7-0.3,5.3-0.8c1.4-0.5,2.7-1.1,2.7-2.3c0-1.1,0-3.5,0-3.5c0-0.6-0.2-0.8-0.6-0.8c-0.7,0-1.1,0.5-1.6,0.9
					c-1.6,1.1-3.8,1.7-5.1,1.7c-5,0-6.3-2.7-6.1-4.8V20l12.1,0c0.7,0,1.3-0.5,1.3-1.2v-1.5c0-1.6-0.2-2.9-0.6-4
					C128.4,9.6,125.4,7.6,121.4,7.6z M116.9,15.9c0-0.4,0.2-0.8,0.4-1.3c0.2-0.4,0.5-0.8,0.8-1.2c0.4-0.4,0.8-0.7,1.4-0.9
					c0.6-0.2,1.2-0.4,2-0.4c0.8,0,1.5,0.1,2.1,0.4c0.5,0.3,1,0.6,1.3,1c0.3,0.4,0.5,0.8,0.6,1.2c0.1,0.4,0.2,0.8,0.2,1.2H116.9z"/>
				<path class="st0" d="M15.1,3.2l-3.2,1.5c-0.1,0.4-0.3,0.7-0.7,0.9L6.5,7.8C6.2,7.9,5.8,7.9,5.4,7.7L2.2,9.2
					c-0.5,0.2-0.6,0.5-0.4,1l9,19.4h0.2h0.3h16.4h0.1h0.4L16.1,3.6C15.9,3.1,15.6,3,15.1,3.2z M11.2,29.3l-9-19.2
					C2.1,9.8,2.1,9.7,2.4,9.6l3-1.4c0.4,0.2,0.9,0.2,1.3,0L11.4,6c0.4-0.2,0.7-0.5,0.9-1l3-1.4c0.3-0.1,0.3-0.1,0.5,0.2l11.9,25.5
					H11.2z"/>
				<path class="st0" d="M24,17.6c-1.4-3-5.2-11.2-6.6-14.2C17.2,3,17,2.6,16.8,2.3C16.1,1,15.1,0.5,13.7,1c-0.3,0.1-0.7,0.2-1,0.4
					C9.3,3,5.9,4.6,2.4,6.2C2,6.4,1.7,6.6,1.3,6.8C0.3,7.4,0,8.3,0.2,9.4c0.1,0.3,0.2,0.7,0.4,1c2.3,4.9,6.1,13,9,19.3h0.5
					c-1.9-4-8.6-18.4-8.9-19.1C0.8,9.7,1.1,9,2,8.6c1.2-0.6,2.4-1.1,3.7-1.7l0,0C5.7,7.2,6,7.3,6.3,7.2L11,5
					c0.2-0.1,0.3-0.4,0.2-0.6l0,0c1.2-0.6,2.4-1.1,3.6-1.7c0.9-0.4,1.6-0.2,2,0.7c1.8,3.8,8.4,18.1,12.3,26.3h0.5
					C27.7,25.7,25.8,21.6,24,17.6L24,17.6z M9.8,4.5L6.7,5.9C6.6,6,6.4,5.9,6.3,5.8c-0.1-0.2,0-0.4,0.2-0.4l3.1-1.4
					C9.7,3.8,9.9,3.9,10,4C10.1,4.2,10,4.4,9.8,4.5z"/>
			</g>
			<g>
				<path class="st0" d="M0,39.2v-4.8h1.9c1.5,0,2.5,1,2.5,2.4c0,1.4-1,2.4-2.5,2.4H0z M3.4,36.8c0-0.8-0.5-1.5-1.5-1.5H1v3h0.9
					C2.8,38.3,3.4,37.6,3.4,36.8z"/>
				<path class="st0" d="M8.4,39.2v-4.8h1v4.8H8.4z"/>
				<path class="st0" d="M13.2,38.5l0.6-0.8c0.3,0.4,0.9,0.6,1.5,0.6c0.6,0,0.8-0.3,0.8-0.5c0-0.8-2.7-0.3-2.7-2.1
					c0-0.8,0.7-1.5,1.8-1.5c0.8,0,1.4,0.2,1.9,0.7l-0.6,0.7c-0.4-0.4-0.9-0.5-1.4-0.5c-0.4,0-0.7,0.2-0.7,0.5c0,0.8,2.7,0.3,2.7,2
					c0,0.9-0.6,1.5-1.9,1.5C14.3,39.2,13.6,38.9,13.2,38.5z"/>
				<path class="st0" d="M21.9,39.2v-3.9h-1.4v-0.9h3.8v0.9h-1.4v3.9H21.9z"/>
				<path class="st0" d="M30.7,39.2l-0.9-1.7H29v1.7h-1v-4.8h2.2c1,0,1.6,0.7,1.6,1.5c0,0.8-0.5,1.3-1,1.4l1.1,1.8H30.7z M30.8,35.9
					c0-0.4-0.3-0.6-0.7-0.6H29v1.3h1.1C30.5,36.6,30.8,36.3,30.8,35.9z"/>
				<path class="st0" d="M35.7,39.2v-4.8h1v4.8H35.7z"/>
				<path class="st0" d="M40.7,39.2v-4.8h2.5c0.9,0,1.4,0.6,1.4,1.2c0,0.6-0.4,1-0.8,1.1c0.5,0.1,0.9,0.6,0.9,1.2
					c0,0.7-0.5,1.3-1.4,1.3H40.7z M43.6,35.8c0-0.3-0.2-0.5-0.6-0.5h-1.3v1H43C43.3,36.3,43.6,36.1,43.6,35.8z M43.6,37.7
					c0-0.3-0.2-0.6-0.6-0.6h-1.3v1.1H43C43.4,38.3,43.6,38.1,43.6,37.7z"/>
				<path class="st0" d="M48.5,37.2v-2.9h1v2.8c0,0.7,0.4,1.1,1.1,1.1s1.1-0.5,1.1-1.1v-2.8h1v2.9c0,1.2-0.7,2-2.2,2
					S48.5,38.4,48.5,37.2z"/>
				<path class="st0" d="M56.8,39.2v-4.8h1v4.8H56.8z"/>
				<path class="st0" d="M61.9,39.2v-4.8h1.9c1.5,0,2.5,1,2.5,2.4c0,1.4-1,2.4-2.5,2.4H61.9z M65.3,36.8c0-0.8-0.5-1.5-1.5-1.5h-0.9
					v3h0.9C64.7,38.3,65.3,37.6,65.3,36.8z"/>
				<path class="st0" d="M69.9,36.8c0-1.4,1.1-2.5,2.5-2.5c1.4,0,2.5,1,2.5,2.5c0,1.4-1.1,2.5-2.5,2.5
					C70.9,39.2,69.9,38.2,69.9,36.8z M73.8,36.8c0-0.9-0.6-1.6-1.5-1.6c-0.9,0-1.4,0.7-1.4,1.6c0,0.9,0.6,1.6,1.4,1.6
					C73.2,38.3,73.8,37.7,73.8,36.8z"/>
				<path class="st0" d="M81.3,39.2l-0.9-1.7h-0.7v1.7h-1v-4.8h2.2c1,0,1.6,0.7,1.6,1.5c0,0.8-0.5,1.3-1,1.4l1.1,1.8H81.3z
					 M81.4,35.9c0-0.4-0.3-0.6-0.7-0.6h-1.1v1.3h1.1C81.1,36.6,81.4,36.3,81.4,35.9z"/>
				<path class="st0" d="M94.5,39.2l-0.3-0.8h-2l-0.3,0.8h-1.2l1.8-4.8h1.3l1.8,4.8H94.5z M93.2,35.4l-0.7,2.1h1.5L93.2,35.4z"/>
				<path class="st0" d="M98.9,37.2v-2.9h1v2.8c0,0.7,0.4,1.1,1.1,1.1c0.7,0,1.1-0.5,1.1-1.1v-2.8h1v2.9c0,1.2-0.7,2-2.2,2
					S98.9,38.4,98.9,37.2z"/>
				<path class="st0" d="M108.4,39.2v-3.9H107v-0.9h3.8v0.9h-1.4v3.9H108.4z"/>
				<path class="st0" d="M114.1,36.8c0-1.4,1.1-2.5,2.5-2.5c1.4,0,2.5,1,2.5,2.5c0,1.4-1.1,2.5-2.5,2.5
					C115.2,39.2,114.1,38.2,114.1,36.8z M118,36.8c0-0.9-0.6-1.6-1.5-1.6c-0.9,0-1.4,0.7-1.4,1.6c0,0.9,0.6,1.6,1.4,1.6
					C117.5,38.3,118,37.7,118,36.8z"/>
				<path class="st0" d="M125.6,39.2l-0.9-1.7h-0.7v1.7h-1v-4.8h2.2c1,0,1.6,0.7,1.6,1.5c0,0.8-0.5,1.3-1,1.4l1.1,1.8H125.6z
					 M125.7,35.9c0-0.4-0.3-0.6-0.7-0.6h-1.1v1.3h1.1C125.4,36.6,125.7,36.3,125.7,35.9z"/>
				<path class="st0" d="M130.6,39.2v-4.8h1v4.8H130.6z"/>
				<path class="st0" d="M135.4,39.2v-0.8l2.3-3.1h-2.3v-0.9h3.6v0.8l-2.3,3.1h2.3v0.9H135.4z"/>
				<path class="st0" d="M146.2,39.2l-0.3-0.8h-2l-0.3,0.8h-1.2l1.8-4.8h1.3l1.8,4.8H146.2z M144.9,35.4l-0.7,2.1h1.5L144.9,35.4z"
					/>
				<path class="st0" d="M150.9,39.2v-4.8h1.9c1.5,0,2.5,1,2.5,2.4c0,1.4-1,2.4-2.5,2.4H150.9z M154.2,36.8c0-0.8-0.5-1.5-1.5-1.5
					h-0.9v3h0.9C153.7,38.3,154.2,37.6,154.2,36.8z"/>
				<path class="st0" d="M158.9,36.8c0-1.4,1.1-2.5,2.5-2.5c1.4,0,2.5,1,2.5,2.5c0,1.4-1.1,2.5-2.5,2.5
					C159.9,39.2,158.9,38.2,158.9,36.8z M162.8,36.8c0-0.9-0.6-1.6-1.5-1.6c-0.9,0-1.4,0.7-1.4,1.6c0,0.9,0.6,1.6,1.4,1.6
					C162.3,38.3,162.8,37.7,162.8,36.8z"/>
			</g>
		</g>
	</g>
	<g>
		<path class="st0" d="M244.1,32.8c-3-0.4-1.9-3,0-6.3c0.6,0,2.7,0.1,2.7,0.1h14.7c0,0,0.9-1.6,3.2-5.9c3.8-7.1-0.4-11.4-7.7-11.5
			c-10.4-0.1-13.9,4.9-17.6,11.4c-1.5,2.7-3.3,6.1-4.1,8.6c-1.1,3.2-0.2,5.4,1.1,7c1.4,1.6,3.5,2.2,5.3,2.4
			c4.9,0.4,12.4-0.3,12.4-0.3l3-5.7C257.1,32.6,247.7,33.3,244.1,32.8 M255.5,14.9c2,0,4.5,0.8,3,3.6c-0.9,1.8-1.5,2.9-1.5,2.9
			h-10.4C249.3,16.4,251.5,14.9,255.5,14.9"/>
		<path class="st0" d="M308.5,32.8c-3-0.4-1.9-3,0-6.3c0.6,0,2.7,0.1,2.7,0.1h14.7c0,0,0.9-1.6,3.2-5.9c3.8-7.1-0.4-11.4-7.7-11.5
			c-10.4-0.1-13.9,4.9-17.6,11.4c-1.5,2.7-3.3,6.1-4.1,8.6c-1.1,3.2-0.2,5.4,1.1,7c1.4,1.6,3.5,2.2,5.3,2.4
			c4.9,0.4,12.4-0.3,12.4-0.3l3-5.7C321.5,32.6,312.1,33.3,308.5,32.8 M319.9,14.9c2,0,4.5,0.8,3,3.6c-0.9,1.8-1.5,2.9-1.5,2.9H311
			C313.7,16.4,316,14.9,319.9,14.9"/>
		<polygon class="st0" points="342.4,1.3 322.8,38.4 330.5,38.4 350,1.3 		"/>
		<path class="st0" d="M305.8,9.6c0,0-3.9-0.5-8.4-0.4c-3.4,0-5.7,0.5-7.3,1v0c-6.2,2-8.6,6.7-10.7,10.4c-1.4,2.6-3.2,5.7-4.1,8.6
			c-2,6.7,3.2,9.1,6.4,9.4c5,0.4,11.4-0.3,11.4-0.3l3-5.7c0,0-8.2,0.8-11.8,0.3c-1.2-0.2-1.8-0.8-1.8-1.7c-0.1-1.2,0.6-2.6,1.6-4.6
			c1-2,3-5.5,3-5.5c1.1-1.9,1.9-3,3.1-4c1.9-1.6,4-1.9,7.2-1.9c2.5,0,5.4,0.3,5.4,0.3L305.8,9.6z"/>
		<path class="st0" d="M236.9,9.5l4.3-8.2l-7.6,0l-4.3,8.2l-5.2,0l-3,5.7l2.8,0l2.4-0.1c0,0-3,5.9-5.2,10.1
			c-1.8,3.4-2.8,5.7-2.7,8.1c0.1,1.4,0.6,2.6,1.4,3.5c2.3,2.3,6,2,9.5,1.8l3.1-5.8c-2.2,0.1-3.9,0.1-4.5,0c-2-0.3-2.4-1.2-1.6-2.8
			c1.6-3.3,7.6-14.8,7.6-14.8l2.6,0.1l3.2,0l3-5.7L236.9,9.5z"/>
		<polygon class="st0" points="278.6,1.3 258.9,38.4 266.6,38.4 286.1,1.3 		"/>
	</g>
</g>
</svg>
