<?xml version="1.0" encoding="utf-8"?>
<!-- Generator: Adobe Illustrator 28.3.0, SVG Export Plug-In . SVG Version: 6.00 Build 0)  -->
<svg version="1.1" id="Capa_1" xmlns="http://www.w3.org/2000/svg" xmlns:xlink="http://www.w3.org/1999/xlink" x="0px" y="0px"
	 viewBox="0 0 80 20" style="enable-background:new 0 0 80 20;" xml:space="preserve">
<style type="text/css">
	.st0{fill:#FFFFFF;}
</style>
<g>
	<path class="st0" d="M14.1,0.5l-2.7,3.9H9.3L7.5,7h2.3l-6.5,9.4c0,0-0.5,0.7-0.5,1.8c0,1.1,1.4,1.2,1.4,1.2h4.9l1.6-2.7H8.2
		c0,0-0.9-0.1-0.5-0.9C8.1,15.2,13.8,7,13.8,7h2.9l1.6-2.6h-2.6l2.6-3.9H14.1z"/>
	<polygon class="st0" points="29.5,19.5 42,0.5 37.8,0.5 25.3,19.5 	"/>
	<polygon class="st0" points="64.7,19.5 77.2,0.5 73.1,0.5 60.5,19.5 	"/>
	<path class="st0" d="M19.2,10.7h6.6c0,0,0.7-1.2,1-2.3c0.2-1-1-1.3-2.4-1.3C23.1,7.1,21,7.3,19.2,10.7 M27.6,13.3H17.5
		c0,0-1,1.2-1.1,2.3c0,0,0,0.9,1.1,0.9h7.8l-2,3.1h-6.3c0,0-4.8,0-4.8-2.7c0,0,0-2,3.5-6.8C19,5.2,21.4,5,25.5,5c4,0,5.1,1.2,5,2.3
		C30.3,8.5,30.2,9.1,27.6,13.3"/>
	<path class="st0" d="M54.1,10.7h6.6c0,0,0.7-1.2,1-2.3c0.2-1-1-1.3-2.4-1.3C58,7.1,55.9,7.3,54.1,10.7 M62.4,13.3H52.3
		c0,0-1,1.2-1.1,2.3c0,0,0,0.9,1.1,0.9H60l-2,3.1h-6.3c0,0-4.8,0-4.8-2.7c0,0,0-2,3.5-6.8c3.5-4.8,5.9-4.9,10-4.9c4,0,5.1,1.2,5,2.3
		C65.2,8.5,65.1,9.1,62.4,13.3"/>
	<path class="st0" d="M37.9,15.6c0,0,0,0.9,1.1,0.9h6.8l-2,3.1h-5.3c0,0-5.2,0.2-4.8-2.7c0,0-0.1-2,3.5-6.8c0,0,3.2-4.9,10.1-4.9
		h4.5l-2.1,3H46c-0.3,0-3,0.3-5.4,2.8C38.2,13.5,38,14.7,37.9,15.6"/>
</g>
</svg>
