<?xml version="1.0" encoding="utf-8"?>
<!-- Generator: Adobe Illustrator 28.3.0, SVG Export Plug-In . SVG Version: 6.00 Build 0)  -->
<svg version="1.1" id="Capa_1" xmlns="http://www.w3.org/2000/svg" xmlns:xlink="http://www.w3.org/1999/xlink" x="0px" y="0px"
	 viewBox="0 0 120 20" style="enable-background:new 0 0 120 20;" xml:space="preserve">
<style type="text/css">
	.st0{fill:#FFFFFF;}
</style>
<g>
	<g>
		<g>
			<path class="st0" d="M76.1,13.7c0,0,0,0,2.7,0.4c-1.6,1-4.9,2.4-7.5,1.4c-2.9-1-2.9-4.4-0.3-8.3c2.7-3.9,8.5-5.8,11.4-5.7
				c2.9,0.1,6.3,0.7,6.5,5.3c0,0,1-6.4-7.5-6.4c-8.8,0-17.5,8.8-15.5,14.2c1.7,4.4,11.5,3.4,16.2-2.6L76.1,13.7z"/>
			<path class="st0" d="M77.4,6.3c0,0,0,0-2.7-0.4c1.6-1,4.9-2.4,7.5-1.4c2.9,1,2.9,4.4,0.3,8.3c-2.7,3.9-8.5,5.8-11.4,5.7
				c-2.9-0.1-6.3-0.7-6.5-5.3c0,0-1,6.4,7.5,6.4c8.8,0,17.5-8.8,15.5-14.2C85.9,0.9,76.1,1.9,71.5,8L77.4,6.3z"/>
			<g>
				<path class="st0" d="M73.1,8.4h1.7L74.7,9h-1l-0.1,0.7h1l-0.1,0.6h-1L73.3,11h1l-0.1,0.6h-1.7L73.1,8.4z"/>
				<path class="st0" d="M77.4,8.8L77,9.2c-0.1-0.1-0.2-0.1-0.3-0.2C76.7,9,76.6,9,76.5,9c-0.1,0-0.2,0-0.3,0.1
					c-0.1,0.1-0.1,0.2-0.1,0.3c0,0.1,0,0.2,0.1,0.2c0.1,0.1,0.2,0.1,0.4,0.2C76.8,9.9,76.9,10,77,10c0.1,0.1,0.1,0.1,0.2,0.2
					c0.1,0.1,0.1,0.2,0.1,0.3c0,0.3-0.1,0.5-0.3,0.7c-0.2,0.2-0.4,0.3-0.7,0.3c-0.3,0-0.7-0.1-1-0.4l0.4-0.5
					c0.1,0.1,0.2,0.1,0.3,0.2C75.9,11,76,11,76.1,11c0.1,0,0.2,0,0.3-0.1c0.1-0.1,0.1-0.2,0.1-0.3c0-0.1,0-0.2-0.1-0.3
					c-0.1-0.1-0.2-0.1-0.4-0.2c-0.2-0.1-0.3-0.1-0.3-0.2c-0.1-0.1-0.1-0.1-0.2-0.2c-0.1-0.1-0.1-0.2-0.1-0.4c0-0.3,0.1-0.5,0.3-0.7
					c0.2-0.2,0.5-0.3,0.8-0.3C76.8,8.4,77.1,8.5,77.4,8.8z"/>
				<path class="st0" d="M78.6,8.4h0.6c0.4,0,0.7,0.1,0.9,0.2c0.2,0.2,0.3,0.4,0.3,0.7c0,0.2-0.1,0.5-0.2,0.6
					c-0.1,0.2-0.3,0.3-0.6,0.4l0.6,1.2h-0.7L79,10.4h-0.1l-0.2,1.1h-0.6L78.6,8.4z M79.1,9L79,9.9l0.1,0c0.2,0,0.3,0,0.4-0.1
					c0.1-0.1,0.2-0.2,0.2-0.3c0-0.1,0-0.3-0.1-0.3C79.5,9,79.3,9,79.1,9z"/>
			</g>
		</g>
		<g>
			<g>
				<path class="st0" d="M90,5h1.4l-0.1,0.5h-0.9l-0.1,0.6h0.8l-0.1,0.5h-0.8l-0.1,0.6H91L91,7.6h-1.4L90,5z"/>
				<path class="st0" d="M92,5h0.5l0.3,1.5L93.5,5H94v2.6h-0.5V6.1l-0.8,1.6h-0.3L92.2,6l-0.6,1.6h-0.5L92,5z"/>
				<path class="st0" d="M94.7,5h0.5c0.7,0,1,0.3,1,0.8c0,0.1,0,0.3-0.1,0.4C96,6.4,96,6.5,95.9,6.5c-0.1,0.1-0.2,0.1-0.3,0.1
					c-0.1,0-0.3,0-0.6,0l-0.1,0.9h-0.5L94.7,5z M95.2,5.5L95,6.2h0.1c0.1,0,0.2,0,0.3-0.1c0.1-0.1,0.1-0.2,0.1-0.3
					c0-0.1,0-0.2-0.1-0.2c-0.1-0.1-0.2-0.1-0.3-0.1H95.2z"/>
				<path class="st0" d="M96.7,5h0.5c0.3,0,0.6,0.1,0.8,0.2c0.2,0.1,0.3,0.3,0.3,0.6c0,0.2,0,0.4-0.1,0.5c-0.1,0.2-0.3,0.3-0.5,0.3
					l0.5,1h-0.5l-0.5-0.9H97l-0.1,0.9h-0.5L96.7,5z M97.2,5.5l-0.1,0.7l0.1,0c0.1,0,0.3,0,0.3-0.1c0.1-0.1,0.1-0.2,0.1-0.3
					c0-0.1,0-0.2-0.1-0.3C97.5,5.5,97.4,5.5,97.2,5.5z"/>
				<path class="st0" d="M98.9,5h1.4l-0.1,0.5h-0.9l-0.1,0.6h0.8L100,6.5h-0.8l-0.1,0.6h0.8l-0.1,0.5h-1.4L98.9,5z"/>
				<path class="st0" d="M101.9,5.3l-0.3,0.4c-0.1-0.1-0.2-0.1-0.2-0.2c-0.1,0-0.1-0.1-0.2-0.1c-0.1,0-0.2,0-0.2,0.1
					c-0.1,0.1-0.1,0.1-0.1,0.2c0,0.1,0,0.1,0.1,0.2c0.1,0.1,0.2,0.1,0.4,0.2c0.1,0.1,0.2,0.1,0.3,0.2c0,0,0.1,0.1,0.1,0.2
					c0,0.1,0.1,0.2,0.1,0.3c0,0.2-0.1,0.4-0.3,0.6c-0.2,0.2-0.4,0.2-0.6,0.2c-0.3,0-0.6-0.1-0.8-0.3l0.3-0.4c0.1,0,0.1,0.1,0.2,0.2
					c0.1,0.1,0.2,0.1,0.3,0.1c0.1,0,0.2,0,0.2-0.1c0.1-0.1,0.1-0.1,0.1-0.2c0-0.1,0-0.2-0.1-0.2c-0.1-0.1-0.2-0.1-0.3-0.2
					c-0.1-0.1-0.2-0.1-0.3-0.1c-0.1,0-0.1-0.1-0.2-0.2c-0.1-0.1-0.1-0.2-0.1-0.3c0-0.2,0.1-0.4,0.3-0.6c0.2-0.2,0.4-0.2,0.6-0.2
					C101.5,5,101.7,5.1,101.9,5.3z"/>
				<path class="st0" d="M103.2,5h0.4l0.7,2.6h-0.5l-0.1-0.5h-1l-0.3,0.5h-0.6L103.2,5z M103.3,5.9l-0.4,0.8h0.6L103.3,5.9z"/>
			</g>
			<g>
				<path class="st0" d="M90,12.4h0.5c0.3,0,0.6,0.1,0.8,0.2c0.2,0.1,0.3,0.3,0.3,0.6c0,0.2,0,0.4-0.1,0.5c-0.1,0.2-0.3,0.3-0.5,0.3
					l0.5,1h-0.5L90.3,14h-0.1L90.1,15h-0.5L90,12.4z M90.4,12.8l-0.1,0.7l0.1,0c0.1,0,0.3,0,0.3-0.1c0.1-0.1,0.1-0.2,0.1-0.3
					c0-0.1,0-0.2-0.1-0.3C90.7,12.9,90.6,12.8,90.4,12.8z"/>
				<path class="st0" d="M92.1,12.4h1.4l-0.1,0.5h-0.9l-0.1,0.6h0.8l-0.1,0.5h-0.8l-0.1,0.6h0.8L93.1,15h-1.4L92.1,12.4z"/>
				<path class="st0" d="M95.2,12.6L94.9,13c-0.1-0.1-0.2-0.1-0.2-0.2c-0.1,0-0.1-0.1-0.2-0.1c-0.1,0-0.2,0-0.2,0.1
					c-0.1,0.1-0.1,0.1-0.1,0.2c0,0.1,0,0.1,0.1,0.2c0.1,0.1,0.2,0.1,0.4,0.2c0.1,0.1,0.2,0.1,0.3,0.2c0,0,0.1,0.1,0.1,0.2
					c0,0.1,0.1,0.2,0.1,0.3c0,0.2-0.1,0.4-0.3,0.6c-0.2,0.2-0.4,0.2-0.6,0.2c-0.3,0-0.6-0.1-0.8-0.3l0.3-0.4c0.1,0,0.1,0.1,0.2,0.2
					c0.1,0.1,0.2,0.1,0.3,0.1c0.1,0,0.2,0,0.2-0.1c0.1-0.1,0.1-0.1,0.1-0.2c0-0.1,0-0.2-0.1-0.2c-0.1-0.1-0.2-0.1-0.3-0.2
					c-0.1-0.1-0.2-0.1-0.3-0.1c-0.1,0-0.1-0.1-0.2-0.2c-0.1-0.1-0.1-0.2-0.1-0.3c0-0.2,0.1-0.4,0.3-0.6c0.2-0.2,0.4-0.2,0.6-0.2
					C94.7,12.3,95,12.4,95.2,12.6z"/>
				<path class="st0" d="M95.5,12.4h0.5c0.7,0,1,0.3,1,0.8c0,0.1,0,0.3-0.1,0.4c-0.1,0.1-0.1,0.2-0.2,0.3c-0.1,0.1-0.2,0.1-0.3,0.1
					c-0.1,0-0.3,0-0.6,0L95.7,15h-0.5L95.5,12.4z M96,12.8l-0.1,0.7H96c0.1,0,0.2,0,0.3-0.1c0.1-0.1,0.1-0.2,0.1-0.3
					c0-0.1,0-0.2-0.1-0.2c-0.1-0.1-0.2-0.1-0.3-0.1H96z"/>
				<path class="st0" d="M98.7,12.3c0.4,0,0.7,0.1,0.9,0.3c0.2,0.2,0.3,0.5,0.3,0.9c0,0.4-0.1,0.8-0.4,1c-0.3,0.3-0.6,0.4-1.1,0.4
					c-0.4,0-0.7-0.1-0.9-0.3c-0.2-0.2-0.3-0.5-0.3-0.9c0-0.4,0.1-0.7,0.4-1C97.9,12.5,98.3,12.3,98.7,12.3z M99.4,13.6
					c0-0.2-0.1-0.4-0.2-0.6c-0.1-0.2-0.3-0.2-0.5-0.2c-0.2,0-0.4,0.1-0.6,0.3c-0.2,0.2-0.3,0.4-0.3,0.7c0,0.2,0.1,0.4,0.2,0.6
					c0.1,0.2,0.3,0.2,0.5,0.2c0.2,0,0.4-0.1,0.6-0.3C99.3,14.1,99.4,13.9,99.4,13.6z"/>
				<path class="st0" d="M100.5,12.4h0.6l0.8,1.8l0.3-1.8h0.5l-0.4,2.6h-0.5l-0.9-1.8l-0.3,1.8h-0.5L100.5,12.4z"/>
				<path class="st0" d="M104.5,12.6l-0.3,0.4c-0.1-0.1-0.2-0.1-0.2-0.2c-0.1,0-0.1-0.1-0.2-0.1c-0.1,0-0.2,0-0.2,0.1
					c-0.1,0.1-0.1,0.1-0.1,0.2c0,0.1,0,0.1,0.1,0.2c0.1,0.1,0.2,0.1,0.4,0.2c0.1,0.1,0.2,0.1,0.3,0.2c0,0,0.1,0.1,0.1,0.2
					c0,0.1,0.1,0.2,0.1,0.3c0,0.2-0.1,0.4-0.3,0.6c-0.2,0.2-0.4,0.2-0.6,0.2c-0.3,0-0.6-0.1-0.8-0.3l0.3-0.4c0.1,0,0.1,0.1,0.2,0.2
					c0.1,0.1,0.2,0.1,0.3,0.1c0.1,0,0.2,0,0.2-0.1c0.1-0.1,0.1-0.1,0.1-0.2c0-0.1,0-0.2-0.1-0.2c-0.1-0.1-0.2-0.1-0.3-0.2
					c-0.1-0.1-0.2-0.1-0.3-0.1c-0.1,0-0.1-0.1-0.2-0.2c-0.1-0.1-0.1-0.2-0.1-0.3c0-0.2,0.1-0.4,0.3-0.6c0.2-0.2,0.4-0.2,0.6-0.2
					C104,12.3,104.3,12.4,104.5,12.6z"/>
				<path class="st0" d="M105.8,12.4h0.4l0.7,2.6h-0.5l-0.1-0.5h-1l-0.3,0.5h-0.6L105.8,12.4z M105.9,13.2l-0.4,0.8h0.6L105.9,13.2z
					"/>
				<path class="st0" d="M107.5,12.4h0.6c0.6,0,0.9,0.2,0.9,0.7c0,0.2-0.1,0.4-0.4,0.6c0.3,0.1,0.4,0.3,0.4,0.6
					c0,0.2-0.1,0.4-0.3,0.5c-0.2,0.1-0.5,0.2-0.8,0.2h-0.8L107.5,12.4z M107.8,13.8l-0.1,0.7h0.3c0.2,0,0.3,0,0.4-0.1
					c0.1-0.1,0.1-0.1,0.1-0.2c0-0.1,0-0.2-0.1-0.3c-0.1-0.1-0.2-0.1-0.3-0.1H107.8z M107.9,12.8l-0.1,0.6h0.2c0.1,0,0.2,0,0.3-0.1
					c0.1-0.1,0.1-0.1,0.1-0.2c0-0.1,0-0.2-0.1-0.2c-0.1-0.1-0.2-0.1-0.3-0.1H107.9z"/>
				<path class="st0" d="M109.6,12.4h0.5l-0.3,2.2h0.9l-0.1,0.5h-1.4L109.6,12.4z"/>
				<path class="st0" d="M111.4,12.4h1.4l-0.1,0.5h-0.9l-0.1,0.6h0.8l-0.1,0.5h-0.8l-0.1,0.6h0.8l-0.1,0.5H111L111.4,12.4z"/>
			</g>
			<g>
				<path class="st0" d="M91.4,8.9l-0.3,0.4C91,9.2,91,9.2,90.9,9.1c-0.1,0-0.1-0.1-0.2-0.1c-0.1,0-0.2,0-0.2,0.1
					c-0.1,0.1-0.1,0.1-0.1,0.2c0,0.1,0,0.1,0.1,0.2c0.1,0.1,0.2,0.1,0.4,0.2c0.1,0.1,0.2,0.1,0.3,0.2c0,0,0.1,0.1,0.1,0.2
					c0,0.1,0.1,0.2,0.1,0.3c0,0.2-0.1,0.4-0.3,0.6c-0.2,0.2-0.4,0.2-0.6,0.2c-0.3,0-0.6-0.1-0.8-0.3l0.3-0.4c0.1,0,0.1,0.1,0.2,0.2
					c0.1,0.1,0.2,0.1,0.3,0.1c0.1,0,0.2,0,0.2-0.1c0.1-0.1,0.1-0.1,0.1-0.2c0-0.1,0-0.2-0.1-0.2c-0.1-0.1-0.2-0.1-0.3-0.2
					c-0.1-0.1-0.2-0.1-0.3-0.1c-0.1,0-0.1-0.1-0.2-0.2c-0.1-0.1-0.1-0.2-0.1-0.3c0-0.2,0.1-0.4,0.3-0.6c0.2-0.2,0.4-0.2,0.6-0.2
					C91,8.6,91.2,8.7,91.4,8.9z"/>
				<path class="st0" d="M93,8.6c0.4,0,0.7,0.1,0.9,0.3c0.2,0.2,0.3,0.5,0.3,0.9c0,0.4-0.1,0.8-0.4,1c-0.3,0.3-0.6,0.4-1.1,0.4
					c-0.4,0-0.7-0.1-0.9-0.3c-0.2-0.2-0.3-0.5-0.3-0.9c0-0.4,0.1-0.7,0.4-1C92.2,8.7,92.6,8.6,93,8.6z M93.7,9.9
					c0-0.2-0.1-0.4-0.2-0.6c-0.1-0.2-0.3-0.2-0.5-0.2c-0.2,0-0.4,0.1-0.6,0.3c-0.2,0.2-0.3,0.4-0.3,0.7c0,0.2,0.1,0.4,0.2,0.6
					c0.1,0.2,0.3,0.2,0.5,0.2c0.2,0,0.4-0.1,0.6-0.3C93.6,10.4,93.7,10.1,93.7,9.9z"/>
				<path class="st0" d="M96.8,8.8l-0.1,0.5c-0.2-0.1-0.4-0.2-0.6-0.2c-0.3,0-0.5,0.1-0.7,0.3c-0.2,0.2-0.3,0.4-0.3,0.7
					c0,0.2,0.1,0.4,0.2,0.6c0.1,0.1,0.3,0.2,0.5,0.2c0.2,0,0.4-0.1,0.7-0.2l-0.1,0.5c-0.2,0.1-0.4,0.2-0.7,0.2
					c-0.4,0-0.7-0.1-0.9-0.4c-0.2-0.2-0.3-0.5-0.3-0.9c0-0.4,0.1-0.8,0.4-1.1c0.3-0.3,0.6-0.4,1-0.4C96.3,8.6,96.5,8.7,96.8,8.8z"/>
				<path class="st0" d="M97.1,8.6h0.5l-0.4,2.6h-0.5L97.1,8.6z"/>
				<path class="st0" d="M99,8.6h0.4l0.7,2.6h-0.5l-0.1-0.5h-1l-0.3,0.5h-0.6L99,8.6z M99.1,9.5l-0.4,0.8h0.6L99.1,9.5z"/>
				<path class="st0" d="M100.7,8.6h0.5l-0.3,2.2h0.9l-0.1,0.5h-1.4L100.7,8.6z"/>
				<path class="st0" d="M102.7,8.6h0.5l0.3,1.5l0.7-1.5h0.5v2.6h-0.5V9.7l-0.8,1.6h-0.3l-0.3-1.6l-0.6,1.6h-0.5L102.7,8.6z"/>
				<path class="st0" d="M105.4,8.6h1.4l-0.1,0.5h-0.9l-0.1,0.6h0.8l-0.1,0.5h-0.8l-0.1,0.6h0.8l-0.1,0.5H105L105.4,8.6z"/>
				<path class="st0" d="M107.2,8.6h0.6l0.8,1.8l0.3-1.8h0.5l-0.4,2.6h-0.5l-0.9-1.8l-0.3,1.8h-0.5L107.2,8.6z"/>
				<path class="st0" d="M109.6,8.6h1.6l-0.1,0.5h-0.5l-0.3,2.2h-0.5l0.3-2.2h-0.5L109.6,8.6z"/>
				<path class="st0" d="M111.5,8.6h1.4l-0.1,0.5H112l-0.1,0.6h0.8l-0.1,0.5h-0.8l-0.1,0.6h0.8l-0.1,0.5h-1.4L111.5,8.6z"/>
			</g>
		</g>
	</g>
	<g>
		<path class="st0" d="M36.3,14.8H13.5c-3.3,0-5.9-2.7-5.9-5.9S10.3,3,13.5,3h22.8c3.3,0,5.9,2.7,5.9,5.9S39.6,14.8,36.3,14.8
			 M13.5,3.4c-3,0-5.5,2.5-5.5,5.5c0,3,2.5,5.5,5.5,5.5h22.8c3,0,5.5-2.5,5.5-5.5c0-3-2.5-5.5-5.5-5.5H13.5z"/>
		<path class="st0" d="M33.6,5.6c-0.9,0-1.6,0.7-1.6,1.6c0,0.9,0.7,1.6,1.6,1.6c0.9,0,1.6-0.7,1.6-1.6C35.2,6.3,34.5,5.6,33.6,5.6
			 M33.6,8c-0.5,0-0.8-0.4-0.8-0.8c0-0.5,0.4-0.8,0.8-0.8s0.8,0.4,0.8,0.8C34.4,7.6,34.1,8,33.6,8"/>
		<path class="st0" d="M26.3,5.6c-0.9,0-1.6,0.7-1.6,1.6c0,0.9,0.7,1.6,1.6,1.6c0.9,0,1.6-0.7,1.6-1.6C27.9,6.3,27.1,5.6,26.3,5.6
			 M26.3,8c-0.5,0-0.8-0.4-0.8-0.8c0-0.5,0.4-0.8,0.8-0.8c0.5,0,0.8,0.4,0.8,0.8C27.1,7.6,26.7,8,26.3,8"/>
		<path class="st0" d="M31.9,8c-0.1,0-0.3,0.1-0.3,0.1c-0.3,0-0.3-0.1-0.3-0.4V6.3h0.7V5.6h-0.7V4.8h-0.7l-0.2,0.9h-0.5v0h0
			c-0.4,0-0.7,0.3-0.9,0.7l-0.3-0.7h-0.5v3.1H29V7.4c0-0.7,0.4-1.1,0.9-1.1h0.5v1.5c0,0.7,0.4,1,1,1c0.3,0,0.5-0.1,0.7-0.1L31.9,8z"
			/>
		<polyline class="st0" points="36.3,6.6 36.3,8.7 35.4,8.7 35.4,5.6 36,5.6 36.1,6.1 		"/>
		<path class="st0" d="M36.1,6.1c0.3-0.3,0.6-0.5,1.1-0.5c0.7,0,1,0.6,1,1.1v2h-0.9v-2c0-0.3-0.2-0.4-0.5-0.4
			c-0.3,0-0.4,0.1-0.6,0.3"/>
		<polygon class="st0" points="21.1,4.5 22.1,4.5 23.5,7.2 23.5,4.5 24.3,4.5 24.3,8.7 23.4,8.7 22,5.8 22,8.7 21.1,8.7 		"/>
		<polygon class="st0" points="40.9,3 40.9,3.1 40.7,3.1 40.7,3.8 40.5,3.8 40.5,3.1 40.3,3.1 40.3,3 		"/>
		<polygon class="st0" points="41,3.8 41,3 41.3,3 41.4,3.5 41.6,3 41.8,3 41.8,3.8 41.7,3.8 41.7,3.1 41.7,3.1 41.5,3.8 41.4,3.8 
			41.2,3.1 41.2,3.1 41.2,3.8 		"/>
		<path class="st0" d="M20.9,12.4l0.2-0.3c0.2,0.1,0.4,0.2,0.7,0.2c0.3,0,0.5-0.1,0.5-0.4c0-0.3-0.2-0.3-0.6-0.5
			c-0.3-0.1-0.7-0.3-0.7-0.8c0-0.5,0.4-0.7,0.9-0.7c0.3,0,0.6,0.1,0.8,0.2l-0.2,0.3c-0.2-0.1-0.4-0.1-0.6-0.1
			c-0.3,0-0.4,0.1-0.4,0.3c0,0.3,0.2,0.3,0.5,0.4c0.4,0.1,0.8,0.3,0.8,0.8c0,0.5-0.3,0.8-0.9,0.8C21.4,12.7,21.1,12.6,20.9,12.4"/>
		<polygon class="st0" points="23.5,10 25.1,10 25.1,10.4 24,10.4 24,11.1 24.9,11.1 24.9,11.5 24,11.5 24,12.3 25.2,12.3 
			25.2,12.7 23.5,12.7 		"/>
		<path class="st0" d="M25.8,11.4c0-0.8,0.4-1.4,1.1-1.4c0.3,0,0.6,0.1,0.8,0.3l-0.3,0.3c-0.2-0.2-0.3-0.2-0.5-0.2
			c-0.4,0-0.6,0.4-0.6,1c0,0.6,0.2,0.9,0.6,0.9c0.2,0,0.4-0.1,0.6-0.3l0.3,0.3c-0.2,0.2-0.4,0.4-0.8,0.4
			C26.2,12.7,25.8,12.1,25.8,11.4"/>
		<path class="st0" d="M28.5,11.7V10H29v1.7c0,0.4,0.1,0.6,0.5,0.6c0.4,0,0.5-0.2,0.5-0.6V10h0.5v1.6c0,0.7-0.3,1.1-0.9,1.1
			C28.8,12.7,28.5,12.3,28.5,11.7"/>
		<path class="st0" d="M33.2,12.7h-0.5l-0.5-1.1h-0.4v1.1h-0.5V10h0.9c0.5,0,1,0.2,1,0.8c0,0.4-0.2,0.6-0.5,0.7L33.2,12.7z
			 M32.1,11.2c0.3,0,0.5-0.1,0.5-0.4c0-0.3-0.2-0.4-0.5-0.4h-0.4v0.8H32.1z"/>
		<polygon class="st0" points="33.9,10 35.5,10 35.5,10.4 34.4,10.4 34.4,11.1 35.3,11.1 35.3,11.5 34.4,11.5 34.4,12.3 35.6,12.3 
			35.6,12.7 33.9,12.7 		"/>
		<path class="st0" d="M36.3,10H37c0.9,0,1.3,0.5,1.3,1.3c0,0.9-0.4,1.3-1.3,1.3h-0.7V10z M37,12.3c0.6,0,0.8-0.3,0.8-1
			c0-0.6-0.2-1-0.8-1h-0.2v1.9H37z"/>
		<path class="st0" d="M13.5,15.3c-3.5,0-6.4-2.9-6.4-6.4c0-3.5,2.9-6.4,6.4-6.4c3.5,0,6.4,2.9,6.4,6.4C19.9,12.4,17,15.3,13.5,15.3
			 M13.5,4.5c-1.2,0-2.3,0.5-3.1,1.3C9.6,6.6,9.1,7.7,9.1,8.9c0,1.2,0.5,2.3,1.3,3.1c0.8,0.8,1.9,1.3,3.1,1.3c1.2,0,2.3-0.5,3.1-1.3
			c0.8-0.8,1.3-1.9,1.3-3.1c0-1.2-0.5-2.3-1.3-3.1C15.8,5,14.7,4.5,13.5,4.5"/>
		<rect x="20.5" y="1.5" class="st0" width="0.5" height="0.5"/>
		<rect x="20.5" y="0.5" class="st0" width="0.5" height="0.5"/>
		<rect x="19.1" y="2" class="st0" width="0.5" height="0.5"/>
		<rect x="18.2" y="2.9" class="st0" width="0.5" height="0.5"/>
		<rect x="19.5" y="2.5" class="st0" width="0.5" height="0.5"/>
		<rect x="17.7" y="2.5" class="st0" width="0.5" height="0.4"/>
		<rect x="19.1" y="2.9" class="st0" width="0.5" height="0.5"/>
		<rect x="20" y="1" class="st0" width="0.5" height="0.5"/>
		<rect x="19.1" y="1.5" class="st0" width="0.9" height="0.5"/>
		<rect x="18.6" y="2" class="st0" width="0.5" height="1"/>
		<path class="st0" d="M18.6,3.4v0.5h-0.5V3.4h-0.8v0.3H17v0.4h0.5v0.5H17V4.2h-0.5v0.7H16v0.5h-0.3v0.5h-0.3
			c-0.4,0.6-1.3,2.4-1.6,3.1c-1.1-1.5-1.9-2-2.5-2.3c-0.3-0.1-0.8,0.3-0.2,0.9c1.3,1.5,1.7,2.7,2.1,3.6c0.2,0.5,1.2,0.6,1.4,0.1
			c0.4-1.1,1-2.3,1.7-3.3V7.4h0.4V6.9H17V6.4h0.5V5.8h-0.5V5.4h0.5v0.5h0.5l0-0.5h0.4V4.8h0.4V4.4h0.4v-1H18.6z"/>
		<path class="st0" d="M9.6,17.5h0.4v0.3c0.1-0.2,0.3-0.3,0.5-0.3c0.4,0,0.7,0.3,0.7,0.8v0c0,0.5-0.3,0.8-0.7,0.8
			c-0.3,0-0.4-0.1-0.5-0.3v0.7H9.6V17.5z M10.8,18.3L10.8,18.3c0-0.3-0.2-0.5-0.4-0.5c-0.2,0-0.4,0.2-0.4,0.5v0
			c0,0.3,0.2,0.5,0.4,0.5C10.6,18.8,10.8,18.6,10.8,18.3"/>
		<path class="st0" d="M11.5,18.3L11.5,18.3c0-0.4,0.3-0.8,0.8-0.8s0.8,0.4,0.8,0.8v0c0,0.4-0.3,0.8-0.8,0.8
			C11.8,19.1,11.5,18.7,11.5,18.3 M12.7,18.3L12.7,18.3c0-0.3-0.2-0.5-0.5-0.5c-0.3,0-0.5,0.2-0.5,0.5v0c0,0.3,0.2,0.5,0.5,0.5
			C12.6,18.8,12.7,18.5,12.7,18.3"/>
		<polygon class="st0" points="13.3,17.5 13.6,17.5 13.9,18.5 14.3,17.5 14.6,17.5 14.9,18.5 15.2,17.5 15.6,17.5 15.1,19 14.8,19 
			14.4,18 14.1,19 13.8,19 		"/>
		<path class="st0" d="M15.7,18.3L15.7,18.3c0-0.4,0.3-0.8,0.7-0.8c0.5,0,0.7,0.4,0.7,0.8c0,0,0,0.1,0,0.1h-1.1
			c0,0.2,0.2,0.4,0.4,0.4c0.2,0,0.3-0.1,0.4-0.2l0.2,0.2c-0.1,0.2-0.3,0.3-0.6,0.3C16.1,19.1,15.7,18.7,15.7,18.3 M16.9,18.2
			c0-0.2-0.2-0.4-0.4-0.4c-0.2,0-0.4,0.2-0.4,0.4H16.9z"/>
		<path class="st0" d="M17.6,17.5h0.4v0.3c0.1-0.2,0.3-0.4,0.5-0.4v0.4h0c-0.3,0-0.5,0.2-0.5,0.6V19h-0.4V17.5z"/>
		<path class="st0" d="M18.7,18.3L18.7,18.3c0-0.4,0.3-0.8,0.7-0.8c0.5,0,0.7,0.4,0.7,0.8c0,0,0,0.1,0,0.1H19c0,0.2,0.2,0.4,0.4,0.4
			c0.2,0,0.3-0.1,0.4-0.2l0.2,0.2c-0.1,0.2-0.3,0.3-0.6,0.3C19,19.1,18.7,18.7,18.7,18.3 M19.8,18.2c0-0.2-0.2-0.4-0.4-0.4
			c-0.2,0-0.4,0.2-0.4,0.4H19.8z"/>
		<path class="st0" d="M20.5,18.3L20.5,18.3c0-0.5,0.3-0.8,0.7-0.8c0.3,0,0.4,0.1,0.5,0.3v-0.8H22V19h-0.4v-0.3
			c-0.1,0.2-0.3,0.3-0.5,0.3C20.8,19.1,20.5,18.8,20.5,18.3 M21.7,18.3L21.7,18.3c0-0.3-0.2-0.5-0.4-0.5c-0.2,0-0.4,0.2-0.4,0.5v0
			c0,0.3,0.2,0.5,0.4,0.5C21.5,18.8,21.7,18.6,21.7,18.3"/>
		<path class="st0" d="M23.7,18.8V19h-0.4v-2.1h0.4v0.8c0.1-0.2,0.3-0.3,0.5-0.3c0.4,0,0.7,0.3,0.7,0.8v0c0,0.5-0.3,0.8-0.7,0.8
			C24,19.1,23.8,18.9,23.7,18.8 M24.6,18.3L24.6,18.3c0-0.3-0.2-0.5-0.4-0.5c-0.2,0-0.4,0.2-0.4,0.5v0c0,0.3,0.2,0.5,0.4,0.5
			C24.4,18.8,24.6,18.6,24.6,18.3"/>
		<path class="st0" d="M25.2,19.4l0.1-0.3c0.1,0,0.1,0.1,0.2,0.1c0.1,0,0.2,0,0.2-0.2l-0.6-1.5h0.4l0.4,1.1l0.4-1.1h0.4L26,19.1
			c-0.1,0.3-0.3,0.4-0.5,0.4C25.4,19.5,25.3,19.5,25.2,19.4"/>
		<polygon class="st0" points="27.7,17 28.1,17 28.7,18.6 29.3,17 29.7,17 28.8,19 28.5,19 		"/>
		<path class="st0" d="M29.8,18.3L29.8,18.3c0-0.4,0.3-0.8,0.7-0.8c0.5,0,0.7,0.4,0.7,0.8c0,0,0,0.1,0,0.1h-1.1
			c0,0.2,0.2,0.4,0.4,0.4c0.2,0,0.3-0.1,0.4-0.2l0.2,0.2c-0.1,0.2-0.3,0.3-0.6,0.3C30.1,19.1,29.8,18.7,29.8,18.3 M30.9,18.2
			c0-0.2-0.2-0.4-0.4-0.4c-0.2,0-0.4,0.2-0.4,0.4H30.9z"/>
		<path class="st0" d="M31.6,17.5H32v0.3c0.1-0.2,0.3-0.4,0.5-0.4v0.4h0c-0.3,0-0.5,0.2-0.5,0.6V19h-0.4V17.5z"/>
		<path class="st0" d="M32.8,16.9h0.4v0.3h-0.4V16.9z M32.8,17.5h0.4V19h-0.4V17.5z"/>
		<path class="st0" d="M33.5,18.7l0.2-0.3c0.2,0.2,0.4,0.3,0.6,0.3c0.2,0,0.4-0.1,0.4-0.3v0c0-0.1-0.1-0.2-0.5-0.3
			c-0.4-0.1-0.7-0.2-0.7-0.6v0c0-0.3,0.3-0.6,0.7-0.6c0.3,0,0.5,0.1,0.7,0.3l-0.2,0.3c-0.2-0.1-0.4-0.2-0.6-0.2
			c-0.2,0-0.3,0.1-0.3,0.2v0c0,0.2,0.1,0.2,0.5,0.3c0.4,0.1,0.7,0.3,0.7,0.6v0c0,0.4-0.3,0.6-0.7,0.6C34,19.1,33.8,18.9,33.5,18.7"
			/>
		<path class="st0" d="M35.5,16.9h0.4v0.3h-0.4V16.9z M35.5,17.5h0.4V19h-0.4V17.5z"/>
		<path class="st0" d="M36.3,19.3l0.1-0.3c0.2,0.1,0.3,0.2,0.5,0.2c0.3,0,0.5-0.2,0.5-0.5v-0.1c-0.1,0.2-0.3,0.3-0.5,0.3
			c-0.4,0-0.7-0.3-0.7-0.7v0c0-0.5,0.3-0.7,0.7-0.7c0.3,0,0.4,0.1,0.5,0.3v-0.2h0.4v1.2c0,0.3-0.1,0.4-0.2,0.6
			c-0.1,0.1-0.4,0.2-0.6,0.2C36.7,19.5,36.5,19.4,36.3,19.3 M37.4,18.2L37.4,18.2c0-0.3-0.2-0.4-0.4-0.4c-0.2,0-0.4,0.2-0.4,0.4v0
			c0,0.3,0.2,0.4,0.4,0.4C37.2,18.6,37.4,18.4,37.4,18.2"/>
		<path class="st0" d="M38.2,17.5h0.4v0.2c0.1-0.1,0.2-0.3,0.5-0.3c0.3,0,0.5,0.2,0.5,0.6v1h-0.4v-0.9c0-0.2-0.1-0.4-0.3-0.4
			c-0.2,0-0.3,0.1-0.3,0.4V19h-0.4V17.5z"/>
	</g>
</g>
</svg>
