<?xml version="1.0" encoding="utf-8"?>
<!-- Generator: Adobe Illustrator 28.3.0, SVG Export Plug-In . SVG Version: 6.00 Build 0)  -->
<svg version="1.1" id="Capa_1" xmlns="http://www.w3.org/2000/svg" xmlns:xlink="http://www.w3.org/1999/xlink" x="0px" y="0px"
	 viewBox="0 0 150 40" style="enable-background:new 0 0 150 40;" xml:space="preserve">
<style type="text/css">
	.st0{fill:#002F87;}
</style>
<g>
	<g>
		<g>
			<path class="st0" d="M142.3,22.5c-0.6,0-1.1,0.4-1.3,0.5c-0.1,0.1-0.2,0.1-0.2,0.2c-4.2,2.7-8.3,2.2-8.6-4.2
				c-0.3-5.7,4.2-7.6,8.6-4.6c0.1,0,0.1,0.1,0.2,0.1c0.6,0.5,0.7,0.5,1.3,0.5c0.3,0,0.5-0.2,0.6-0.7c0-0.1,0-1.8,0-2.7
				c0-0.2,0-0.2,0-0.4c0-0.1,0-0.8-0.7-1.1c-0.1-0.1-0.5-0.2-0.6-0.3c-9-3.8-14,2.5-14.2,8.2c-0.2,7.3,4.4,12.9,13.9,9.8
				c0.1,0,0.1,0,0.2-0.1c0.8-0.3,1.5-1,1.5-2c0-0.1,0-0.4,0-0.4c0-0.9,0-1.3,0-2.1C143,23.2,143,22.5,142.3,22.5z"/>
			<path class="st0" d="M124.3,2.5H122c-0.6,0-1.1,0.5-1.1,1.1v24.1c0,0.6,0.5,1.1,1.1,1.1h2.4c0.6,0,1.1-0.5,1.1-1.1V3.6
				C125.4,3,124.9,2.5,124.3,2.5z"/>
			<path class="st0" d="M44,24.3h-8.7c-0.6,0-1.1-0.5-1.1-1.1V3.6c0-0.6-0.5-1.1-1.1-1.1h-2.7c-0.6,0-1.1,0.5-1.1,1.1v22.6
				c0,0,0,0.7,0,1c0,0.8,0.5,1.5,1.2,1.6c0.2,0,0.7,0,0.7,0H44c0.6,0,1-0.5,1-1.1v-2.3C45.1,24.8,44.6,24.3,44,24.3z"/>
			<circle class="st0" cx="49.4" cy="5" r="2.5"/>
			<path class="st0" d="M80.5,8.8h-0.3c-2.7,0-7.6,1.9-8.4,7.6c0,0-0.2,0.8-0.2,2.6c0,2.1,0.4,3.9,1.3,5.5c1.7,2.9,3.9,4.4,8.3,4.4
				c1.7,0,3.4-0.2,4.8-0.7c1.3-0.4,2.5-1,2.5-2.1c0-1,0-3.2,0-3.2c0-0.5-0.2-0.7-0.5-0.7c-0.6,0-1,0.5-1.4,0.8
				c-1.4,1-3.5,1.5-4.7,1.5c-4.5,0-5.7-2.4-5.6-4.3V20h11c0.6,0,1.2-0.4,1.2-1.1v-1.4c0-1.5-0.2-2.7-0.5-3.7
				C86.9,10.5,84.2,8.8,80.5,8.8z M76.4,16.3c0-0.4,0.1-0.7,0.3-1.1c0.2-0.4,0.4-0.8,0.8-1.1c0.3-0.3,0.7-0.6,1.2-0.9
				c0.5-0.2,1.1-0.3,1.8-0.3c0.8,0,1.4,0.1,1.9,0.4c0.5,0.2,0.9,0.5,1.2,0.9c0.3,0.4,0.5,0.7,0.6,1.1c0.1,0.4,0.2,0.8,0.2,1.1
				L76.4,16.3L76.4,16.3z"/>
			<path class="st0" d="M50.7,8.8h-2.6c-0.6,0-1.1,0.5-1.1,1.1v17.9c0,0.6,0.5,1.1,1.1,1.1h2.6c0.6,0,1.1-0.5,1.1-1.1v-18
				C51.7,9.3,51.3,8.8,50.7,8.8z"/>
			<path class="st0" d="M148.7,25c-0.4-0.4-1-0.6-1.6-0.6s-1.2,0.2-1.6,0.6c-0.4,0.4-0.6,0.9-0.6,1.6c0,0.6,0.2,1.2,0.6,1.6
				c0.4,0.4,1,0.6,1.6,0.6s1.2-0.2,1.6-0.6c0.4-0.4,0.6-0.9,0.6-1.6C149.4,25.9,149.1,25.4,148.7,25z M148.4,27.8
				c-0.3,0.3-0.8,0.5-1.3,0.5s-0.9-0.2-1.3-0.5c-0.3-0.3-0.5-0.8-0.5-1.3s0.2-0.9,0.5-1.3c0.3-0.3,0.8-0.5,1.3-0.5s0.9,0.2,1.3,0.5
				c0.3,0.3,0.5,0.8,0.5,1.3S148.7,27.5,148.4,27.8z"/>
			<path class="st0" d="M148.2,26.1c0-0.4-0.3-0.7-0.8-0.7h-1.1v2.3h0.5v-0.8h0.4l0.5,0.8h0.6l-0.5-0.9
				C147.9,26.8,148.2,26.5,148.2,26.1z M147.3,26.5h-0.5v-0.6h0.5c0.2,0,0.3,0.1,0.3,0.3S147.5,26.5,147.3,26.5z"/>
			<path class="st0" d="M99.9,24c-0.1,0-0.2,0-0.2,0.1c-2.1,0.9-4.2,0.8-4.2-1.4v-9.9H97l0,0h2.8c0.5,0,1-0.4,1-1v-2
				c0-0.5-0.4-1-1-1h-2.1l0,0h-2.5V3.5c0-0.5-0.4-1-1-1h-2.5c0,0-0.5,0-0.6,0c-0.5,0-0.7,0.3-0.7,0.7c0,0.1,0,0.4,0,0.4v3.2v0.9v1
				h-1c-0.5,0-1,0.4-1,1v2c0,0.5,0.4,0.9,0.9,1h1v2.7v4c0,2.4-0.2,5.5,1.4,7.5c1.7,2.2,5.8,2.2,8.3,1.3c0.4-0.1,0.6-0.5,0.6-0.9V25
				C101,24.4,100.5,24,99.9,24z"/>
			<path class="st0" d="M59.1,9.7c-0.1,0-0.2,0.2-0.4,0.3c-0.2,0.3-0.4,0.4-0.4,0.4V9.6c0-0.4-0.4-0.8-0.8-0.8h-3.3
				c-0.3,0-0.5,0.2-0.5,0.5V28l0,0c0,0.4,0.4,0.8,0.8,0.8h3c0.4,0,0.8-0.4,0.8-0.8V15c0-0.9,1.3-1.9,3.3-1.9c1.7,0,3.4,0.5,3.4,2.8
				V28c0,0.4,0.4,0.8,0.8,0.8h3c0.4,0,0.8-0.4,0.8-0.8V16C69.7,8.2,61.7,7.9,59.1,9.7z"/>
			<path class="st0" d="M110.9,8.8h-0.3c-2.7,0-7.6,1.9-8.4,7.6c0,0-0.2,0.8-0.2,2.6c0,2.1,0.4,3.9,1.3,5.5c1.7,2.9,3.9,4.4,8.3,4.4
				c1.7,0,3.4-0.2,4.8-0.7c1.3-0.4,2.5-1,2.5-2.1c0-1,0-3.2,0-3.2c0-0.5-0.2-0.7-0.5-0.7c-0.6,0-1,0.5-1.4,0.8
				c-1.4,1-3.5,1.5-4.7,1.5c-4.5,0-5.7-2.4-5.6-4.3V20h11c0.6,0,1.2-0.4,1.2-1.1v-1.4c0-1.5-0.2-2.7-0.5-3.7
				C117.2,10.5,114.5,8.8,110.9,8.8z M106.8,16.3c0-0.4,0.1-0.7,0.3-1.1c0.2-0.4,0.4-0.8,0.8-1.1c0.3-0.3,0.7-0.6,1.2-0.9
				c0.5-0.2,1.1-0.3,1.8-0.3c0.8,0,1.4,0.1,1.9,0.4c0.5,0.2,0.9,0.5,1.2,0.9c0.3,0.4,0.5,0.7,0.6,1.1c0.1,0.4,0.2,0.8,0.2,1.1
				L106.8,16.3L106.8,16.3z"/>
			<path class="st0" d="M14.2,4.7l-2.9,1.4c-0.1,0.3-0.3,0.6-0.6,0.8l-4.3,2C6.1,9,5.8,9,5.4,8.8l-2.9,1.4c-0.5,0.2-0.6,0.5-0.3,0.9
				l8.2,17.7h0.1h0.3h14.9h0.1h0.3l-11-23.7C15,4.6,14.7,4.5,14.2,4.7z M10.7,28.4L2.6,11c-0.1-0.3-0.1-0.3,0.2-0.4l2.7-1.3
				c0.4,0.2,0.8,0.1,1.2,0l4.3-2c0.4-0.2,0.7-0.5,0.8-0.9l2.7-1.3C14.7,5,14.7,5,14.8,5.3l10.8,23.2H10.7V28.4z"/>
			<path class="st0" d="M22.3,17.8C21,15,17.6,7.7,16.3,4.9c-0.2-0.4-0.3-0.7-0.5-1c-0.6-1.2-1.6-1.6-2.8-1.1
				c-0.3,0.1-0.6,0.2-0.9,0.4C8.9,4.5,5.8,6,2.7,7.5C2.4,7.6,2,7.8,1.7,8c-0.9,0.5-1.2,1.3-1,2.3c0.1,0.3,0.2,0.6,0.3,0.9
				C3.1,15.7,6.6,23,9.3,28.8h0.5C8,25.2,1.9,12,1.6,11.4C1.3,10.7,1.5,10,2.3,9.7c1.1-0.5,2.2-1,3.3-1.5l0,0C5.7,8.4,6,8.4,6.2,8.3
				l4.3-2c0.2-0.1,0.3-0.4,0.2-0.6l0,0c1.1-0.5,2.2-1,3.3-1.5c0.8-0.4,1.4-0.1,1.8,0.7c1.6,3.4,7.7,16.5,11.2,23.9h0.5
				C25.7,25.1,24,21.5,22.3,17.8L22.3,17.8z M9.4,5.9L6.6,7.2C6.5,7.3,6.3,7.2,6.2,7c-0.1-0.2,0-0.3,0.1-0.4l2.8-1.3
				c0.2-0.1,0.3,0,0.4,0.1C9.6,5.6,9.6,5.8,9.4,5.9z"/>
		</g>
		<g>
			<path class="st0" d="M0.5,37.4v-4.3h1.7c1.4,0,2.3,0.9,2.3,2.2s-0.9,2.2-2.3,2.2H0.5V37.4z M3.6,35.2c0-0.8-0.5-1.4-1.4-1.4H1.4
				v2.7h0.8C3.1,36.6,3.6,36,3.6,35.2z"/>
			<path class="st0" d="M8.2,37.4v-4.3h0.9v4.3H8.2z"/>
			<path class="st0" d="M12.5,36.8l0.5-0.7c0.3,0.3,0.8,0.6,1.4,0.6c0.5,0,0.8-0.2,0.8-0.5c0-0.8-2.5-0.2-2.5-1.9
				c0-0.7,0.6-1.3,1.6-1.3c0.7,0,1.3,0.2,1.7,0.6l-0.5,0.7c-0.4-0.3-0.8-0.5-1.3-0.5c-0.4,0-0.6,0.2-0.6,0.4c0,0.7,2.5,0.2,2.5,1.8
				c0,0.8-0.6,1.4-1.7,1.4C13.5,37.5,12.9,37.2,12.5,36.8z"/>
			<path class="st0" d="M20.4,37.4v-3.5h-1.3v-0.8h3.5v0.8h-1.3v3.5H20.4z"/>
			<path class="st0" d="M28.4,37.4l-0.9-1.5h-0.7v1.5H26v-4.3h2c0.9,0,1.5,0.6,1.5,1.4c0,0.8-0.5,1.2-1,1.3l1,1.7h-1.1V37.4z
				 M28.5,34.5c0-0.4-0.3-0.6-0.7-0.6h-1v1.2h1C28.2,35.1,28.5,34.8,28.5,34.5z"/>
			<path class="st0" d="M32.9,37.4v-4.3h0.9v4.3H32.9z"/>
			<path class="st0" d="M37.5,37.4v-4.3h2.3c0.8,0,1.2,0.5,1.2,1.1c0,0.5-0.3,0.9-0.7,1c0.5,0.1,0.8,0.5,0.8,1.1
				c0,0.7-0.4,1.2-1.3,1.2L37.5,37.4L37.5,37.4z M40.1,34.3c0-0.3-0.2-0.5-0.5-0.5h-1.2v0.9h1.2C39.9,34.8,40.1,34.6,40.1,34.3z
				 M40.2,36.1c0-0.3-0.2-0.5-0.6-0.5h-1.2v1h1.2C40,36.6,40.2,36.4,40.2,36.1z"/>
			<path class="st0" d="M44.6,35.7v-2.6h0.9v2.6c0,0.6,0.4,1,1,1c0.7,0,1-0.4,1-1v-2.6h0.9v2.6c0,1.1-0.6,1.8-2,1.8
				C45.3,37.5,44.6,36.8,44.6,35.7z"/>
			<path class="st0" d="M52.2,37.4v-4.3h0.9v4.3H52.2z"/>
			<path class="st0" d="M56.8,37.4v-4.3h1.7c1.4,0,2.3,0.9,2.3,2.2s-0.9,2.2-2.3,2.2h-1.7V37.4z M59.8,35.2c0-0.8-0.5-1.4-1.4-1.4
				h-0.8v2.7h0.8C59.3,36.6,59.8,36,59.8,35.2z"/>
			<path class="st0" d="M64,35.2c0-1.3,1-2.2,2.3-2.2s2.3,0.9,2.3,2.2s-1,2.2-2.3,2.2C65,37.5,64,36.6,64,35.2z M67.6,35.2
				c0-0.8-0.5-1.4-1.3-1.4S65,34.4,65,35.2c0,0.8,0.5,1.4,1.3,1.4C67.1,36.7,67.6,36.1,67.6,35.2z"/>
			<path class="st0" d="M74.5,37.4l-0.9-1.5h-0.7v1.5H72v-4.3h2c0.9,0,1.5,0.6,1.5,1.4c0,0.8-0.5,1.2-1,1.3l1,1.7h-1V37.4z
				 M74.5,34.5c0-0.4-0.3-0.6-0.7-0.6h-1v1.2h1C74.3,35.1,74.5,34.8,74.5,34.5z"/>
			<path class="st0" d="M86.4,37.4l-0.3-0.7h-1.9L84,37.4h-1l1.7-4.3h1.2l1.7,4.3H86.4z M85.2,34l-0.7,1.9h1.4L85.2,34z"/>
			<path class="st0" d="M90.5,35.7v-2.6h0.9v2.6c0,0.6,0.4,1,1,1s1-0.4,1-1v-2.6h0.9v2.6c0,1.1-0.6,1.8-2,1.8S90.5,36.8,90.5,35.7z"
				/>
			<path class="st0" d="M99,37.4v-3.5h-1.3v-0.8h3.5v0.8H100v3.5H99z"/>
			<path class="st0" d="M104.2,35.2c0-1.3,1-2.2,2.3-2.2s2.3,0.9,2.3,2.2s-1,2.2-2.3,2.2C105.2,37.5,104.2,36.6,104.2,35.2z
				 M107.8,35.2c0-0.8-0.5-1.4-1.3-1.4s-1.3,0.6-1.3,1.4c0,0.8,0.5,1.4,1.3,1.4C107.3,36.7,107.8,36.1,107.8,35.2z"/>
			<path class="st0" d="M114.7,37.4l-0.9-1.5h-0.7v1.5h-0.9v-4.3h2c0.9,0,1.5,0.6,1.5,1.4c0,0.8-0.5,1.2-1,1.3l1,1.7h-1V37.4z
				 M114.8,34.5c0-0.4-0.3-0.6-0.7-0.6h-1v1.2h1C114.5,35.1,114.8,34.8,114.8,34.5z"/>
			<path class="st0" d="M119.2,37.4v-4.3h0.9v4.3H119.2z"/>
			<path class="st0" d="M123.6,37.4v-0.7l2.1-2.8h-2.1v-0.8h3.3v0.7l-2.1,2.8h2.1v0.8H123.6z"/>
			<path class="st0" d="M133.4,37.4l-0.3-0.7h-1.9l-0.3,0.7H130l1.7-4.3h1.2l1.7,4.3H133.4z M132.2,34l-0.7,1.9h1.4L132.2,34z"/>
			<path class="st0" d="M137.7,37.4v-4.3h1.7c1.4,0,2.3,0.9,2.3,2.2s-0.9,2.2-2.3,2.2h-1.7V37.4z M140.7,35.2c0-0.8-0.5-1.4-1.4-1.4
				h-0.8v2.7h0.8C140.2,36.6,140.7,36,140.7,35.2z"/>
			<path class="st0" d="M145,35.2c0-1.3,1-2.2,2.3-2.2s2.3,0.9,2.3,2.2s-1,2.2-2.3,2.2C145.9,37.5,145,36.6,145,35.2z M148.5,35.2
				c0-0.8-0.5-1.4-1.3-1.4s-1.3,0.6-1.3,1.4c0,0.8,0.5,1.4,1.3,1.4C148,36.7,148.5,36.1,148.5,35.2z"/>
		</g>
	</g>
</g>
</svg>
