<?xml version="1.0" encoding="utf-8"?>
<!-- Generator: Adobe Illustrator 28.3.0, SVG Export Plug-In . SVG Version: 6.00 Build 0)  -->
<svg version="1.1" id="Capa_1" xmlns="http://www.w3.org/2000/svg" xmlns:xlink="http://www.w3.org/1999/xlink" x="0px" y="0px"
	 viewBox="0 0 188.9 20" style="enable-background:new 0 0 188.9 20;" xml:space="preserve">
<style type="text/css">
	.st0{fill:#FFFFFF;}
</style>
<g>
	<g>
		<g>
			<g>
				<path class="st0" d="M83.5,11.4c-0.3,0-0.6,0.2-0.7,0.3c-0.1,0.1-0.1,0.1-0.1,0.1c-2.3,1.5-4.5,1.2-4.7-2.3
					c-0.2-3.1,2.3-4.1,4.7-2.5C82.8,7,82.8,7,82.8,7c0.3,0.3,0.4,0.3,0.7,0.3c0.2,0,0.3-0.1,0.3-0.4c0-0.1,0-1,0-1.5
					c0-0.1,0-0.1,0-0.2c0-0.1,0-0.4-0.4-0.6c-0.1-0.1-0.3-0.1-0.3-0.2c-4.9-2.1-7.6,1.4-7.7,4.5c-0.1,4,2.4,7,7.5,5.3
					c0.1,0,0.1,0,0.1-0.1c0.4-0.2,0.8-0.5,0.8-1.1c0-0.1,0-0.2,0-0.2c0-0.5,0-0.7,0-1.1C83.9,11.7,83.9,11.4,83.5,11.4z"/>
				<path class="st0" d="M73.8,0.5h-1.2c-0.3,0-0.6,0.3-0.6,0.6v13.1c0,0.3,0.3,0.6,0.6,0.6h1.3c0.3,0,0.6-0.3,0.6-0.6V1.1
					C74.4,0.8,74.1,0.5,73.8,0.5z"/>
				<path class="st0" d="M30.2,12.3h-4.7c-0.3,0-0.6-0.3-0.6-0.6V1.1c0-0.3-0.3-0.6-0.6-0.6h-1.5c-0.3,0-0.6,0.3-0.6,0.6v12.3
					c0,0,0,0.4,0,0.5c0,0.4,0.3,0.8,0.7,0.9c0.1,0,0.4,0,0.4,0h6.9c0.3,0,0.5-0.3,0.5-0.6v-1.2C30.8,12.6,30.5,12.3,30.2,12.3z"/>
				<circle class="st0" cx="33.1" cy="1.9" r="1.4"/>
				<path class="st0" d="M50,3.9h-0.2c-1.5,0-4.1,1-4.6,4.1c0,0-0.1,0.4-0.1,1.4c0,1.1,0.2,2.1,0.7,3c0.9,1.6,2.1,2.4,4.5,2.4
					c0.9,0,1.8-0.1,2.6-0.4c0.7-0.2,1.4-0.5,1.4-1.1c0-0.5,0-1.7,0-1.7c0-0.3-0.1-0.4-0.3-0.4c-0.3,0-0.5,0.3-0.8,0.4
					c-0.8,0.5-1.9,0.8-2.6,0.8c-2.4,0-3.1-1.3-3-2.3V10h6c0.3,0,0.7-0.2,0.7-0.6V8.6c0-0.8-0.1-1.5-0.3-2C53.5,4.8,52,3.9,50,3.9z
					 M47.8,8c0-0.2,0.1-0.4,0.2-0.6C48,7.2,48.2,7,48.4,6.8c0.2-0.2,0.4-0.3,0.7-0.5c0.3-0.1,0.6-0.2,1-0.2c0.4,0,0.8,0.1,1,0.2
					c0.3,0.1,0.5,0.3,0.7,0.5C51.8,7.1,52,7.2,52,7.4c0.1,0.2,0.1,0.4,0.1,0.6L47.8,8L47.8,8z"/>
				<path class="st0" d="M33.8,3.9h-1.4c-0.3,0-0.6,0.3-0.6,0.6v9.7c0,0.3,0.3,0.6,0.6,0.6h1.4c0.3,0,0.6-0.3,0.6-0.6V4.5
					C34.4,4.2,34.1,3.9,33.8,3.9z"/>
				<path class="st0" d="M87,12.7c-0.2-0.2-0.5-0.3-0.9-0.3s-0.7,0.1-0.9,0.3c-0.2,0.2-0.3,0.5-0.3,0.9c0,0.3,0.1,0.7,0.3,0.9
					c0.2,0.2,0.5,0.3,0.9,0.3s0.7-0.1,0.9-0.3c0.2-0.2,0.3-0.5,0.3-0.9C87.4,13.2,87.2,12.9,87,12.7z M86.9,14.2
					c-0.2,0.2-0.4,0.3-0.7,0.3s-0.5-0.1-0.7-0.3c-0.2-0.2-0.3-0.4-0.3-0.7c0-0.3,0.1-0.5,0.3-0.7c0.2-0.2,0.4-0.3,0.7-0.3
					s0.5,0.1,0.7,0.3c0.2,0.2,0.3,0.4,0.3,0.7C87.1,13.8,87,14.1,86.9,14.2z"/>
				<path class="st0" d="M86.7,13.3c0-0.2-0.2-0.4-0.4-0.4h-0.6v1.2H86v-0.4h0.2l0.3,0.4h0.3l-0.3-0.5
					C86.6,13.7,86.7,13.5,86.7,13.3z M86.3,13.5H86v-0.3h0.3c0.1,0,0.2,0.1,0.2,0.2S86.4,13.5,86.3,13.5z"/>
				<path class="st0" d="M60.5,12.2c-0.1,0-0.1,0-0.1,0.1c-1.1,0.5-2.3,0.4-2.3-0.8V6.1H59l0,0h1.5c0.3,0,0.5-0.2,0.5-0.5V4.5
					c0-0.3-0.2-0.5-0.5-0.5h-1.1l0,0H58V1c0-0.3-0.2-0.5-0.5-0.5h-1.4c0,0-0.3,0-0.3,0c-0.3,0-0.4,0.2-0.4,0.4c0,0.1,0,0.2,0,0.2
					v1.7v0.5v0.5h-0.5c-0.3,0-0.5,0.2-0.5,0.5v1.1c0,0.3,0.2,0.5,0.5,0.5h0.5v1.5v2.2c0,1.3-0.1,3,0.8,4.1c0.9,1.2,3.1,1.2,4.5,0.7
					c0.2-0.1,0.3-0.3,0.3-0.5v-1.2C61.1,12.4,60.9,12.2,60.5,12.2z"/>
				<path class="st0" d="M38.4,4.4c-0.1,0-0.1,0.1-0.2,0.2c-0.1,0.2-0.2,0.2-0.2,0.2V4.4c0-0.2-0.2-0.4-0.4-0.4h-1.8
					c-0.2,0-0.3,0.1-0.3,0.3v10.2l0,0c0,0.2,0.2,0.4,0.4,0.4h1.6c0.2,0,0.4-0.2,0.4-0.4V7.3c0-0.5,0.7-1,1.8-1
					c0.9,0,1.8,0.3,1.8,1.5v6.6c0,0.2,0.2,0.4,0.4,0.4h1.6c0.2,0,0.4-0.2,0.4-0.4V7.8C44.1,3.6,39.8,3.4,38.4,4.4z"/>
				<path class="st0" d="M66.5,3.9h-0.2c-1.5,0-4.1,1-4.6,4.1c0,0-0.1,0.4-0.1,1.4c0,1.1,0.2,2.1,0.7,3c0.9,1.6,2.1,2.4,4.5,2.4
					c0.9,0,1.8-0.1,2.6-0.4c0.7-0.2,1.4-0.5,1.4-1.1c0-0.5,0-1.7,0-1.7c0-0.3-0.1-0.4-0.3-0.4c-0.3,0-0.5,0.3-0.8,0.4
					c-0.8,0.5-1.9,0.8-2.6,0.8c-2.4,0-3.1-1.3-3-2.3V10h6c0.3,0,0.7-0.2,0.7-0.6V8.6c0-0.8-0.1-1.5-0.3-2
					C69.9,4.8,68.5,3.9,66.5,3.9z M64.3,8c0-0.2,0.1-0.4,0.2-0.6c0.1-0.2,0.2-0.4,0.4-0.6c0.2-0.2,0.4-0.3,0.7-0.5
					c0.3-0.1,0.6-0.2,1-0.2c0.4,0,0.8,0.1,1,0.2c0.3,0.1,0.5,0.3,0.7,0.5s0.3,0.4,0.3,0.6c0.1,0.2,0.1,0.4,0.1,0.6L64.3,8L64.3,8z"
					/>
				<path class="st0" d="M14,1.7l-1.6,0.8c-0.1,0.2-0.2,0.3-0.3,0.4L9.8,4C9.6,4,9.4,4,9.2,3.9L7.7,4.7C7.4,4.8,7.3,5,7.5,5.2
					l4.5,9.6H12h0.2h8.1h0.1h0.2l-6-12.9C14.4,1.6,14.3,1.6,14,1.7z M12.1,14.6L7.7,5.1C7.7,5,7.7,5,7.8,4.9l1.5-0.7
					c0.2,0.1,0.4,0.1,0.7,0l2.3-1.1c0.2-0.1,0.4-0.3,0.4-0.5l1.5-0.7c0.1-0.1,0.1-0.1,0.2,0.1l5.9,12.6L12.1,14.6L12.1,14.6z"/>
				<path class="st0" d="M18.4,8.8c-0.7-1.5-2.6-5.5-3.3-7C15,1.6,15,1.4,14.9,1.3c-0.3-0.7-0.9-0.9-1.5-0.6
					c-0.2,0.1-0.3,0.1-0.5,0.2c-1.7,0.7-3.4,1.5-5.1,2.3C7.6,3.3,7.4,3.4,7.2,3.5C6.7,3.8,6.6,4.2,6.7,4.7c0.1,0.2,0.1,0.3,0.2,0.5
					c1.1,2.4,3,6.4,4.5,9.6h0.3c-1-2-4.3-9.1-4.5-9.4C7,5,7.1,4.6,7.5,4.4c0.6-0.3,1.2-0.5,1.8-0.8l0,0c0.1,0.1,0.2,0.1,0.3,0.1
					L12,2.6c0.1-0.1,0.2-0.2,0.1-0.3l0,0c0.6-0.3,1.2-0.5,1.8-0.8c0.4-0.2,0.8-0.1,1,0.4c0.9,1.8,4.2,9,6.1,13h0.3
					C20.2,12.8,19.3,10.8,18.4,8.8L18.4,8.8z M11.4,2.3L9.9,3.1c-0.1,0.1-0.2,0-0.2-0.1s0-0.2,0.1-0.2L11.2,2c0.1-0.1,0.2,0,0.2,0.1
					C11.5,2.2,11.5,2.3,11.4,2.3z"/>
			</g>
			<g>
				<path class="st0" d="M6.6,19.4v-2.3h0.9c0.8,0,1.2,0.5,1.2,1.2s-0.5,1.2-1.2,1.2L6.6,19.4L6.6,19.4z M8.3,18.3
					c0-0.4-0.3-0.8-0.8-0.8H7.1V19h0.4C8,19,8.3,18.7,8.3,18.3z"/>
				<path class="st0" d="M10.7,19.4v-2.3h0.5v2.3H10.7z"/>
				<path class="st0" d="M13.1,19.1l0.3-0.4c0.2,0.2,0.4,0.3,0.8,0.3c0.3,0,0.4-0.1,0.4-0.3c0-0.4-1.4-0.1-1.4-1
					c0-0.4,0.3-0.7,0.9-0.7c0.4,0,0.7,0.1,0.9,0.3l-0.3,0.4c-0.2-0.2-0.4-0.3-0.7-0.3c-0.2,0-0.3,0.1-0.3,0.2c0,0.4,1.4,0.1,1.4,1
					c0,0.4-0.3,0.8-0.9,0.8C13.6,19.5,13.3,19.3,13.1,19.1z"/>
				<path class="st0" d="M17.4,19.4v-1.9h-0.7v-0.4h1.9v0.4h-0.7v1.9H17.4z"/>
				<path class="st0" d="M21.7,19.4l-0.5-0.8h-0.4v0.8h-0.4v-2.3h1.1c0.5,0,0.8,0.3,0.8,0.8c0,0.4-0.3,0.7-0.5,0.7l0.5,0.9
					L21.7,19.4L21.7,19.4z M21.8,17.9c0-0.2-0.2-0.3-0.4-0.3h-0.5v0.7h0.5C21.6,18.2,21.8,18,21.8,17.9z"/>
				<path class="st0" d="M24.2,19.4v-2.3h0.5v2.3H24.2z"/>
				<path class="st0" d="M26.7,19.4v-2.3h1.2c0.4,0,0.7,0.3,0.7,0.6c0,0.3-0.2,0.5-0.4,0.5c0.3,0.1,0.4,0.3,0.4,0.6
					c0,0.4-0.2,0.7-0.7,0.7L26.7,19.4L26.7,19.4z M28.1,17.8c0-0.2-0.1-0.3-0.3-0.3h-0.7V18h0.7C28,18,28.1,17.9,28.1,17.8z
					 M28.1,18.7c0-0.2-0.1-0.3-0.3-0.3h-0.7V19h0.7C28,19,28.1,18.9,28.1,18.7z"/>
				<path class="st0" d="M30.5,18.5v-1.4H31v1.4c0,0.3,0.2,0.5,0.5,0.5c0.4,0,0.5-0.2,0.5-0.5v-1.4h0.5v1.4c0,0.6-0.3,1-1.1,1
					C30.9,19.5,30.5,19.1,30.5,18.5z"/>
				<path class="st0" d="M34.6,19.4v-2.3h0.5v2.3H34.6z"/>
				<path class="st0" d="M37.1,19.4v-2.3h0.9c0.8,0,1.2,0.5,1.2,1.2s-0.5,1.2-1.2,1.2L37.1,19.4L37.1,19.4z M38.8,18.3
					c0-0.4-0.3-0.8-0.8-0.8h-0.4V19H38C38.5,19,38.8,18.7,38.8,18.3z"/>
				<path class="st0" d="M41,18.3c0-0.7,0.5-1.2,1.2-1.2s1.2,0.5,1.2,1.2s-0.5,1.2-1.2,1.2C41.6,19.5,41,19,41,18.3z M43,18.3
					c0-0.4-0.3-0.8-0.7-0.8s-0.7,0.3-0.7,0.8s0.3,0.8,0.7,0.8C42.7,19.1,43,18.7,43,18.3z"/>
				<path class="st0" d="M46.7,19.4l-0.5-0.8h-0.4v0.8h-0.5v-2.3h1.1c0.5,0,0.8,0.3,0.8,0.8c0,0.4-0.3,0.7-0.5,0.7l0.5,0.9
					L46.7,19.4L46.7,19.4z M46.7,17.9c0-0.2-0.2-0.3-0.4-0.3h-0.5v0.7h0.5C46.6,18.2,46.7,18,46.7,17.9z"/>
				<path class="st0" d="M53.2,19.4L53,19.1h-1l-0.1,0.4h-0.5l0.9-2.3h0.7l0.9,2.3H53.2z M52.5,17.6l-0.4,1h0.8L52.5,17.6z"/>
				<path class="st0" d="M55.4,18.5v-1.4h0.5v1.4c0,0.3,0.2,0.5,0.5,0.5c0.3,0,0.5-0.2,0.5-0.5v-1.4h0.5v1.4c0,0.6-0.3,1-1.1,1
					C55.6,19.5,55.4,19.1,55.4,18.5z"/>
				<path class="st0" d="M60,19.4v-1.9h-0.7v-0.4h1.9v0.4h-0.7v1.9H60z"/>
				<path class="st0" d="M62.9,18.3c0-0.7,0.5-1.2,1.2-1.2c0.7,0,1.2,0.5,1.2,1.2s-0.5,1.2-1.2,1.2C63.4,19.5,62.9,19,62.9,18.3z
					 M64.8,18.3c0-0.4-0.3-0.8-0.7-0.8s-0.7,0.3-0.7,0.8s0.3,0.8,0.7,0.8C64.5,19.1,64.8,18.7,64.8,18.3z"/>
				<path class="st0" d="M68.6,19.4l-0.5-0.8h-0.4v0.8h-0.5v-2.3h1.1c0.5,0,0.8,0.3,0.8,0.8c0,0.4-0.3,0.7-0.5,0.7l0.5,0.9
					L68.6,19.4L68.6,19.4z M68.6,17.9c0-0.2-0.2-0.3-0.4-0.3h-0.5v0.7h0.5C68.5,18.2,68.6,18,68.6,17.9z"/>
				<path class="st0" d="M71,19.4v-2.3h0.5v2.3H71z"/>
				<path class="st0" d="M73.4,19.4v-0.4l1.1-1.5h-1.1v-0.4h1.8v0.4L74,19h1.1v0.4H73.4z"/>
				<path class="st0" d="M78.7,19.4l-0.2-0.4h-1l-0.2,0.4h-0.5l0.9-2.3h0.7l0.9,2.3H78.7z M78.1,17.6l-0.4,1h0.8L78.1,17.6z"/>
				<path class="st0" d="M81,19.4v-2.3H82c0.8,0,1.2,0.5,1.2,1.2s-0.5,1.2-1.2,1.2L81,19.4L81,19.4z M82.7,18.3
					c0-0.4-0.3-0.8-0.8-0.8h-0.4V19h0.4C82.4,19,82.7,18.7,82.7,18.3z"/>
				<path class="st0" d="M85,18.3c0-0.7,0.5-1.2,1.2-1.2c0.7,0,1.2,0.5,1.2,1.2s-0.5,1.2-1.2,1.2C85.5,19.5,85,19,85,18.3z
					 M86.9,18.3c0-0.4-0.3-0.8-0.7-0.8s-0.7,0.3-0.7,0.8s0.3,0.8,0.7,0.8C86.6,19.1,86.9,18.7,86.9,18.3z"/>
			</g>
		</g>
	</g>
	<g>
		<path class="st0" d="M119.3,0.4l-2.7,3.9h-2.1l-1.8,2.6h2.3l-6.5,9.4c0,0-0.5,0.7-0.5,1.8c0,1.1,1.4,1.2,1.4,1.2h4.9l1.6-2.7h-2.5
			c0,0-0.9-0.1-0.5-0.9c0.4-0.6,6.1-8.8,6.1-8.8h2.9l1.6-2.6h-2.6l2.6-3.9H119.3z"/>
		<polygon class="st0" points="134.7,19.4 147.2,0.4 143,0.4 130.5,19.4 		"/>
		<polygon class="st0" points="169.9,19.4 182.4,0.4 178.3,0.4 165.7,19.4 		"/>
		<path class="st0" d="M124.4,10.6h6.6c0,0,0.7-1.2,1-2.3c0.2-1-1-1.3-2.4-1.3C128.3,7,126.2,7.2,124.4,10.6 M132.8,13.2h-10.1
			c0,0-1,1.2-1.1,2.3c0,0,0,0.9,1.1,0.9h7.8l-2,3.1h-6.3c0,0-4.8,0-4.8-2.7c0,0,0-2,3.5-6.8c3.3-4.9,5.7-5.1,9.8-5.1
			c4,0,5.1,1.2,5,2.3C135.5,8.4,135.4,9,132.8,13.2"/>
		<path class="st0" d="M159.3,10.6h6.6c0,0,0.7-1.2,1-2.3c0.2-1-1-1.3-2.4-1.3C163.2,7,161.1,7.2,159.3,10.6 M167.6,13.2h-10.1
			c0,0-1,1.2-1.1,2.3c0,0,0,0.9,1.1,0.9h7.7l-2,3.1h-6.3c0,0-4.8,0-4.8-2.7c0,0,0-2,3.5-6.8s5.9-4.9,10-4.9c4,0,5.1,1.2,5,2.3
			C170.4,8.4,170.3,9,167.6,13.2"/>
		<path class="st0" d="M143.1,15.5c0,0,0,0.9,1.1,0.9h6.8l-2,3.1h-5.3c0,0-5.2,0.2-4.8-2.7c0,0-0.1-2,3.5-6.8c0,0,3.2-4.9,10.1-4.9
			h4.5l-2.1,3h-3.7c-0.3,0-3,0.3-5.4,2.8C143.4,13.4,143.2,14.6,143.1,15.5"/>
	</g>
</g>
</svg>
