<?xml version="1.0" encoding="utf-8"?>
<!-- Generator: Adobe Illustrator 28.3.0, SVG Export Plug-In . SVG Version: 6.00 Build 0)  -->
<svg version="1.1" id="Capa_1" xmlns="http://www.w3.org/2000/svg" xmlns:xlink="http://www.w3.org/1999/xlink" x="0px" y="0px"
	 viewBox="0 0 188.9 20" style="enable-background:new 0 0 188.9 20;" xml:space="preserve">
<style type="text/css">
	.st0{fill:#FFFFFF;}
</style>
<g>
	<g>
		<g>
			<g>
				<path class="st0" d="M84.7,11.4c-0.4,0-0.6,0.2-0.7,0.3c0,0-0.1,0.1-0.1,0.1c-2.4,1.5-4.7,1.2-4.8-2.4c-0.1-3.2,2.4-4.3,4.9-2.6
					c0,0,0.1,0,0.1,0.1c0.4,0.3,0.4,0.3,0.7,0.3c0.2,0,0.3-0.1,0.3-0.4c0-0.1,0-1,0-1.5c0-0.1,0-0.1,0-0.2c0-0.1,0-0.5-0.4-0.6
					c-0.1,0-0.3-0.1-0.4-0.2c-5.1-2.1-7.9,1.4-8,4.6c-0.1,4.1,2.5,7.3,7.8,5.5c0.1,0,0,0,0.1,0c0.5-0.2,0.8-0.6,0.8-1.1
					c0,0,0-0.2,0-0.2c0-0.5,0-0.7,0-1.2C85.1,11.8,85.1,11.4,84.7,11.4z"/>
				<path class="st0" d="M74.5,0.1h-1.3c-0.3,0-0.6,0.3-0.6,0.6v13.6c0,0.3,0.3,0.6,0.6,0.6h1.3c0.3,0,0.6-0.3,0.6-0.6V0.7
					C75.2,0.4,74.9,0.1,74.5,0.1z"/>
				<path class="st0" d="M29.2,12.5h-4.9c-0.3,0-0.6-0.3-0.6-0.6V0.7c0-0.3-0.3-0.6-0.6-0.6h-1.5c-0.3,0-0.6,0.3-0.6,0.6v12.8
					c0,0,0,0.4,0,0.5c0,0.5,0.3,0.9,0.7,0.9c0.1,0,0.4,0,0.4,0h7.1c0.3,0,0.6-0.3,0.6-0.6V13C29.8,12.7,29.5,12.5,29.2,12.5z"/>
				<circle class="st0" cx="32.2" cy="1.5" r="1.4"/>
				<path class="st0" d="M49.8,3.7h-0.2c-1.5,0-4.3,1-4.7,4.3c0,0-0.1,0.5-0.1,1.5c0,1.2,0.2,2.2,0.7,3.1c1,1.7,2.2,2.5,4.7,2.5
					c1,0,1.9-0.1,2.7-0.4c0.7-0.3,1.4-0.6,1.4-1.2c0-0.5,0-1.8,0-1.8c0-0.3-0.1-0.4-0.3-0.4c-0.4,0-0.5,0.3-0.8,0.4
					c-0.8,0.6-2,0.9-2.6,0.9c-2.6,0-3.2-1.4-3.1-2.4v0l6.2,0c0.4,0,0.7-0.2,0.7-0.6V8.6c0-0.8-0.1-1.5-0.3-2.1
					C53.4,4.6,51.9,3.7,49.8,3.7z M47.5,7.9c0-0.2,0.1-0.4,0.2-0.6c0.1-0.2,0.2-0.4,0.4-0.6c0.2-0.2,0.4-0.4,0.7-0.5
					C49.1,6,49.4,6,49.8,6c0.4,0,0.8,0.1,1.1,0.2c0.3,0.1,0.5,0.3,0.7,0.5c0.2,0.2,0.3,0.4,0.3,0.6C51.9,7.5,52,7.7,52,7.9H47.5z"/>
				<path class="st0" d="M33,3.7h-1.5c-0.3,0-0.6,0.3-0.6,0.6v10.1c0,0.3,0.3,0.6,0.6,0.6H33c0.3,0,0.6-0.3,0.6-0.6V4.3
					C33.6,3.9,33.3,3.7,33,3.7z"/>
				<path class="st0" d="M88.3,12.8c-0.2-0.2-0.5-0.4-0.9-0.4c-0.3,0-0.7,0.1-0.9,0.4c-0.2,0.2-0.4,0.5-0.4,0.9
					c0,0.3,0.1,0.7,0.4,0.9c0.2,0.2,0.5,0.4,0.9,0.4c0.3,0,0.7-0.1,0.9-0.4c0.2-0.2,0.4-0.5,0.4-0.9C88.7,13.4,88.5,13,88.3,12.8z
					 M88.1,14.4c-0.2,0.2-0.4,0.3-0.7,0.3c-0.3,0-0.5-0.1-0.7-0.3c-0.2-0.2-0.3-0.4-0.3-0.7c0-0.3,0.1-0.5,0.3-0.7
					c0.2-0.2,0.4-0.3,0.7-0.3c0.3,0,0.5,0.1,0.7,0.3c0.2,0.2,0.3,0.4,0.3,0.7C88.4,14,88.3,14.2,88.1,14.4z"/>
				<path class="st0" d="M88,13.5c0-0.2-0.2-0.4-0.4-0.4H87v1.3h0.3v-0.5h0.2l0.3,0.5H88l-0.3-0.5C87.9,13.8,88,13.7,88,13.5z
					 M87.5,13.6h-0.3v-0.4h0.3c0.1,0,0.2,0.1,0.2,0.2C87.7,13.6,87.6,13.6,87.5,13.6z"/>
				<path class="st0" d="M60.8,12.3c-0.1,0-0.1,0-0.1,0c-1.2,0.5-2.4,0.5-2.3-0.8l0-5.6h0.9v0h1.6c0.3,0,0.5-0.2,0.5-0.5V4.2
					c0-0.3-0.2-0.5-0.5-0.5h-1.2v0h-1.4l0-3c0-0.3-0.2-0.5-0.5-0.5l-1.4,0c0,0-0.3,0-0.3,0c-0.3,0-0.4,0.2-0.4,0.4c0,0,0,0.3,0,0.3
					v1.8v0.5v0.5H55c-0.3,0-0.5,0.2-0.5,0.5v1.1c0,0.3,0.2,0.5,0.5,0.5h0.6v1.5v2.2c0,1.4-0.1,3.1,0.8,4.2c1,1.2,3.3,1.3,4.7,0.8
					c0.2-0.1,0.4-0.3,0.4-0.5l0-1.3C61.4,12.5,61.1,12.2,60.8,12.3z"/>
				<path class="st0" d="M37.7,4.2c0,0-0.1,0.1-0.2,0.2c-0.1,0.1-0.2,0.2-0.2,0.2V4.1c0-0.3-0.2-0.5-0.5-0.5l-1.9,0
					c-0.2,0-0.3,0.1-0.3,0.3v10.6v0c0,0.3,0.2,0.5,0.5,0.5h1.7c0.3,0,0.5-0.2,0.5-0.5V7.1c0-0.5,0.8-1.1,1.9-1.1
					c0.9,0,1.9,0.3,1.9,1.6v6.9c0,0.3,0.2,0.5,0.5,0.5h1.7c0.3,0,0.5-0.2,0.5-0.5l0-6.8C43.7,3.4,39.2,3.2,37.7,4.2z"/>
				<path class="st0" d="M66.9,3.7h-0.2c-1.5,0-4.3,1-4.7,4.3c0,0-0.1,0.5-0.1,1.5c0,1.2,0.2,2.2,0.7,3.1c1,1.7,2.2,2.5,4.7,2.5
					c1,0,1.9-0.1,2.7-0.4c0.7-0.3,1.4-0.6,1.4-1.2c0-0.5,0-1.8,0-1.8c0-0.3-0.1-0.4-0.3-0.4c-0.4,0-0.5,0.3-0.8,0.4
					c-0.8,0.6-2,0.9-2.6,0.9c-2.6,0-3.2-1.4-3.1-2.4v0l6.2,0c0.4,0,0.7-0.2,0.7-0.6V8.6c0-0.8-0.1-1.5-0.3-2.1
					C70.5,4.6,69,3.7,66.9,3.7z M64.6,7.9c0-0.2,0.1-0.4,0.2-0.6C64.9,7,65,6.8,65.2,6.6c0.2-0.2,0.4-0.4,0.7-0.5
					C66.2,6,66.6,6,66.9,6C67.4,6,67.7,6,68,6.2c0.3,0.1,0.5,0.3,0.7,0.5c0.2,0.2,0.3,0.4,0.3,0.6c0.1,0.2,0.1,0.4,0.1,0.6H64.6z"/>
				<path class="st0" d="M12.4,1.4l-1.6,0.8c0,0.2-0.2,0.4-0.3,0.4L8,3.7c-0.2,0.1-0.4,0.1-0.6,0L5.8,4.5C5.5,4.6,5.5,4.7,5.6,5
					l4.6,10h0.1h0.2h8.4H19h0.2L12.9,1.6C12.8,1.3,12.7,1.3,12.4,1.4z M10.4,14.8L5.8,4.9C5.7,4.8,5.7,4.7,5.9,4.7l1.5-0.7
					C7.7,4,7.9,4,8.1,3.9l2.4-1.1c0.2-0.1,0.4-0.3,0.4-0.5l1.5-0.7c0.2-0.1,0.2-0.1,0.2,0.1l6.1,13.1H10.4z"/>
				<path class="st0" d="M17,8.8c-0.7-1.6-2.7-5.7-3.4-7.3c-0.1-0.2-0.2-0.4-0.3-0.6c-0.3-0.7-0.9-0.9-1.6-0.6
					c-0.2,0.1-0.3,0.1-0.5,0.2C9.4,1.3,7.7,2.1,5.9,2.9C5.7,3,5.5,3.1,5.3,3.2C4.8,3.5,4.6,4,4.8,4.6c0,0.2,0.1,0.3,0.2,0.5
					c1.2,2.5,3.1,6.7,4.6,9.9h0.3c-0.9-2-4.4-9.5-4.6-9.8c-0.2-0.4-0.1-0.8,0.4-1c0.6-0.3,1.2-0.6,1.9-0.9l0,0
					c0.1,0.1,0.2,0.2,0.3,0.1l2.4-1.1c0.1-0.1,0.2-0.2,0.1-0.3l0,0c0.6-0.3,1.2-0.6,1.9-0.9c0.5-0.2,0.8-0.1,1,0.4
					c0.9,1.9,4.3,9.3,6.3,13.5h0.3C18.9,12.9,17.9,10.8,17,8.8L17,8.8z M9.7,2L8.1,2.8c-0.1,0-0.2,0-0.2-0.1c0-0.1,0-0.2,0.1-0.2
					l1.6-0.7c0.1,0,0.2,0,0.2,0.1C9.8,1.9,9.8,2,9.7,2z"/>
			</g>
			<g>
				<path class="st0" d="M4.7,19.8v-2.5h1c0.8,0,1.3,0.5,1.3,1.2c0,0.7-0.5,1.2-1.3,1.2H4.7z M6.4,18.6c0-0.4-0.3-0.8-0.8-0.8H5.2
					v1.5h0.4C6.1,19.4,6.4,19,6.4,18.6z"/>
				<path class="st0" d="M9,19.8v-2.5h0.5v2.5H9z"/>
				<path class="st0" d="M11.4,19.5l0.3-0.4c0.2,0.2,0.4,0.3,0.8,0.3c0.3,0,0.4-0.1,0.4-0.3c0-0.4-1.4-0.1-1.4-1.1
					c0-0.4,0.4-0.7,0.9-0.7c0.4,0,0.7,0.1,1,0.3l-0.3,0.4c-0.2-0.2-0.5-0.3-0.7-0.3c-0.2,0-0.3,0.1-0.3,0.2c0,0.4,1.4,0.1,1.4,1
					c0,0.4-0.3,0.8-1,0.8C12,19.9,11.6,19.7,11.4,19.5z"/>
				<path class="st0" d="M15.9,19.8v-2h-0.7v-0.5h2v0.5h-0.7v2H15.9z"/>
				<path class="st0" d="M20.4,19.8L19.9,19h-0.4v0.9H19v-2.5h1.1c0.5,0,0.8,0.3,0.8,0.8c0,0.4-0.3,0.7-0.5,0.7l0.6,0.9H20.4z
					 M20.5,18.2c0-0.2-0.2-0.3-0.4-0.3h-0.5v0.7h0.5C20.3,18.5,20.5,18.4,20.5,18.2z"/>
				<path class="st0" d="M23,19.8v-2.5h0.5v2.5H23z"/>
				<path class="st0" d="M25.5,19.8v-2.5h1.3c0.5,0,0.7,0.3,0.7,0.6c0,0.3-0.2,0.5-0.4,0.6c0.3,0,0.5,0.3,0.5,0.6
					c0,0.4-0.2,0.7-0.7,0.7H25.5z M27,18.1c0-0.2-0.1-0.3-0.3-0.3h-0.7v0.5h0.7C26.9,18.4,27,18.2,27,18.1z M27,19.1
					c0-0.2-0.1-0.3-0.3-0.3h-0.7v0.6h0.7C26.9,19.4,27,19.3,27,19.1z"/>
				<path class="st0" d="M29.5,18.9v-1.5h0.5v1.5c0,0.3,0.2,0.6,0.6,0.6s0.6-0.2,0.6-0.6v-1.5h0.5v1.5c0,0.6-0.4,1-1.1,1
					C29.9,19.9,29.5,19.5,29.5,18.9z"/>
				<path class="st0" d="M33.8,19.8v-2.5h0.5v2.5H33.8z"/>
				<path class="st0" d="M36.4,19.8v-2.5h1c0.8,0,1.3,0.5,1.3,1.2c0,0.7-0.5,1.2-1.3,1.2H36.4z M38.1,18.6c0-0.4-0.3-0.8-0.8-0.8
					h-0.4v1.5h0.4C37.9,19.4,38.1,19,38.1,18.6z"/>
				<path class="st0" d="M40.5,18.6c0-0.7,0.5-1.3,1.3-1.3c0.7,0,1.3,0.5,1.3,1.3c0,0.7-0.5,1.3-1.3,1.3
					C41,19.9,40.5,19.3,40.5,18.6z M42.5,18.6c0-0.5-0.3-0.8-0.7-0.8c-0.5,0-0.7,0.3-0.7,0.8c0,0.5,0.3,0.8,0.7,0.8
					C42.2,19.4,42.5,19.1,42.5,18.6z"/>
				<path class="st0" d="M46.4,19.8L45.9,19h-0.4v0.9H45v-2.5h1.1c0.5,0,0.8,0.3,0.8,0.8c0,0.4-0.3,0.7-0.5,0.7l0.6,0.9H46.4z
					 M46.4,18.2c0-0.2-0.2-0.3-0.4-0.3h-0.5v0.7h0.5C46.3,18.5,46.4,18.4,46.4,18.2z"/>
				<path class="st0" d="M53.1,19.8L53,19.4h-1.1l-0.2,0.4h-0.6l0.9-2.5h0.7l0.9,2.5H53.1z M52.5,17.9L52.1,19h0.8L52.5,17.9z"/>
				<path class="st0" d="M55.4,18.9v-1.5H56v1.5c0,0.3,0.2,0.6,0.6,0.6c0.4,0,0.6-0.2,0.6-0.6v-1.5h0.5v1.5c0,0.6-0.4,1-1.1,1
					C55.8,19.9,55.4,19.5,55.4,18.9z"/>
				<path class="st0" d="M60.3,19.8v-2h-0.7v-0.5h2v0.5h-0.7v2H60.3z"/>
				<path class="st0" d="M63.2,18.6c0-0.7,0.5-1.3,1.3-1.3c0.7,0,1.3,0.5,1.3,1.3c0,0.7-0.5,1.3-1.3,1.3
					C63.7,19.9,63.2,19.3,63.2,18.6z M65.2,18.6c0-0.5-0.3-0.8-0.7-0.8c-0.5,0-0.7,0.3-0.7,0.8c0,0.5,0.3,0.8,0.7,0.8
					C64.9,19.4,65.2,19.1,65.2,18.6z"/>
				<path class="st0" d="M69.1,19.8L68.6,19h-0.4v0.9h-0.5v-2.5h1.1c0.5,0,0.8,0.3,0.8,0.8c0,0.4-0.3,0.7-0.5,0.7l0.6,0.9H69.1z
					 M69.1,18.2c0-0.2-0.2-0.3-0.4-0.3h-0.5v0.7h0.5C69,18.5,69.1,18.4,69.1,18.2z"/>
				<path class="st0" d="M71.6,19.8v-2.5h0.5v2.5H71.6z"/>
				<path class="st0" d="M74.1,19.8v-0.4l1.2-1.6h-1.2v-0.5H76v0.4l-1.2,1.6H76v0.5H74.1z"/>
				<path class="st0" d="M79.7,19.8l-0.2-0.4h-1.1l-0.2,0.4h-0.6l0.9-2.5h0.7l0.9,2.5H79.7z M79,17.9L78.6,19h0.8L79,17.9z"/>
				<path class="st0" d="M82.1,19.8v-2.5h1c0.8,0,1.3,0.5,1.3,1.2c0,0.7-0.5,1.2-1.3,1.2H82.1z M83.8,18.6c0-0.4-0.3-0.8-0.8-0.8
					h-0.4v1.5H83C83.5,19.4,83.8,19,83.8,18.6z"/>
				<path class="st0" d="M86.2,18.6c0-0.7,0.5-1.3,1.3-1.3c0.7,0,1.3,0.5,1.3,1.3c0,0.7-0.5,1.3-1.3,1.3
					C86.7,19.9,86.2,19.3,86.2,18.6z M88.2,18.6c0-0.5-0.3-0.8-0.7-0.8c-0.5,0-0.7,0.3-0.7,0.8c0,0.5,0.3,0.8,0.7,0.8
					C87.9,19.4,88.2,19.1,88.2,18.6z"/>
			</g>
		</g>
	</g>
	<g>
		<path class="st0" d="M129.9,16.6c-1.5-0.2-1-1.5,0-3.2c0.3,0,1.4,0,1.4,0h7.6c0,0,0.4-0.8,1.6-3c2-3.7-0.2-5.8-3.9-5.9
			c-5.3-0.1-7.1,2.5-9,5.9c-0.8,1.4-1.7,3.1-2.1,4.4c-0.5,1.7-0.1,2.8,0.6,3.6c0.7,0.8,1.8,1.2,2.7,1.2c2.5,0.2,6.3-0.2,6.3-0.2
			l1.5-2.9C136.6,16.5,131.7,16.8,129.9,16.6 M135.7,7.4c1,0,2.3,0.4,1.5,1.8c-0.5,0.9-0.8,1.5-0.8,1.5h-5.4
			C132.6,8.1,133.7,7.4,135.7,7.4"/>
		<path class="st0" d="M163,16.6c-1.5-0.2-1-1.5,0-3.2c0.3,0,1.4,0,1.4,0h7.6c0,0,0.4-0.8,1.6-3c2-3.7-0.2-5.8-3.9-5.9
			c-5.3-0.1-7.1,2.5-9,5.9c-0.8,1.4-1.7,3.1-2.1,4.4c-0.5,1.7-0.1,2.8,0.6,3.6c0.7,0.8,1.8,1.2,2.7,1.2c2.5,0.2,6.3-0.2,6.3-0.2
			l1.5-2.9C169.6,16.5,164.8,16.8,163,16.6 M168.8,7.4c1,0,2.3,0.4,1.5,1.8c-0.5,0.9-0.8,1.5-0.8,1.5h-5.4
			C165.6,8.1,166.8,7.4,168.8,7.4"/>
		<polygon class="st0" points="180.4,0.4 170.3,19.4 174.2,19.4 184.2,0.4 		"/>
		<path class="st0" d="M161.6,4.7c0,0-2-0.2-4.3-0.2c-1.7,0-2.9,0.2-3.7,0.5v0c-3.2,1-4.4,3.4-5.5,5.4c-0.7,1.3-1.6,2.9-2.1,4.4
			c-1,3.4,1.6,4.7,3.3,4.8c2.5,0.2,5.8-0.2,5.8-0.2l1.5-2.9c0,0-4.2,0.4-6,0.1c-0.6-0.1-0.9-0.4-0.9-0.9c0-0.6,0.3-1.3,0.8-2.3
			c0.5-1,1.5-2.8,1.5-2.8c0.5-1,1-1.5,1.6-2.1c1-0.8,2.1-1,3.7-1c1.3,0,2.8,0.2,2.8,0.2L161.6,4.7z"/>
		<path class="st0" d="M126.2,4.6l2.2-4.2l-3.9,0l-2.2,4.2l-2.6,0l-1.5,2.9l1.4,0l1.2,0c0,0-1.5,3-2.7,5.2c-0.9,1.7-1.5,2.9-1.4,4.2
			c0,0.7,0.3,1.4,0.7,1.8c1.2,1.2,3.1,1,4.9,0.9l1.6-3c-1.1,0.1-2,0-2.3,0c-1-0.1-1.2-0.6-0.8-1.4c0.8-1.7,3.9-7.6,3.9-7.6l1.3,0
			l1.7,0l1.6-2.9L126.2,4.6z"/>
		<polygon class="st0" points="147.6,0.4 137.5,19.4 141.5,19.4 151.5,0.4 		"/>
	</g>
</g>
</svg>
