<?xml version="1.0" encoding="utf-8"?>
<!-- Generator: Adobe Illustrator 28.3.0, SVG Export Plug-In . SVG Version: 6.00 Build 0)  -->
<svg version="1.1" id="Capa_1" xmlns="http://www.w3.org/2000/svg" xmlns:xlink="http://www.w3.org/1999/xlink" x="0px" y="0px"
	 viewBox="0 0 300 100" style="enable-background:new 0 0 300 100;" xml:space="preserve">
<style type="text/css">
	.st0{fill:#002F87;}
</style>
<g>
	<g>
		<path class="st0" d="M193.5,31.3L182,33.9L181.8,22l20-5.5h9.5l-17.2,64.1h-13.8L193.5,31.3z"/>
		<path class="st0" d="M210.7,66h14.7l-3.9,14.5h-14.7L210.7,66z"/>
		<path class="st0" d="M245.9,80.7c-2.3-0.6-4.5-1.4-6.6-2.4c-2.1-1-4-2.2-5.7-3.6c-1.7-1.4-3.1-2.9-4.2-4.5l9.8-8.3
			c2.1,2.3,4.4,4,6.8,5.2c2.4,1.2,5.1,1.8,8.1,1.8c1.9,0,3.6-0.3,5.2-0.8c1.6-0.5,2.9-1.2,4.1-2.1c1.2-0.9,2-2,2.7-3.2
			c0.6-1.2,1-2.5,1-3.8c0-2.3-1-4.2-2.9-5.8c-1.9-1.6-4.9-2.4-9-2.4c-1.4,0-2.9,0.2-4.4,0.6c-1.5,0.4-2.9,0.9-4.1,1.4l-7.1-5.7
			l9.9-30.2h38.6l-3.4,12.3h-26L255.1,40c2.2-0.5,4.4-0.7,6.5-0.7c2.9,0,5.6,0.4,8,1.3c2.4,0.8,4.5,2.1,6.3,3.6
			c1.8,1.6,3.1,3.5,4.1,5.7c1,2.2,1.5,4.8,1.5,7.5c0,3.2-0.7,6.2-2,9.1c-1.3,2.9-3.3,5.5-5.8,7.7s-5.5,4-9,5.3s-7.4,2-11.8,2
			C250.6,81.6,248.3,81.3,245.9,80.7z"/>
	</g>
	<g>
		<path class="st0" d="M24.5,29.5l3.1-12.3h5.8c1.5,0,2.6,0.3,3.2,0.8c0.7,0.6,1,1.3,1,2.3c0,0.3-0.1,0.6-0.1,0.9
			c-0.3,1.2-1,2.2-2,2.9c-1,0.8-2.4,1.1-4.1,1.1h-2.9l-1,4.2H24.5z M32,23c0.7,0,1.3-0.1,1.8-0.4c0.4-0.3,0.7-0.7,0.9-1.3
			c0-0.1,0.1-0.3,0.1-0.4c0-0.4-0.1-0.7-0.5-0.9c-0.3-0.2-0.8-0.3-1.4-0.3h-2.9L29.1,23H32z"/>
		<path class="st0" d="M40.3,17.2h2.9l-2.5,10h6.7l-0.6,2.4h-9.6L40.3,17.2z"/>
		<path class="st0" d="M55.8,17.2h3.6l1.6,12.3h-3l-0.3-2.4h-5.2l-1.5,2.4h-3L55.8,17.2z M53.9,24.9h3.6l-0.6-4.8L53.9,24.9z"/>
		<path class="st0" d="M65.2,17.2h3.3l3.6,7.9l1.9-7.9h2.9l-3.1,12.3h-3.2L67,21.7L65,29.5h-2.9L65.2,17.2z"/>
	</g>
	<g>
		<path class="st0" d="M85,17.3h10.2l-0.6,2.4H91l-2.5,10h-2.9l2.5-10h-3.6L85,17.3z"/>
		<path class="st0" d="M96.8,17.3H107l-0.6,2.4h-7.3l-0.7,2.6h6.1l-0.6,2.4h-6.1l-0.6,2.6h7.3l-0.6,2.4H93.7L96.8,17.3z"/>
		<path class="st0" d="M109.1,17.3h2.9l-2.5,10h6.4l-0.6,2.4H106L109.1,17.3z"/>
		<path class="st0" d="M117.8,24.7c0-0.4,0.1-0.8,0.2-1.3c0.3-1.2,0.8-2.2,1.7-3.2c0.8-1,1.8-1.8,2.9-2.3c1.1-0.6,2.3-0.9,3.5-0.9
			c1,0,1.9,0.2,2.7,0.7c0.8,0.5,1.4,1.1,1.8,1.9l-2.4,1.5c-0.2-0.5-0.6-0.9-1-1.2c-0.4-0.3-1-0.4-1.6-0.4c-0.7,0-1.4,0.2-2,0.5
			c-0.7,0.4-1.2,0.8-1.7,1.5c-0.5,0.6-0.8,1.3-1,1.9c-0.1,0.3-0.1,0.6-0.1,0.8c0,0.6,0.1,1.1,0.3,1.6c0.2,0.5,0.6,0.8,1,1.1
			c0.4,0.3,1,0.4,1.6,0.4c0.6,0,1.2-0.1,1.8-0.4c0.6-0.3,1.1-0.7,1.6-1.2l1.6,1.6c-0.8,0.8-1.7,1.4-2.7,1.9c-1,0.5-2,0.7-3.1,0.7
			c-1,0-1.9-0.2-2.7-0.7c-0.8-0.4-1.4-1-1.8-1.8C118,26.6,117.8,25.7,117.8,24.7z"/>
		<path class="st0" d="M132.8,17.3H143l-0.6,2.4h-7.3l-0.7,2.6h6.1l-0.6,2.4h-6.1l-0.6,2.6h7.3l-0.6,2.4h-10.2L132.8,17.3z"/>
		<path class="st0" d="M145.2,17.3h2.9l-2.5,10h5.9l-0.6,2.4h-8.8L145.2,17.3z"/>
	</g>
	<g>
		<path class="st0" d="M11.9,78.8l9.6-38.9h18.4c4.6,0,8.1,0.9,10.3,2.7c2.2,1.8,3.2,4.2,3.1,7.2c0,0.9-0.2,1.9-0.4,2.9
			c-0.9,3.8-3.1,6.9-6.4,9.3c-3.3,2.4-7.6,3.6-13,3.6h-9.1l-3.3,13.2H11.9z M35.4,58c2.3,0,4.2-0.5,5.6-1.4c1.4-0.9,2.3-2.3,2.8-4
			c0.1-0.4,0.2-0.9,0.2-1.3c0-1.3-0.4-2.3-1.4-3c-1-0.7-2.5-1-4.5-1h-9.1L26.3,58H35.4z"/>
		<path class="st0" d="M61.7,39.8h9.2l-7.8,31.4h21.2l-1.9,7.5H52L61.7,39.8z"/>
		<path class="st0" d="M89.3,62.5l5.6-22.6h9.2l-5.6,22.3c-0.2,1-0.3,1.9-0.4,2.7c-0.1,2,0.4,3.7,1.5,4.9c1.1,1.2,2.6,1.8,4.7,1.8
			c2.5,0,4.7-0.8,6.6-2.5c1.9-1.7,3.1-3.8,3.8-6.5l5.7-22.6h9.2L124,62.1c-1,3.9-2.5,7.2-4.8,9.8c-2.2,2.6-4.8,4.5-7.7,5.7
			c-2.9,1.2-6,1.8-9.1,1.8c-4.2,0-7.5-1-10.1-3.1c-2.6-2.1-3.8-5.2-3.7-9.4C88.7,65.6,88.9,64.1,89.3,62.5z"/>
		<path class="st0" d="M133.3,67.4c1.3,1.6,3.1,2.7,5.3,3.5c2.2,0.8,4.4,1.1,6.6,1.1c2.5,0,4.6-0.5,6.4-1.4c1.8-0.9,2.7-2.1,2.7-3.5
			c0-1.2-0.6-2.1-2-2.7c-1.4-0.6-3.5-1.3-6.4-1.9c-2.8-0.7-5.1-1.3-6.9-2c-1.8-0.6-3.3-1.6-4.5-2.9c-1.2-1.3-1.8-2.9-1.7-5
			c0-0.6,0.1-1.4,0.4-2.3c0.6-2.4,1.8-4.5,3.7-6.2c1.9-1.7,4.1-3,6.7-3.8c2.6-0.9,5.4-1.3,8.3-1.3c3.7,0,6.9,0.5,9.5,1.5
			c2.7,1,4.6,2.4,5.8,4.3l-5.6,6.2c-1.3-1.6-3-2.8-5.1-3.5c-2.1-0.8-4.2-1.1-6.4-1.1c-2.4,0-4.3,0.4-5.9,1.3
			c-1.6,0.9-2.4,2.1-2.4,3.5c0,0.9,0.3,1.6,1,2.1c0.7,0.6,1.6,1,2.7,1.3c1.1,0.3,2.6,0.7,4.7,1.2c2.8,0.6,5.1,1.3,6.9,1.9
			c1.8,0.6,3.3,1.6,4.5,2.9c1.2,1.3,1.8,3,1.7,5c0,0.7-0.1,1.5-0.4,2.4c-0.6,2.4-1.9,4.5-3.8,6.3c-1.9,1.7-4.3,3-7,3.9
			c-2.7,0.9-5.6,1.3-8.5,1.3c-3.7,0-7-0.5-9.9-1.6c-2.8-1.1-4.9-2.5-6.2-4.3L133.3,67.4z"/>
	</g>
</g>
</svg>
