<?xml version="1.0" encoding="utf-8"?>
<!-- Generator: Adobe Illustrator 28.3.0, SVG Export Plug-In . SVG Version: 6.00 Build 0)  -->
<svg version="1.1" id="Capa_1" xmlns="http://www.w3.org/2000/svg" xmlns:xlink="http://www.w3.org/1999/xlink" x="0px" y="0px"
	 viewBox="0 0 300 100" style="enable-background:new 0 0 300 100;" xml:space="preserve">
<style type="text/css">
	.st0{fill:#002F87;}
</style>
<g>
	<g>
		<path class="st0" d="M232.2,65.8h-29.4l-1.4-10.4l43.9-40h13.6l-10.5,39h8.5l-3.1,11.4h-8.5l-3.6,13.7h-13.2L232.2,65.8z
			 M235.3,54.5l5.5-20.4l-21.6,20.4H235.3z"/>
	</g>
	<g>
		<g>
			<path class="st0" d="M52.8,28.5l3.1-12.3h5.8c1.5,0,2.6,0.3,3.2,0.8c0.7,0.6,1,1.3,1,2.3c0,0.3-0.1,0.6-0.1,0.9
				c-0.3,1.2-1,2.2-2,2.9c-1,0.8-2.4,1.1-4.1,1.1h-2.9l-1,4.2H52.8z M60.2,22c0.7,0,1.3-0.1,1.8-0.4c0.4-0.3,0.7-0.7,0.9-1.3
				c0-0.1,0.1-0.3,0.1-0.4c0-0.4-0.1-0.7-0.5-0.9c-0.3-0.2-0.8-0.3-1.4-0.3h-2.9L57.3,22H60.2z"/>
			<path class="st0" d="M68.5,16.2h2.9l-2.5,10h6.7l-0.6,2.4h-9.6L68.5,16.2z"/>
			<path class="st0" d="M84.1,16.2h3.6l1.6,12.3h-3L86,26.1h-5.2l-1.5,2.4h-3L84.1,16.2z M82.2,23.8h3.6L85.2,19L82.2,23.8z"/>
			<path class="st0" d="M93.4,16.2h3.3l3.6,7.9l1.9-7.9h2.9l-3.1,12.3h-3.2l-3.7-7.9l-1.9,7.9h-2.9L93.4,16.2z"/>
		</g>
		<g>
			<path class="st0" d="M113.2,16.2h10.2l-0.6,2.4h-3.6l-2.5,10h-2.9l2.5-10h-3.6L113.2,16.2z"/>
			<path class="st0" d="M125,16.2h10.2l-0.6,2.4h-7.3l-0.7,2.6h6.1l-0.6,2.4h-6.1l-0.6,2.6h7.3l-0.6,2.4H122L125,16.2z"/>
			<path class="st0" d="M137.3,16.2h2.9l-2.5,10h6.4l-0.6,2.4h-9.3L137.3,16.2z"/>
			<path class="st0" d="M146,23.7c0-0.4,0.1-0.8,0.2-1.3c0.3-1.2,0.8-2.2,1.7-3.2c0.8-1,1.8-1.8,2.9-2.3c1.1-0.6,2.3-0.9,3.5-0.9
				c1,0,1.9,0.2,2.7,0.7c0.8,0.5,1.4,1.1,1.8,1.9l-2.4,1.5c-0.2-0.5-0.6-0.9-1-1.2c-0.4-0.3-1-0.4-1.6-0.4c-0.7,0-1.4,0.2-2,0.5
				c-0.7,0.4-1.2,0.8-1.7,1.5c-0.5,0.6-0.8,1.3-1,1.9c-0.1,0.3-0.1,0.6-0.1,0.8c0,0.6,0.1,1.1,0.3,1.6c0.2,0.5,0.6,0.8,1,1.1
				c0.4,0.3,1,0.4,1.6,0.4c0.6,0,1.2-0.1,1.8-0.4c0.6-0.3,1.1-0.7,1.6-1.2l1.6,1.6c-0.8,0.8-1.7,1.4-2.7,1.9c-1,0.5-2,0.7-3.1,0.7
				c-1,0-1.9-0.2-2.7-0.7c-0.8-0.4-1.4-1-1.8-1.8C146.2,25.6,146,24.7,146,23.7z"/>
			<path class="st0" d="M161.1,16.2h10.2l-0.6,2.4h-7.3l-0.7,2.6h6.1l-0.6,2.4h-6.1l-0.6,2.6h7.3l-0.6,2.4H158L161.1,16.2z"/>
			<path class="st0" d="M173.4,16.2h2.9l-2.5,10h5.9l-0.6,2.4h-8.8L173.4,16.2z"/>
		</g>
		<g>
			<path class="st0" d="M40.2,77.8l9.6-38.9h18.4c4.6,0,8.1,0.9,10.3,2.7c2.2,1.8,3.2,4.2,3.1,7.2c0,0.9-0.2,1.9-0.4,2.9
				c-0.9,3.8-3.1,6.9-6.4,9.3c-3.3,2.4-7.6,3.6-13,3.6h-9.1l-3.3,13.2H40.2z M63.6,57c2.3,0,4.2-0.5,5.6-1.4c1.4-0.9,2.3-2.3,2.8-4
				c0.1-0.4,0.2-0.9,0.2-1.3c0-1.3-0.4-2.3-1.4-3c-1-0.7-2.5-1-4.5-1h-9.1L54.5,57H63.6z"/>
			<path class="st0" d="M89.9,38.8h9.2l-7.8,31.4h21.2l-1.9,7.5H80.3L89.9,38.8z"/>
			<path class="st0" d="M117.5,61.5l5.6-22.6h9.2l-5.6,22.3c-0.2,1-0.3,1.9-0.4,2.7c-0.1,2,0.4,3.7,1.5,4.9c1.1,1.2,2.6,1.8,4.7,1.8
				c2.5,0,4.7-0.8,6.6-2.5c1.9-1.7,3.1-3.8,3.8-6.5l5.7-22.6h9.2l-5.6,22.3c-1,3.9-2.5,7.2-4.8,9.8c-2.2,2.6-4.8,4.5-7.7,5.7
				c-2.9,1.2-6,1.8-9.1,1.8c-4.2,0-7.5-1-10.1-3.1c-2.6-2.1-3.8-5.2-3.7-9.4C116.9,64.5,117.1,63,117.5,61.5z"/>
			<path class="st0" d="M161.5,66.4c1.3,1.6,3.1,2.7,5.3,3.5c2.2,0.8,4.4,1.1,6.6,1.1c2.5,0,4.6-0.5,6.4-1.4
				c1.8-0.9,2.7-2.1,2.7-3.5c0-1.2-0.6-2.1-2-2.7c-1.4-0.6-3.5-1.3-6.4-1.9c-2.8-0.7-5.1-1.3-6.9-2c-1.8-0.6-3.3-1.6-4.5-2.9
				c-1.2-1.3-1.8-2.9-1.7-5c0-0.6,0.1-1.4,0.4-2.3c0.6-2.4,1.8-4.5,3.7-6.2c1.9-1.7,4.1-3,6.7-3.8c2.6-0.9,5.4-1.3,8.3-1.3
				c3.7,0,6.9,0.5,9.5,1.5c2.7,1,4.6,2.4,5.8,4.3l-5.6,6.2c-1.3-1.6-3-2.8-5.1-3.5c-2.1-0.8-4.2-1.1-6.4-1.1c-2.4,0-4.3,0.4-5.9,1.3
				c-1.6,0.9-2.4,2.1-2.4,3.5c0,0.9,0.3,1.6,1,2.1c0.7,0.6,1.6,1,2.7,1.3c1.1,0.3,2.6,0.7,4.7,1.2c2.8,0.6,5.1,1.3,6.9,1.9
				c1.8,0.6,3.3,1.6,4.5,2.9c1.2,1.3,1.8,3,1.7,5c0,0.7-0.1,1.5-0.4,2.4c-0.6,2.4-1.9,4.5-3.8,6.3c-1.9,1.7-4.3,3-7,3.9
				c-2.7,0.9-5.6,1.3-8.5,1.3c-3.7,0-7-0.5-9.9-1.6c-2.8-1.1-4.9-2.5-6.2-4.3L161.5,66.4z"/>
		</g>
	</g>
</g>
</svg>
