<?xml version="1.0" encoding="utf-8"?>
<!-- Generator: Adobe Illustrator 28.3.0, SVG Export Plug-In . SVG Version: 6.00 Build 0)  -->
<svg version="1.1" id="Capa_1" xmlns="http://www.w3.org/2000/svg" xmlns:xlink="http://www.w3.org/1999/xlink" x="0px" y="0px"
	 viewBox="0 0 530.9 235.1" style="enable-background:new 0 0 530.9 235.1;" xml:space="preserve">
<style type="text/css">
	.st0{fill:#1E3C72;}
	.st1{fill:#E65930;}
</style>
<g>
	<g>
		<g>
			<path class="st0" d="M140.8,196.8c-0.5,1-1.1,1.8-1.9,2.4c-0.8,0.7-1.8,1.1-2.8,1.5c-1.1,0.3-2.2,0.5-3.5,0.5h-3.7v6.6H124v-22.1
				h9c1.3,0,2.5,0.2,3.6,0.6c1,0.4,1.9,0.9,2.7,1.6c0.7,0.7,1.3,1.5,1.7,2.4c0.4,0.9,0.6,2,0.6,3.1v0.1
				C141.5,194.7,141.2,195.8,140.8,196.8z M136.5,193.4c0-1.1-0.4-1.9-1.1-2.5c-0.7-0.6-1.7-0.9-2.9-0.9h-3.8v6.8h3.9
				c1.2,0,2.2-0.3,2.8-1C136.2,195.2,136.5,194.4,136.5,193.4L136.5,193.4z"/>
			<path class="st0" d="M145.1,207.8v-22.1h4.9v17.7h11v4.4H145.1z"/>
			<path class="st0" d="M181.1,207.8l-2-5h-9.4l-2,5h-5l9.5-22.3h4.5l9.5,22.3H181.1z M174.4,191.4l-2.9,7.2h5.9L174.4,191.4z"/>
			<path class="st0" d="M188.9,207.8v-3.7l12.2-14.2h-11.8v-4.3h18v3.7l-12.2,14.2h12.2v4.3H188.9z"/>
			<path class="st0" d="M233.6,201.2c-0.6,1.4-1.4,2.6-2.4,3.6c-1,1-2.3,1.9-3.7,2.5c-1.4,0.6-3,0.9-4.7,0.9s-3.3-0.3-4.7-0.9
				c-1.4-0.6-2.7-1.4-3.7-2.4c-1-1-1.9-2.2-2.4-3.6c-0.6-1.4-0.9-2.9-0.9-4.4v-0.1c0-1.6,0.3-3.1,0.9-4.4c0.6-1.4,1.4-2.6,2.4-3.6
				c1-1,2.3-1.9,3.7-2.5c1.4-0.6,3-0.9,4.7-0.9c1.7,0,3.3,0.3,4.7,0.9c1.4,0.6,2.7,1.4,3.7,2.4c1,1,1.9,2.2,2.4,3.6
				c0.6,1.4,0.9,2.9,0.9,4.4v0.1C234.5,198.3,234.2,199.8,233.6,201.2z M229.4,196.8c0-0.9-0.2-1.8-0.5-2.7
				c-0.3-0.8-0.8-1.6-1.4-2.2c-0.6-0.6-1.3-1.1-2.1-1.5c-0.8-0.4-1.7-0.6-2.7-0.6c-1,0-1.9,0.2-2.7,0.5c-0.8,0.4-1.5,0.9-2.1,1.5
				c-0.6,0.6-1,1.4-1.4,2.2c-0.3,0.8-0.5,1.7-0.5,2.7v0.1c0,0.9,0.2,1.8,0.5,2.7c0.3,0.8,0.8,1.6,1.4,2.2c0.6,0.6,1.3,1.1,2.1,1.5
				c0.8,0.4,1.7,0.6,2.7,0.6c1,0,1.9-0.2,2.7-0.5c0.8-0.4,1.5-0.9,2.1-1.5c0.6-0.6,1-1.4,1.4-2.2
				C229.3,198.7,229.4,197.8,229.4,196.8L229.4,196.8z"/>
			<path class="st0" d="M253.2,190.5c-0.7,0.5-1.4,1.2-2.2,2.2l-3.4-2.7c0.5-0.7,1.1-1.4,1.7-2c0.6-0.6,1.2-1.1,1.8-1.4
				c0.6-0.4,1.4-0.7,2.1-0.9c0.8-0.2,1.7-0.3,2.7-0.3c1.2,0,2.2,0.2,3.2,0.5c0.9,0.3,1.7,0.8,2.4,1.4s1.2,1.3,1.5,2.2
				c0.3,0.8,0.5,1.8,0.5,2.8c0,0.9-0.1,1.8-0.4,2.5c-0.2,0.7-0.6,1.4-1.1,2.1c-0.5,0.7-1.1,1.3-1.8,1.9c-0.7,0.6-1.6,1.3-2.6,2.1
				l-3.6,2.8h9.6v4.2h-16.4V204l7.4-6c0.7-0.6,1.3-1.1,1.8-1.5c0.5-0.5,0.9-0.9,1.2-1.3c0.3-0.4,0.5-0.8,0.7-1.2
				c0.1-0.4,0.2-0.8,0.2-1.3c0-0.9-0.3-1.7-0.8-2.1c-0.5-0.5-1.3-0.7-2.1-0.7C254.6,189.8,253.8,190,253.2,190.5z"/>
			<path class="st0" d="M282.6,185.5v13.6h3v4h-3v4.8H278V203h-10.8l-0.8-3.4l12.1-14.1H282.6z M278,192.2l-5.9,6.9h5.9V192.2z"/>
			<path class="st0" d="M316.6,207.8v-14.4l-6.2,9.5h-0.1l-6.2-9.4v14.3h-4.8v-22.1h5.2l5.8,9.4l5.8-9.4h5.2v22.1H316.6z"/>
			<path class="st0" d="M326.7,207.8v-22.1h16.7v4.3h-11.9v4.5H342v4.3h-10.4v4.6h12v4.3H326.7z"/>
			<path class="st0" d="M363.3,204.2c-0.4,0.9-1,1.6-1.7,2.1c-0.7,0.6-1.6,1-2.5,1.3c-1,0.3-2.1,0.5-3.3,0.5c-1.7,0-3.3-0.3-5-0.9
				c-1.6-0.6-3.1-1.5-4.4-2.7l2.9-3.4c1,0.8,2,1.5,3.1,2c1.1,0.5,2.2,0.7,3.5,0.7c1,0,1.8-0.2,2.4-0.6c0.6-0.4,0.8-0.9,0.8-1.5v-0.1
				c0-0.3-0.1-0.6-0.2-0.8c-0.1-0.2-0.3-0.5-0.7-0.7c-0.3-0.2-0.8-0.4-1.4-0.6c-0.6-0.2-1.3-0.4-2.3-0.7c-1.1-0.3-2.1-0.6-3-0.9
				c-0.9-0.3-1.7-0.8-2.3-1.2c-0.6-0.5-1.1-1.1-1.5-1.8c-0.3-0.7-0.5-1.7-0.5-2.7V192c0-1,0.2-1.9,0.6-2.7c0.4-0.8,0.9-1.5,1.6-2.1
				c0.7-0.6,1.5-1,2.4-1.4c0.9-0.3,2-0.5,3.1-0.5c1.6,0,3.1,0.2,4.5,0.7c1.4,0.5,2.6,1.2,3.7,2.1l-2.5,3.7c-1-0.7-2-1.2-2.9-1.6
				c-0.9-0.4-1.9-0.6-2.8-0.6c-0.9,0-1.7,0.2-2.1,0.6c-0.5,0.4-0.7,0.8-0.7,1.4v0.1c0,0.4,0.1,0.7,0.2,0.9c0.1,0.3,0.4,0.5,0.7,0.7
				c0.4,0.2,0.9,0.4,1.5,0.6c0.6,0.2,1.4,0.4,2.4,0.7c1.1,0.3,2.1,0.6,3,1c0.9,0.4,1.6,0.8,2.2,1.3c0.6,0.5,1.1,1.1,1.4,1.8
				c0.3,0.7,0.5,1.5,0.5,2.5v0.1C363.9,202.4,363.7,203.3,363.3,204.2z"/>
			<path class="st0" d="M368.1,207.8v-22.1h16.7v4.3h-11.9v4.5h10.4v4.3h-10.4v4.6h12v4.3H368.1z"/>
			<path class="st0" d="M404.7,204.2c-0.4,0.9-1,1.6-1.7,2.1c-0.7,0.6-1.6,1-2.5,1.3c-1,0.3-2.1,0.5-3.3,0.5c-1.7,0-3.3-0.3-5-0.9
				c-1.6-0.6-3.1-1.5-4.4-2.7l2.9-3.4c1,0.8,2,1.5,3.1,2c1.1,0.5,2.2,0.7,3.5,0.7c1,0,1.8-0.2,2.4-0.6c0.6-0.4,0.8-0.9,0.8-1.5v-0.1
				c0-0.3-0.1-0.6-0.2-0.8c-0.1-0.2-0.3-0.5-0.7-0.7c-0.3-0.2-0.8-0.4-1.4-0.6c-0.6-0.2-1.3-0.4-2.3-0.7c-1.1-0.3-2.1-0.6-3-0.9
				c-0.9-0.3-1.7-0.8-2.3-1.2c-0.6-0.5-1.1-1.1-1.5-1.8c-0.3-0.7-0.5-1.7-0.5-2.7V192c0-1,0.2-1.9,0.6-2.7c0.4-0.8,0.9-1.5,1.6-2.1
				c0.7-0.6,1.5-1,2.4-1.4c0.9-0.3,2-0.5,3.1-0.5c1.6,0,3.1,0.2,4.5,0.7c1.4,0.5,2.6,1.2,3.7,2.1l-2.5,3.7c-1-0.7-2-1.2-2.9-1.6
				c-0.9-0.4-1.9-0.6-2.8-0.6c-0.9,0-1.7,0.2-2.1,0.6c-0.5,0.4-0.7,0.8-0.7,1.4v0.1c0,0.4,0.1,0.7,0.2,0.9s0.4,0.5,0.7,0.7
				c0.4,0.2,0.9,0.4,1.5,0.6c0.6,0.2,1.4,0.4,2.4,0.7c1.1,0.3,2.1,0.6,3,1c0.9,0.4,1.6,0.8,2.2,1.3c0.6,0.5,1.1,1.1,1.4,1.8
				c0.3,0.7,0.5,1.5,0.5,2.5v0.1C405.3,202.4,405.1,203.3,404.7,204.2z"/>
		</g>
	</g>
	<g>
		<path class="st1" d="M196.6,38.4c-0.5,1-1.1,1.8-1.9,2.4c-0.8,0.7-1.8,1.1-2.9,1.5c-1.1,0.3-2.3,0.5-3.5,0.5h-3.7v6.7h-4.9V27.2
			h9.1c1.3,0,2.5,0.2,3.6,0.6s1.9,0.9,2.7,1.6c0.7,0.7,1.3,1.5,1.7,2.4c0.4,0.9,0.6,2,0.6,3.1V35C197.3,36.3,197.1,37.4,196.6,38.4z
			 M192.3,35c0-1.1-0.4-1.9-1.1-2.5c-0.7-0.6-1.7-0.9-2.9-0.9h-3.8v6.8h3.9c1.2,0,2.2-0.3,2.9-1C192,36.8,192.3,36,192.3,35
			L192.3,35z"/>
		<path class="st1" d="M222.6,42.8c-0.6,1.4-1.4,2.6-2.5,3.6c-1,1-2.3,1.9-3.7,2.5c-1.4,0.6-3,0.9-4.7,0.9s-3.3-0.3-4.7-0.9
			c-1.4-0.6-2.7-1.4-3.7-2.4c-1-1-1.9-2.2-2.4-3.6c-0.6-1.4-0.9-2.9-0.9-4.5v-0.1c0-1.6,0.3-3.1,0.9-4.5c0.6-1.4,1.4-2.6,2.5-3.6
			c1-1,2.3-1.9,3.7-2.5c1.4-0.6,3-0.9,4.7-0.9s3.3,0.3,4.7,0.9c1.4,0.6,2.7,1.4,3.7,2.4c1,1,1.9,2.2,2.4,3.6
			c0.6,1.4,0.9,2.9,0.9,4.5v0.1C223.5,39.9,223.2,41.4,222.6,42.8z M218.4,38.3c0-1-0.2-1.8-0.5-2.7c-0.3-0.8-0.8-1.6-1.4-2.2
			c-0.6-0.6-1.3-1.1-2.1-1.5c-0.8-0.4-1.7-0.6-2.7-0.6c-1,0-1.9,0.2-2.7,0.5c-0.8,0.4-1.5,0.9-2.1,1.5c-0.6,0.6-1,1.4-1.4,2.2
			c-0.3,0.8-0.5,1.7-0.5,2.7v0.1c0,1,0.2,1.8,0.5,2.7c0.3,0.8,0.8,1.6,1.4,2.2c0.6,0.6,1.3,1.1,2.1,1.5c0.8,0.4,1.7,0.6,2.7,0.6
			c1,0,1.9-0.2,2.7-0.5c0.8-0.4,1.5-0.9,2.1-1.5c0.6-0.6,1-1.4,1.4-2.2C218.2,40.2,218.4,39.3,218.4,38.3L218.4,38.3z"/>
		<path class="st1" d="M241.3,49.4l-4.8-7.1h-3.8v7.1h-4.9V27.2H238c2.6,0,4.7,0.6,6.2,1.9c1.5,1.3,2.2,3.1,2.2,5.4v0.1
			c0,1.8-0.4,3.3-1.3,4.4c-0.9,1.1-2,2-3.4,2.5l5.4,7.9H241.3z M241.4,34.8c0-1.1-0.3-1.8-1-2.4c-0.7-0.5-1.6-0.8-2.8-0.8h-4.8V38
			h4.9c1.2,0,2.1-0.3,2.8-0.9C241.1,36.6,241.4,35.8,241.4,34.8L241.4,34.8z"/>
		<path class="st1" d="M275.7,45.8c-0.4,0.9-1,1.6-1.7,2.2c-0.7,0.6-1.6,1-2.6,1.3c-1,0.3-2.1,0.5-3.3,0.5c-1.7,0-3.3-0.3-5-0.9
			c-1.6-0.6-3.1-1.5-4.4-2.7l2.9-3.5c1,0.8,2.1,1.5,3.1,2c1.1,0.5,2.2,0.7,3.5,0.7c1,0,1.8-0.2,2.4-0.6c0.6-0.4,0.8-0.9,0.8-1.5
			v-0.1c0-0.3-0.1-0.6-0.2-0.8c-0.1-0.2-0.3-0.5-0.7-0.7c-0.3-0.2-0.8-0.4-1.4-0.6c-0.6-0.2-1.3-0.4-2.3-0.7
			c-1.1-0.3-2.1-0.6-3.1-0.9c-0.9-0.3-1.7-0.8-2.3-1.3c-0.6-0.5-1.1-1.1-1.5-1.9c-0.3-0.7-0.5-1.7-0.5-2.8v-0.1c0-1,0.2-1.9,0.6-2.7
			c0.4-0.8,0.9-1.5,1.6-2.1c0.7-0.6,1.5-1,2.4-1.4c0.9-0.3,2-0.5,3.1-0.5c1.6,0,3.1,0.2,4.5,0.7c1.4,0.5,2.6,1.2,3.8,2.1l-2.5,3.7
			c-1-0.7-2-1.2-2.9-1.6c-1-0.4-1.9-0.6-2.9-0.6c-1,0-1.7,0.2-2.1,0.6c-0.5,0.4-0.7,0.8-0.7,1.4v0.1c0,0.4,0.1,0.7,0.2,0.9
			c0.1,0.3,0.4,0.5,0.7,0.7c0.4,0.2,0.9,0.4,1.5,0.6c0.6,0.2,1.4,0.4,2.4,0.7c1.1,0.3,2.1,0.6,3,1c0.9,0.4,1.6,0.8,2.2,1.3
			c0.6,0.5,1.1,1.1,1.4,1.8c0.3,0.7,0.5,1.5,0.5,2.5v0.1C276.3,44,276.1,44.9,275.7,45.8z"/>
		<path class="st1" d="M302.2,42.8c-0.6,1.4-1.4,2.6-2.5,3.6c-1,1-2.3,1.9-3.7,2.5c-1.4,0.6-3,0.9-4.7,0.9s-3.3-0.3-4.7-0.9
			c-1.4-0.6-2.7-1.4-3.7-2.4c-1-1-1.9-2.2-2.4-3.6c-0.6-1.4-0.9-2.9-0.9-4.5v-0.1c0-1.6,0.3-3.1,0.9-4.5c0.6-1.4,1.4-2.6,2.5-3.6
			c1-1,2.3-1.9,3.7-2.5c1.4-0.6,3-0.9,4.7-0.9c1.7,0,3.3,0.3,4.7,0.9c1.4,0.6,2.7,1.4,3.7,2.4c1,1,1.9,2.2,2.4,3.6
			c0.6,1.4,0.9,2.9,0.9,4.5v0.1C303.1,39.9,302.8,41.4,302.2,42.8z M298,38.3c0-1-0.2-1.8-0.5-2.7c-0.3-0.8-0.8-1.6-1.4-2.2
			c-0.6-0.6-1.3-1.1-2.1-1.5c-0.8-0.4-1.7-0.6-2.7-0.6c-1,0-1.9,0.2-2.7,0.5c-0.8,0.4-1.5,0.9-2.1,1.5c-0.6,0.6-1,1.4-1.4,2.2
			c-0.3,0.8-0.5,1.7-0.5,2.7v0.1c0,1,0.2,1.8,0.5,2.7c0.3,0.8,0.8,1.6,1.4,2.2c0.6,0.6,1.3,1.1,2.1,1.5c0.8,0.4,1.7,0.6,2.7,0.6
			c1,0,1.9-0.2,2.7-0.5c0.8-0.4,1.5-0.9,2.1-1.5c0.6-0.6,1-1.4,1.4-2.2C297.9,40.2,298,39.3,298,38.3L298,38.3z"/>
		<path class="st1" d="M307.5,49.4V27.2h4.9V45h11.1v4.4H307.5z"/>
		<path class="st1" d="M348.8,42.8c-0.6,1.4-1.4,2.6-2.5,3.6c-1,1-2.3,1.9-3.7,2.5c-1.4,0.6-3,0.9-4.7,0.9s-3.3-0.3-4.7-0.9
			c-1.4-0.6-2.7-1.4-3.7-2.4c-1-1-1.9-2.2-2.4-3.6c-0.6-1.4-0.9-2.9-0.9-4.5v-0.1c0-1.6,0.3-3.1,0.9-4.5c0.6-1.4,1.4-2.6,2.5-3.6
			c1-1,2.3-1.9,3.7-2.5c1.4-0.6,3-0.9,4.7-0.9s3.3,0.3,4.7,0.9c1.4,0.6,2.7,1.4,3.7,2.4c1,1,1.9,2.2,2.4,3.6
			c0.6,1.4,0.9,2.9,0.9,4.5v0.1C349.7,39.9,349.4,41.4,348.8,42.8z M344.6,38.3c0-1-0.2-1.8-0.5-2.7c-0.3-0.8-0.8-1.6-1.4-2.2
			c-0.6-0.6-1.3-1.1-2.1-1.5c-0.8-0.4-1.7-0.6-2.7-0.6c-1,0-1.9,0.2-2.7,0.5c-0.8,0.4-1.5,0.9-2.1,1.5c-0.6,0.6-1,1.4-1.4,2.2
			c-0.3,0.8-0.5,1.7-0.5,2.7v0.1c0,1,0.2,1.8,0.5,2.7c0.3,0.8,0.8,1.6,1.4,2.2c0.6,0.6,1.3,1.1,2.1,1.5c0.8,0.4,1.7,0.6,2.7,0.6
			c1,0,1.9-0.2,2.7-0.5c0.8-0.4,1.5-0.9,2.1-1.5c0.6-0.6,1-1.4,1.4-2.2C344.4,40.2,344.6,39.3,344.6,38.3L344.6,38.3z"/>
	</g>
	<g>
		<path class="st1" d="M117.1,138.4c-0.9,2-2.1,3.7-3.7,5.1c-1.6,1.5-3.5,2.7-5.7,3.6c-2.2,0.9-4.8,1.5-7.5,1.8v8.6h-9v-8.7
			c-3.7-0.5-7.4-1.4-10.9-2.8c-3.5-1.4-6.7-3.2-9.6-5.4l6.7-9.9c2.4,1.8,4.7,3.3,6.9,4.5c2.2,1.2,4.6,2,7.2,2.6V124
			c-3.1-0.9-5.8-1.8-8.2-2.9c-2.3-1.1-4.3-2.3-5.8-3.8c-1.5-1.4-2.7-3.1-3.5-5.1c-0.8-1.9-1.2-4.2-1.2-6.7c0-2.4,0.4-4.6,1.3-6.6
			c0.9-2,2.1-3.7,3.7-5.1c1.6-1.5,3.5-2.7,5.7-3.5c2.2-0.9,4.7-1.5,7.4-1.8v-5h9v5.2c3.1,0.5,6,1.2,8.6,2.3c2.6,1.1,5.1,2.4,7.5,4.1
			l-5.8,10.1c-1.7-1.2-3.5-2.2-5.3-3.1c-1.8-0.9-3.6-1.6-5.4-2v13.1c6.6,1.8,11.3,4.1,14.3,7c3,2.9,4.5,6.8,4.5,11.6
			C118.4,134.3,118,136.5,117.1,138.4z M91.5,99.3c-2.1,0.3-3.6,0.9-4.5,1.9c-1,1-1.4,2.2-1.4,3.5c0,1.3,0.4,2.5,1.2,3.5
			c0.8,1,2.4,1.9,4.8,2.8V99.3z M104.5,128.8c-0.9-1-2.5-1.9-4.8-2.8v12.1c4.1-0.6,6.1-2.5,6.1-5.6
			C105.8,131,105.3,129.8,104.5,128.8z"/>
	</g>
	<g>
		<path class="st1" d="M160.4,83.8l-16.2,3.7l-5.1-20.6l28.2-8h19.4v97h-26.3V83.8z"/>
		<path class="st1" d="M203.3,146.4l12.5-18.4c6.6,5.2,12.9,7.7,20.6,7.7c11,0,16.9-7.7,18.2-20.1c-5,4.7-11.8,7.8-20.4,7.8
			c-18.7,0-32.3-11.6-32.3-30.4v-0.3c0-21.3,16.4-35.1,38.4-35.1c14,0,22.3,4,29.6,11.3c7,6.9,11.6,17.9,11.6,35.6v0.3
			c0,31.5-15.7,52.9-44.6,52.9C222.6,157.8,212.1,153.3,203.3,146.4z M255.1,91.8v-0.3c0-7.4-5.4-13.1-13.8-13.1
			c-8.4,0-13.5,5.5-13.5,12.9v0.3c0,7.3,5.4,12.7,13.8,12.7C250,104.3,255.1,98.8,255.1,91.8z"/>
		<path class="st1" d="M293.7,146.4l12.5-18.4c6.6,5.2,12.9,7.7,20.6,7.7c11,0,16.9-7.7,18.2-20.1c-5,4.7-11.8,7.8-20.4,7.8
			c-18.7,0-32.3-11.6-32.3-30.4v-0.3c0-21.3,16.4-35.1,38.4-35.1c14,0,22.3,4,29.6,11.3c7,6.9,11.6,17.9,11.6,35.6v0.3
			c0,31.5-15.7,52.9-44.6,52.9C313,157.8,302.5,153.3,293.7,146.4z M345.4,91.8v-0.3c0-7.4-5.4-13.1-13.8-13.1s-13.5,5.5-13.5,12.9
			v0.3c0,7.3,5.4,12.7,13.8,12.7C340.3,104.3,345.4,98.8,345.4,91.8z"/>
	</g>
	<g>
		<path class="st1" d="M409.7,128.7l-2.1-5.2h-9.8l-2.1,5.2h-5.2l10-23.4h4.7l10,23.4H409.7z M402.6,111.5l-3.1,7.5h6.2L402.6,111.5
			z"/>
		<path class="st1" d="M418.6,128.7v-23.2h5.1v18.6h11.6v4.6H418.6z"/>
		<path class="st1" d="M410.6,155.7v-15.2l-6.5,9.9h-0.1l-6.5-9.8v15.1h-5v-23.2h5.5l6.1,9.8l6.1-9.8h5.5v23.2H410.6z"/>
		<path class="st1" d="M421.2,155.7v-23.2h17.5v4.5h-12.5v4.7h11v4.5h-11v4.9h12.6v4.5H421.2z"/>
		<path class="st1" d="M459.6,151.9c-0.4,0.9-1,1.6-1.7,2.3c-0.7,0.6-1.6,1.1-2.7,1.4c-1,0.3-2.2,0.5-3.4,0.5
			c-1.8,0-3.5-0.3-5.2-0.9c-1.7-0.6-3.3-1.5-4.6-2.8l3-3.6c1.1,0.9,2.2,1.5,3.3,2.1c1.1,0.5,2.3,0.8,3.7,0.8c1.1,0,1.9-0.2,2.5-0.6
			c0.6-0.4,0.9-0.9,0.9-1.6v-0.1c0-0.3-0.1-0.6-0.2-0.9c-0.1-0.3-0.4-0.5-0.7-0.7c-0.3-0.2-0.8-0.4-1.4-0.7
			c-0.6-0.2-1.4-0.5-2.4-0.7c-1.2-0.3-2.2-0.6-3.2-1c-1-0.4-1.8-0.8-2.4-1.3c-0.7-0.5-1.2-1.2-1.5-1.9c-0.4-0.8-0.5-1.7-0.5-2.9
			v-0.1c0-1.1,0.2-2,0.6-2.9c0.4-0.9,1-1.6,1.7-2.2c0.7-0.6,1.6-1.1,2.6-1.4c1-0.3,2.1-0.5,3.3-0.5c1.7,0,3.3,0.3,4.7,0.8
			c1.4,0.5,2.7,1.2,3.9,2.2l-2.7,3.9c-1-0.7-2.1-1.3-3.1-1.7c-1-0.4-2-0.6-3-0.6s-1.7,0.2-2.2,0.6c-0.5,0.4-0.7,0.9-0.7,1.4v0.1
			c0,0.4,0.1,0.7,0.2,1c0.1,0.3,0.4,0.5,0.8,0.7c0.4,0.2,0.9,0.4,1.5,0.6c0.7,0.2,1.5,0.4,2.5,0.7c1.2,0.3,2.2,0.7,3.1,1
			c0.9,0.4,1.7,0.9,2.3,1.4c0.6,0.5,1.1,1.2,1.4,1.9c0.3,0.7,0.5,1.6,0.5,2.6v0.1C460.2,149.9,460,151,459.6,151.9z"/>
	</g>
</g>
</svg>
